<svg width="21" height="18" viewBox="0 0 21 18" fill="none" xmlns="http://www.w3.org/2000/svg">
<path d="M20.4492 8.98242C20.4492 9.61523 19.9165 10.1109 19.3127 10.1109H18.1763L18.2011 15.743C18.2011 15.8379 18.194 15.9328 18.1834 16.0277V16.5938C18.1834 17.3707 17.5477 18 16.7628 18H16.1946C16.1555 18 16.1164 18 16.0774 17.9965C16.0276 18 15.9779 18 15.9282 18H14.774H13.9216C13.1368 18 12.5011 17.3707 12.5011 16.5938V15.75V13.5C12.5011 12.8777 11.9932 12.375 11.3646 12.375H9.09168C8.46308 12.375 7.95522 12.8777 7.95522 13.5V15.75V16.5938C7.95522 17.3707 7.31952 18 6.53465 18H5.6823H4.54939C4.49612 18 4.44285 17.9965 4.38958 17.993C4.34696 17.9965 4.30434 18 4.26173 18H3.6935C2.90863 18 2.27292 17.3707 2.27292 16.5938V12.6562C2.27292 12.6246 2.27292 12.5895 2.27647 12.5578V10.1109H1.13646C0.497201 10.1109 0 9.61875 0 8.98242C0 8.66602 0.106543 8.38477 0.355144 8.13867L9.46103 0.28125C9.70963 0.0351562 9.99375 0 10.2423 0C10.4909 0 10.7751 0.0703125 10.9882 0.246094L20.0585 8.13867C20.3426 8.38477 20.4847 8.66602 20.4492 8.98242Z" fill="white"/>
</svg>
