<svg width="17" height="12" viewBox="0 0 17 12" fill="none" xmlns="http://www.w3.org/2000/svg">
<path d="M9.35 3C9.35 4.65703 7.82797 6 5.95 6C4.07203 6 2.55 4.65703 2.55 3C2.55 1.34297 4.07203 0 5.95 0C7.82797 0 9.35 1.34297 9.35 3ZM0 11.3039C0 8.99531 2.11969 7.125 4.73609 7.125H7.16391C9.78031 7.125 11.9 8.99531 11.9 11.3039C11.9 11.6883 11.5467 12 11.1111 12H0.788906C0.353281 12 0 11.6883 0 11.3039ZM12.5109 3.35156C12.7606 3.13125 13.1644 3.13125 13.4114 3.35156L14.6598 4.45312L15.9083 3.35156C16.158 3.13125 16.5617 3.13125 16.8088 3.35156C17.0558 3.57188 17.0584 3.92812 16.8088 4.14609L15.5603 5.24766L16.8088 6.34922C17.0584 6.56953 17.0584 6.92578 16.8088 7.14375C16.5591 7.36172 16.1553 7.36406 15.9083 7.14375L14.6598 6.04219L13.4114 7.14375C13.1617 7.36406 12.758 7.36406 12.5109 7.14375C12.2639 6.92344 12.2613 6.56719 12.5109 6.34922L13.7594 5.24766L12.5109 4.14609C12.2613 3.92578 12.2613 3.56953 12.5109 3.35156Z" fill="#B7B7B7"/>
</svg>
