<svg width="15" height="18" viewBox="0 0 15 18" fill="none" xmlns="http://www.w3.org/2000/svg">
<path d="M6.26068 8.49725C6.26068 8.28881 6.26068 8.17232 6.26068 8.05584C6.26068 5.87941 6.26068 3.70298 6.26068 1.53268C6.26068 1.31197 6.26068 1.079 6.32025 0.86442C6.48705 0.281995 7.04106 -0.0674603 7.63677 0.01224C8.26823 0.098071 8.69714 0.521096 8.70905 1.1587C8.73288 2.92437 8.72693 4.69003 8.72693 6.4557C8.72693 7.09943 8.72693 7.74317 8.72693 8.4666C8.87585 8.32559 8.98308 8.23363 9.08435 8.13554C9.88856 7.30175 10.6868 6.46183 11.491 5.62804C11.8127 5.29085 12.194 5.1008 12.6646 5.16823C13.5998 5.30311 14.0466 6.36987 13.5105 7.173C13.433 7.28949 13.3377 7.39984 13.2424 7.49793C11.6817 9.11033 10.1149 10.7227 8.54821 12.329C7.8691 13.0279 7.12446 13.0279 6.4394 12.3229C4.86672 10.7043 3.3 9.08581 1.72137 7.47341C1.3282 7.07491 1.15544 6.60897 1.31033 6.0572C1.55457 5.18663 2.57323 4.8433 3.25234 5.42573C3.78253 5.87941 4.25314 6.41278 4.74162 6.92164C5.1467 7.33853 5.54583 7.76769 5.95091 8.19071C6.02836 8.27041 6.11175 8.35011 6.26068 8.49725Z" fill="#B7B7B7"/>
<path d="M7.49419 17.9999C5.45686 17.9999 3.42549 17.9999 1.38816 17.9999C0.679261 17.9999 0.250349 17.7179 0.0656791 17.1355C-0.184519 16.3568 0.262264 15.5966 1.0486 15.474C1.1737 15.4556 1.30476 15.4434 1.43581 15.4434C5.47473 15.4434 9.51961 15.4434 13.5585 15.4434C14.2853 15.4434 14.7083 15.7009 14.9108 16.2649C15.1908 17.0312 14.738 17.8405 13.9517 17.9692C13.8028 17.9938 13.6538 17.9999 13.5049 17.9999C11.5093 17.9999 9.50174 17.9999 7.49419 17.9999Z" fill="#B7B7B7"/>
</svg>
