<svg width="16" height="16" viewBox="0 0 16 16" fill="none" xmlns="http://www.w3.org/2000/svg">
<path d="M2.34301 2.34248C-0.781002 5.46648 -0.781002 10.5328 2.34301 13.6573C5.46701 16.7819 10.5323 16.7803 13.6563 13.6563C16.7803 10.5323 16.7819 5.46701 13.6573 2.34301C10.5333 -0.781002 5.46808 -0.781002 2.34301 2.34301V2.34248ZM13.2823 2.71799C13.7116 3.15279 14.0861 3.63833 14.3978 4.16384L12.2338 6.32784C12.006 5.74758 11.6607 5.22066 11.2196 4.78016C10.779 4.33868 10.2516 3.99321 9.6709 3.76552L11.8349 1.60152C12.3613 1.91327 12.8475 2.28821 13.2829 2.71799H13.2823ZM5.15673 10.8436C4.40281 10.0891 3.97923 9.0662 3.97903 7.99959C3.97883 6.93298 4.40203 5.90991 5.15567 5.15514C5.91058 4.40188 6.93347 3.97884 7.9999 3.97884C9.06634 3.97884 10.0892 4.40188 10.8441 5.15514C11.5968 5.91023 12.0195 6.93293 12.0195 7.9991C12.0195 9.06528 11.5968 10.088 10.8441 10.8431C10.0895 11.5966 9.06678 12.0199 8.00039 12.0201C6.93399 12.0203 5.91109 11.5973 5.1562 10.8441L5.15673 10.8436ZM2.71746 13.2823C2.28784 12.8468 1.91292 12.3606 1.60099 11.8344L3.76499 9.67037C3.99391 10.2503 4.33951 10.777 4.78036 11.2178C5.22122 11.6587 5.74793 12.0043 6.32784 12.2332L4.16278 14.3972C3.6483 14.0896 3.16034 13.7236 2.71693 13.2818L2.71746 13.2823ZM4.16437 1.59993L6.32943 3.76499C5.74916 3.99316 5.22213 4.33843 4.78119 4.77928C4.34025 5.22013 3.99487 5.74709 3.76658 6.32731L1.60152 4.16331C1.90915 3.64883 2.27512 3.16087 2.71799 2.7164C3.15322 2.28693 3.63909 1.91201 4.1649 1.59993H4.16437ZM11.836 14.3972L9.6709 12.2322C10.2513 12.0043 10.7784 11.6592 11.2194 11.2184C11.6603 10.7776 12.0057 10.2506 12.2338 9.67037L14.3988 11.8344C14.0912 12.3488 13.7252 12.8379 13.2823 13.2823C12.8471 13.7115 12.3612 14.0861 11.8354 14.3978L11.836 14.3972Z" fill="#B7B7B7"/>
</svg>
