<svg width="15" height="17" viewBox="0 0 15 17" fill="none" xmlns="http://www.w3.org/2000/svg">
<path d="M13.5156 7.07813C13.7987 7.07813 14.0319 7.29338 14.0594 7.569L14.0625 7.625V14.0781C14.0626 14.671 13.8334 15.2409 13.4229 15.6686C13.0124 16.0964 12.4525 16.3489 11.8601 16.3733L11.7656 16.375H3.23438C2.64153 16.3751 2.07163 16.1459 1.64388 15.7354C1.21612 15.3249 0.963641 14.765 0.93925 14.1726L0.9375 14.0781V7.625C0.937952 7.48512 0.991987 7.35073 1.08849 7.24948C1.185 7.14822 1.31663 7.08779 1.45633 7.08061C1.59603 7.07344 1.73316 7.12007 1.83953 7.21091C1.9459 7.30176 2.01341 7.4299 2.02819 7.569L2.03125 7.625V14.0781C2.03123 14.3845 2.1481 14.6793 2.35802 14.9025C2.56793 15.1257 2.85507 15.2603 3.16087 15.2791L3.23438 15.2813H11.7656C12.0721 15.2813 12.367 15.1643 12.5901 14.9543C12.8133 14.7443 12.948 14.4571 12.9666 14.1512L12.9688 14.0781V7.625C12.9688 7.32313 13.2137 7.07813 13.5156 7.07813ZM3.60188 4.188L7.00519 0.785127C7.10045 0.68989 7.22751 0.633161 7.36201 0.625815C7.49651 0.618468 7.62899 0.66102 7.73406 0.745315L7.77825 0.785127L11.1811 4.188C11.281 4.28668 11.3392 4.42001 11.3435 4.56037C11.3477 4.70073 11.2979 4.83736 11.2042 4.94197C11.1105 5.04657 10.9802 5.11112 10.8402 5.12225C10.7002 5.13338 10.5613 5.09023 10.4522 5.00175L10.4081 4.9615L7.9375 2.49094V11.3438C7.93756 11.4791 7.8874 11.6097 7.79672 11.7103C7.70605 11.8108 7.5813 11.8741 7.44663 11.888L7.39062 11.8906C7.25524 11.8907 7.12464 11.8405 7.0241 11.7499C6.92357 11.6592 6.86024 11.5344 6.84638 11.3998L6.84375 11.3438V2.49269L4.37537 4.9615C4.28011 5.05674 4.15305 5.11347 4.01855 5.12081C3.88405 5.12816 3.75157 5.08561 3.6465 5.00131L3.60188 4.96194C3.50658 4.8666 3.44986 4.73942 3.44259 4.60482C3.43532 4.47022 3.47803 4.33767 3.5625 4.23263L3.60188 4.188L7.00519 0.785127L3.60188 4.188Z" fill="#B7B7B7"/>
</svg>
