<svg width="15" height="16" viewBox="0 0 15 16" fill="none" xmlns="http://www.w3.org/2000/svg">
<path fill-rule="evenodd" clip-rule="evenodd" d="M1.375 15.875H5.875V14.75H1.375V1.25H10.375V6.875H11.5V1.25C11.4997 0.951723 11.3811 0.665748 11.1702 0.454834C10.9593 0.24392 10.6733 0.125298 10.375 0.125H1.375C1.07672 0.125298 0.790748 0.24392 0.579834 0.454834C0.36892 0.665748 0.250298 0.951723 0.25 1.25V14.75C0.250298 15.0483 0.36892 15.3343 0.579834 15.5452C0.790748 15.7561 1.07672 15.8747 1.375 15.875ZM5.875 6.875H2.5V8H5.875V6.875ZM9.25 2.375H2.5V3.5H9.25V2.375ZM9.25 4.625H2.5V5.75H9.25V4.625ZM5.875 12.5H2.5V13.625H5.875V12.5ZM8.61926 13.5568C8.93572 13.2403 9.36495 13.0625 9.8125 13.0625H13.1875C13.6351 13.0625 14.0643 13.2403 14.3807 13.5568C14.6972 13.8732 14.875 14.3024 14.875 14.75V15.875H13.75V14.75C13.75 14.6008 13.6907 14.4577 13.5852 14.3523C13.4798 14.2468 13.3367 14.1875 13.1875 14.1875H9.8125C9.66332 14.1875 9.52024 14.2468 9.41475 14.3523C9.30926 14.4577 9.25 14.6008 9.25 14.75V15.875H8.125V14.75C8.125 14.3024 8.30279 13.8732 8.61926 13.5568ZM12.75 12.1208C12.38 12.368 11.945 12.5 11.5 12.5C10.9033 12.5 10.331 12.2629 9.90901 11.841C9.48705 11.419 9.25 10.8467 9.25 10.25C9.25 9.80499 9.38196 9.36998 9.62919 8.99997C9.87643 8.62996 10.2278 8.34157 10.639 8.17127C11.0501 8.00097 11.5025 7.95642 11.939 8.04323C12.3754 8.13005 12.7763 8.34434 13.091 8.65901C13.4057 8.97368 13.62 9.37459 13.7068 9.81105C13.7936 10.2475 13.749 10.6999 13.5787 11.111C13.4084 11.5222 13.12 11.8736 12.75 12.1208ZM12.125 9.3146C11.94 9.19098 11.7225 9.125 11.5 9.125C11.2016 9.125 10.9155 9.24353 10.7045 9.4545C10.4935 9.66548 10.375 9.95163 10.375 10.25C10.375 10.4725 10.441 10.69 10.5646 10.875C10.6882 11.06 10.8639 11.2042 11.0695 11.2894C11.275 11.3745 11.5012 11.3968 11.7195 11.3534C11.9377 11.31 12.1382 11.2028 12.2955 11.0455C12.4528 10.8882 12.56 10.6877 12.6034 10.4695C12.6468 10.2512 12.6245 10.025 12.5394 9.81948C12.4542 9.61391 12.31 9.43821 12.125 9.3146Z" fill="#B6B6B6"/>
</svg>
