<svg width="15" height="14" viewBox="0 0 15 14" fill="none" xmlns="http://www.w3.org/2000/svg">
<path d="M3.33333 6.33301H8.66667V7.66634H3.33333V9.66634L0 6.99968L3.33333 4.33301V6.33301ZM2.66667 10.9997H4.472C5.24179 11.6786 6.19112 12.1209 7.20608 12.2736C8.22105 12.4264 9.25852 12.283 10.194 11.8607C11.1295 11.4384 11.9233 10.7551 12.48 9.89289C13.0368 9.03065 13.333 8.02606 13.333 6.99968C13.333 5.97329 13.0368 4.9687 12.48 4.10647C11.9233 3.24423 11.1295 2.56097 10.194 2.13867C9.25852 1.71638 8.22105 1.57299 7.20608 1.72571C6.19112 1.87844 5.24179 2.32079 4.472 2.99968H2.66667C3.28711 2.17113 4.09222 1.49868 5.01805 1.03577C5.94387 0.572858 6.9649 0.332232 8 0.33301C11.682 0.33301 14.6667 3.31768 14.6667 6.99968C14.6667 10.6817 11.682 13.6663 8 13.6663C6.9649 13.6671 5.94387 13.4265 5.01805 12.9636C4.09222 12.5007 3.28711 11.8282 2.66667 10.9997Z" fill="#B7B7B7"/>
</svg>
