<svg width="18" height="16" viewBox="0 0 18 16" fill="none" xmlns="http://www.w3.org/2000/svg">
<path d="M4.25391 0.125C3.22031 0.125 2.32031 0.828125 2.0707 1.83008L0.0667969 9.84219C0.0210938 10.0215 0 10.2043 0 10.3871V13.625C0 14.866 1.00898 15.875 2.25 15.875H15.75C16.991 15.875 18 14.866 18 13.625V10.3871C18 10.2043 17.9789 10.0215 17.9332 9.84219L15.9293 1.83008C15.6797 0.828125 14.7797 0.125 13.7461 0.125H4.25391ZM4.25391 2.375H13.7461L15.4336 9.125H13.6336C13.2082 9.125 12.818 9.36406 12.6281 9.74727L12.1254 10.7527C11.9355 11.1324 11.5453 11.375 11.1199 11.375H6.88359C6.4582 11.375 6.06797 11.1359 5.87812 10.7527L5.37539 9.74727C5.18555 9.36758 4.79531 9.125 4.36992 9.125H2.56641L4.25391 2.375Z" fill="#444444"/>
</svg>
