<svg width="17" height="18" viewBox="0 0 17 18" fill="none" xmlns="http://www.w3.org/2000/svg">
<path d="M5.81859 0.189755C6.10349 -0.0668855 6.54545 -0.0633699 6.83036 0.193271C7.83847 1.10382 8.7845 2.08468 9.66843 3.1464C10.0702 2.64015 10.5268 2.08819 11.0199 1.63819C11.3084 1.37804 11.7541 1.37804 12.0426 1.64171C13.3064 2.80186 14.3766 4.33468 15.1291 5.79015C15.8705 7.22452 16.3636 8.69054 16.3636 9.72413C16.3636 14.2101 12.7183 17.9999 8.18182 17.9999C3.59416 17.9999 0 14.2066 0 9.72062C0 8.37062 0.650162 6.72179 1.65828 5.09054C2.67735 3.43468 4.11648 1.70851 5.81859 0.189755ZM8.24391 14.6249C9.16802 14.6249 9.9862 14.3788 10.7569 13.8866C12.2946 12.853 12.7074 10.7858 11.7833 9.16163C11.681 8.96476 11.5787 8.76788 11.4253 8.571L9.57711 10.6382C9.57711 10.6382 6.6039 6.99601 6.3957 6.74991C4.86161 8.571 4.09091 9.6046 4.09091 10.7858C4.09091 13.1976 5.93912 14.6249 8.24391 14.6249Z" fill="#444444"/>
</svg>
