<svg width="15" height="12" viewBox="0 0 15 12" fill="none" xmlns="http://www.w3.org/2000/svg">
<path d="M4.87526 8.25C7.56823 8.25 9.75026 6.40312 9.75026 4.125C9.75026 1.84688 7.56823 0 4.87526 0C2.18229 0 0.00025651 1.84688 0.00025651 4.125C0.00025651 5.02969 0.344788 5.86641 0.928381 6.54844C0.84635 6.76875 0.724475 6.96328 0.595569 7.12734C0.483069 7.27266 0.368225 7.38516 0.28385 7.4625C0.241663 7.5 0.206507 7.53047 0.183069 7.54922C0.17135 7.55859 0.161975 7.56562 0.157288 7.56797L0.1526 7.57266C0.023694 7.66875 -0.032556 7.8375 0.0190065 7.98984C0.070569 8.14219 0.213538 8.25 0.375257 8.25C0.886194 8.25 1.40182 8.11875 1.83073 7.95703C2.04635 7.875 2.24791 7.78359 2.42369 7.68984C3.14323 8.04609 3.97994 8.25 4.87526 8.25ZM10.5003 4.125C10.5003 6.75703 8.1776 8.73984 5.42604 8.97656C5.99557 10.7203 7.88463 12 10.1253 12C11.0206 12 11.8573 11.7961 12.5792 11.4398C12.7549 11.5336 12.9542 11.625 13.1698 11.707C13.5987 11.8687 14.1143 12 14.6253 12C14.787 12 14.9323 11.8945 14.9815 11.7398C15.0307 11.5852 14.9768 11.4164 14.8456 11.3203L14.8409 11.3156C14.8362 11.3109 14.8268 11.3062 14.8151 11.2969C14.7917 11.2781 14.7565 11.25 14.7143 11.2102C14.6299 11.1328 14.5151 11.0203 14.4026 10.875C14.2737 10.7109 14.1518 10.5141 14.0698 10.2961C14.6534 9.61641 14.9979 8.77969 14.9979 7.87266C14.9979 5.69766 13.0081 3.91406 10.4839 3.75937C10.4932 3.87891 10.4979 4.00078 10.4979 4.12266L10.5003 4.125Z" fill="#444444"/>
</svg>
