<svg width="15" height="12" viewBox="0 0 15 12" fill="none" xmlns="http://www.w3.org/2000/svg">
<path d="M5.27227 6.00042C6.91352 6.00042 8.24369 4.7214 8.24369 3.14328C8.24369 1.56515 6.91352 0.286133 5.27227 0.286133C3.63102 0.286133 2.30084 1.56515 2.30084 3.14328C2.30084 4.7214 3.63102 6.00042 5.27227 6.00042ZM7.35227 6.7147H6.96459C6.44923 6.94238 5.87584 7.07185 5.27227 7.07185C4.66869 7.07185 4.09762 6.94238 3.57994 6.7147H3.19227C1.46977 6.7147 0.0722656 8.05845 0.0722656 9.71471V10.6433C0.0722656 11.2348 0.571373 11.7147 1.18655 11.7147H7.56816C7.51244 11.5629 7.48923 11.4022 7.5078 11.2393L7.66566 9.87988L7.69352 9.63212L7.87691 9.45578L9.67137 7.73033C9.10262 7.11203 8.27852 6.7147 7.35227 6.7147ZM8.40387 9.95801L8.24602 11.3196C8.22048 11.5473 8.42012 11.7393 8.65459 11.7125L10.0683 11.5607L13.2696 8.48256L11.6051 6.88212L8.40387 9.95801ZM14.7669 6.28837L13.8871 5.44238C13.6712 5.23479 13.3183 5.23479 13.1024 5.44238L12.2249 6.28613L12.1298 6.37765L13.7966 7.9781L14.7669 7.04506C14.9828 6.83524 14.9828 6.49819 14.7669 6.28837Z" fill="black"/>
</svg>
