<svg width="24" height="19" viewBox="0 0 24 19" fill="none" xmlns="http://www.w3.org/2000/svg">
<path d="M16.3201 11.1442C16.8134 10.3168 17.0963 9.3474 17.0963 8.3125C17.0963 8.19638 17.0926 8.08185 17.0856 7.9688C17.352 7.89482 17.6334 7.85577 17.9258 7.85577H19.486C21.2238 7.85577 22.6538 9.2917 22.6538 11.0846C22.6538 11.1046 22.6467 11.1195 22.6359 11.1304C22.625 11.1415 22.6149 11.1442 22.6063 11.1442H16.3201ZM6.28827 8.3125C6.28827 9.34807 6.57301 10.3173 7.06613 11.1442H0.778269C0.772031 11.1442 0.761775 11.1423 0.749544 11.1299C0.737167 11.1173 0.730769 11.1016 0.730769 11.0846C0.730769 9.2917 2.16077 7.85577 3.89865 7.85577H5.45885C5.74904 7.85577 6.03027 7.89568 6.29803 7.97014C6.29143 8.08426 6.28827 8.19852 6.28827 8.3125ZM5.26154 5.20673C4.06077 5.20673 3.06923 4.21611 3.06923 2.96875C3.06923 1.72139 4.06077 0.730769 5.26154 0.730769C6.46231 0.730769 7.45385 1.72139 7.45385 2.96875C7.45385 4.21611 6.46231 5.20673 5.26154 5.20673ZM18.7077 5.20673C17.5069 5.20673 16.5154 4.21611 16.5154 2.96875C16.5154 1.72139 17.5069 0.730769 18.7077 0.730769C19.9085 0.730769 20.9 1.72139 20.9 2.96875C20.9 4.21611 19.9085 5.20673 18.7077 5.20673ZM14.4692 8.3125C14.4692 9.88643 13.2146 11.1442 11.6923 11.1442C10.17 11.1442 8.91538 9.88643 8.91538 8.3125C8.91538 6.73857 10.17 5.48077 11.6923 5.48077C13.2146 5.48077 14.4692 6.73857 14.4692 8.3125ZM5.40769 18.0092C5.40769 15.6708 7.2725 13.7933 9.5475 13.7933H13.8371C16.1121 13.7933 17.9769 15.6708 17.9769 18.0092C17.9769 18.1636 17.8569 18.2692 17.7321 18.2692H5.6525C5.52785 18.2692 5.40769 18.1637 5.40769 18.0092Z" stroke="#444444" stroke-width="1.46154"/>
</svg>
