<svg width="20" height="16" viewBox="0 0 20 16" fill="none" xmlns="http://www.w3.org/2000/svg">
<path d="M1.21268 0.159062C0.887676 -0.0971876 0.415801 -0.0378126 0.159551 0.287187C-0.0966993 0.612187 -0.0373243 1.08406 0.287676 1.34031L18.7877 15.8403C19.1127 16.0966 19.5845 16.0372 19.8408 15.7122C20.097 15.3872 20.0377 14.9153 19.7127 14.6591L16.9783 12.5153C16.9939 12.4622 17.0002 12.4059 17.0002 12.3466C17.0002 11.4841 16.6564 10.6559 16.047 10.0434L16.0002 9.99969C15.3595 9.35906 15.0002 8.49031 15.0002 7.58406V6.49969C15.0002 4.08094 13.2814 2.06219 11.0002 1.59969V0.999687C11.0002 0.446562 10.5533 -0.000312626 10.0002 -0.000312626C9.44705 -0.000312626 9.00017 0.446562 9.00017 0.999687V1.59969C7.66892 1.86844 6.53142 2.66844 5.81267 3.76531L1.21268 0.159062ZM5.00017 7.58406C5.00017 8.49031 4.6408 9.35906 4.00017 9.99969L3.9533 10.0466C3.34393 10.6559 3.00018 11.4841 3.00018 12.3497C3.00018 12.7091 3.2908 12.9997 3.65018 12.9997H12.6939L5.00017 6.94031V7.58719V7.58406ZM12.0002 13.9997H10.0002H8.00017C8.00017 14.5309 8.20955 15.0403 8.58455 15.4153C8.95955 15.7903 9.46892 15.9997 10.0002 15.9997C10.5314 15.9997 11.0408 15.7903 11.4158 15.4153C11.7908 15.0403 12.0002 14.5309 12.0002 13.9997Z" fill="white"/>
</svg>
