<svg width="50" height="100" viewBox="0 0 50 100" fill="none" xmlns="http://www.w3.org/2000/svg">
<g clip-path="url(#clip0_22_12160)">
<path d="M28.4652 8.78223H23.2142C23.2142 8.78223 22.4613 15.91 21.0907 16.7564C21.0907 16.7564 19.4015 25.1731 25.8397 25.1731C33.6293 25.1731 30.5888 16.7564 30.5888 16.7564C29.2181 15.91 28.4652 8.78223 28.4652 8.78223Z" fill="#E76F59"/>
<path d="M32.664 10.1771C31.9401 9.34026 31.0617 10.61 31.0617 10.61C31.0617 10.61 32.2586 5.89663 31.0617 3.83814C29.8648 1.77004 25.9748 2.857 25.9748 2.857C25.9748 2.857 22.0849 1.77004 20.8879 3.83814C19.691 5.90625 20.8879 10.61 20.8879 10.61C20.8879 10.61 20.0192 9.34026 19.2856 10.1771C18.5617 11.014 20.4825 13.1109 20.9266 13.3707C20.9266 13.3707 23.7258 18.5842 25.9845 18.5842C28.2432 18.5842 31.0424 13.3707 31.0424 13.3707C31.4767 13.1206 33.4073 11.014 32.6833 10.1771H32.664Z" fill="#F9A57E"/>
<path d="M25 4.72311C25 4.72311 22.056 5.24255 21.7278 6.82008C21.5733 7.5896 21.7471 8.41684 21.8822 9.16713C21.9594 9.57113 22.2394 11.7162 22.1332 11.7643C22.027 11.8124 21.834 11.7643 21.7471 11.6969C21.3513 11.3795 21.0328 10.9082 20.7529 10.4946C20.193 9.67694 19.3919 9.81161 19.1602 10.331C19.1602 10.331 18.5038 2.5973 21.7471 2.32796C24.9903 2.05863 24.9903 4.72311 24.9903 4.72311H25Z" fill="#292C3D"/>
<path d="M26.9111 4.72311C26.9111 4.72311 29.8551 5.24255 30.1833 6.82008C30.3378 7.5896 30.164 8.41684 30.0289 9.16713C29.9517 9.57113 29.6718 11.7162 29.7779 11.7643C29.8841 11.8124 30.0772 11.7643 30.164 11.6969C30.5598 11.3795 30.8783 10.9082 31.1582 10.4946C31.7181 9.67694 32.5192 9.81161 32.7509 10.331C32.7509 10.331 33.4073 2.5973 30.164 2.32796C26.9208 2.05863 26.9208 4.72311 26.9208 4.72311H26.9111Z" fill="#292C3D"/>
<path d="M31.2451 2.78956C31.2451 2.78956 31.3126 1.51985 29.8648 0.73108C28.4072 -0.0576846 25.5211 -0.413591 23.2335 0.73108C20.9458 1.87575 20.2509 2.13547 19.5752 1.7507C18.9092 1.36594 19.3339 0.990796 19.3339 0.990796C19.3339 0.990796 17.8377 0.981176 17.9053 3.29938C17.9825 5.61758 20.8397 8.5033 24.5752 8.5033C30.2798 8.5033 32.1331 4.53062 31.2451 2.79918V2.78956Z" fill="#292C3D"/>
<path d="M30.5889 16.7563C30.3089 23.9129 25.8398 23.1723 25.8398 23.1723C25.8398 23.1723 21.3707 23.9129 21.0908 16.7563C21.0908 16.7563 13.9479 18.7283 10.4634 21.0465C10.4634 21.0465 11.9499 27.2989 12.0367 34.2342L16.1198 49.9999L25.8302 50.4809L35.5406 49.9999L39.6236 34.2342C39.7201 27.2989 41.197 21.0465 41.197 21.0465C37.7124 18.7186 30.5696 16.7563 30.5696 16.7563H30.5889Z" fill="#AFEAF0"/>
<path d="M38.9382 25.1829C34.498 27.5395 32.3359 32.9647 28.0308 35.6292C23.5714 38.3802 20.415 32.8204 18.2432 29.9347C16.3706 27.4433 13.9961 25.433 11.1003 24.269C11.5154 26.7411 11.998 30.3868 12.0559 34.2344L16.139 50.0001L25.8494 50.481L35.5598 50.0001L39.6428 34.2344C39.6911 30.4541 40.1544 26.8854 40.5695 24.4133C40.0096 24.6538 39.4498 24.9039 38.9382 25.1829Z" fill="#5AC4E0"/>
<path d="M43.8514 56.3774C43.8514 50.8465 36.9691 47.2104 36.9691 47.2104H13.8417C13.8417 47.2104 6.95947 50.8465 6.95947 56.3774C6.95947 57.272 7.17183 58.7726 7.51932 60.6483H15.2027C14.8938 61.2062 14.6043 61.7353 14.3823 62.1777C14.3147 62.3124 14.2375 62.4278 14.1699 62.5625H19.7587C20.1834 62.5625 20.9749 62.7357 20.8591 62.12C20.695 61.2447 20.1448 60.7445 20.6757 59.8211C21.1004 59.0996 22.2297 58.5033 23.0599 58.484C23.2433 58.484 23.4267 58.484 23.6004 58.484C24.807 58.5129 26.0135 58.5129 27.2201 58.484C27.7317 58.4744 28.0792 58.6283 28.5714 58.7053C28.9672 58.7726 29.4788 58.7726 29.7008 59.167C29.9614 59.6383 30.0097 60.379 30.1062 60.8984C30.1351 61.0619 30.029 62.5625 29.9807 62.5625H37.8185C37.278 61.8796 36.8436 61.2543 36.4768 60.6483H43.3108C43.6583 58.7822 43.8707 57.2816 43.8707 56.3774H43.8514Z" fill="#0254E4"/>
<g style="mix-blend-mode:multiply" opacity="0.65">
<path d="M43.8514 56.3774C43.8514 50.8465 36.9691 47.2104 36.9691 47.2104H13.8417C13.8417 47.2104 6.95947 50.8465 6.95947 56.3774C6.95947 57.272 7.17183 58.7726 7.51932 60.6483H15.2027C14.8938 61.2062 14.6043 61.7353 14.3823 62.1777C14.3147 62.3124 14.2375 62.4278 14.1699 62.5625H20.8591C21.0328 62.5625 20.5888 61.6006 20.5502 61.514C20.3861 61.1581 20.3379 60.7637 20.4344 60.3694C20.5309 59.9942 20.9073 59.5902 21.1969 59.3401C22.2877 58.4167 23.8128 58.3878 25.1738 58.4263C26.5058 58.4648 27.9633 58.282 29.1216 59.0612C29.3629 59.2247 29.5367 59.3497 29.7201 59.571C30.5212 60.5617 30.1062 61.4659 29.9807 62.5721H37.8185C37.278 61.8892 36.8436 61.2639 36.4768 60.6579H43.3108C43.6583 58.7918 43.8707 57.2912 43.8707 56.3871L43.8514 56.3774Z" fill="#00A1CC"/>
</g>
<path d="M10.4729 21.0466C10.4729 21.0466 1.63125 40.0732 2.27796 42.603C2.44206 43.2379 13.1853 49.7019 18.2432 48.7785L20.2992 48.4033C20.2992 48.4033 12.7895 20.912 10.4729 21.0563V21.0466Z" fill="#AFEAF0"/>
<path d="M41.1969 21.0466C41.1969 21.0466 50.0289 40.0732 49.3918 42.603C49.2277 43.2379 38.4845 49.7019 33.4266 48.7785L31.3706 48.4033C31.3706 48.4033 38.8803 20.912 41.1969 21.0563V21.0466Z" fill="#AFEAF0"/>
<path d="M13.9093 27.7029C13.8996 28.5782 13.7935 29.5017 13.5714 30.4828C12.7896 33.9168 11.5637 37.5047 12.8475 40.9965C13.8224 43.6417 15.3861 46.3158 16.834 48.8552C17.3359 48.8745 17.8089 48.8552 18.2336 48.7783L20.2896 48.4032C20.2896 48.4032 16.8436 35.8021 13.8996 27.7029H13.9093Z" fill="#5AC4E0"/>
<path d="M36.3706 48.6822C37.0173 47.0854 37.4131 45.4021 37.3455 43.6129C37.2297 40.1019 37.2104 36.591 37.2683 33.0704C37.2972 31.5506 37.3359 30.0788 37.4227 28.636C34.5559 36.7256 31.3706 48.3936 31.3706 48.3936L33.4266 48.7687C34.276 48.9226 35.2799 48.8649 36.3706 48.6725V48.6822Z" fill="#5AC4E0"/>
<path d="M17.027 89.3036C17.027 89.3036 11.4189 95.9504 10.7722 97.3644C10.1158 98.7784 11.7182 100.558 13.8996 99.8269C16.0811 99.1055 17.3552 97.6145 17.3938 96.6718C17.4324 95.7292 18.5907 95.229 19.1023 95.152C19.6139 95.0751 22.5193 91.7757 22.2297 90.8715C21.9402 89.9673 20.473 88.9766 20.473 88.9766L17.0174 89.3036H17.027Z" fill="#292C3D"/>
<path d="M33.7837 89.3036C33.7837 89.3036 39.3918 95.9504 40.0386 97.3644C40.6949 98.7784 39.0926 100.558 36.9111 99.8269C34.7297 99.1055 33.4555 97.6145 33.4169 96.6718C33.3783 95.7292 32.22 95.229 31.7084 95.152C31.1969 95.0751 28.2915 91.7757 28.581 90.8715C28.8706 89.9673 30.3378 88.9766 30.3378 88.9766L33.7934 89.3036H33.7837Z" fill="#292C3D"/>
<path d="M5.40538 61.5911H3.58105V100H5.40538V61.5911Z" fill="#AFEAF0"/>
<path d="M47.6158 61.5911H45.7915V100H47.6158V61.5911Z" fill="#AFEAF0"/>
<path d="M50 58.4937H0V63.4186H50V58.4937Z" fill="#292C3D"/>
<path d="M18.9864 56.0888C18.3204 54.5113 18.1853 51.1638 13.6872 51.1638C5.02889 51.1638 7.05592 58.0799 7.19106 59.1092C8.5038 69.4016 14.7779 89.9383 14.7779 89.9383H23.4459C23.4459 89.9383 20.2895 64.7748 19.8069 60.8983C19.7393 60.3693 19.4401 57.1854 18.9768 56.0984L18.9864 56.0888Z" fill="#0254E4"/>
<path d="M31.834 56.0888C32.5 54.5113 32.6351 51.1638 37.1332 51.1638C45.7915 51.1638 43.7645 58.0799 43.6293 59.1092C42.3166 69.4016 36.0425 89.9383 36.0425 89.9383H27.3745C27.3745 89.9383 30.5309 64.7748 31.0135 60.8983C31.0811 60.3693 31.3803 57.1854 31.8436 56.0984L31.834 56.0888Z" fill="#0254E4"/>
<path d="M38.5713 48.615H13.1177V50.1156H38.5713V48.615Z" fill="#292C3D"/>
<path d="M42.3166 31.0312H9.37262C9.37262 31.0312 7.59656 31.0313 7.89579 33.0128C8.20467 34.9943 12.3552 48.8169 13.195 48.8169H38.4942C39.2278 48.8169 43.4846 34.9847 43.7935 33.0128C44.1023 31.0313 42.3166 31.0312 42.3166 31.0312Z" fill="#292C3D"/>
<path d="M27.2105 40.6021C27.2105 41.3524 26.6024 41.9584 25.8495 41.9584C25.0966 41.9584 24.4885 41.3524 24.4885 40.6021C24.4885 39.8519 25.0966 39.2458 25.8495 39.2458C26.6024 39.2458 27.2105 39.8519 27.2105 40.6021Z" fill="white"/>
</g>
<defs>
<clipPath id="clip0_22_12160">
<rect width="50" height="100" fill="white"/>
</clipPath>
</defs>
</svg>
