<svg width="22" height="20" viewBox="0 0 22 20" fill="none" xmlns="http://www.w3.org/2000/svg">
<path fill-rule="evenodd" clip-rule="evenodd" d="M11.25 0C11.8023 0 12.25 0.447715 12.25 1C12.25 1.51284 11.864 1.93551 11.3666 1.99327L11.25 2H3.25C2.73716 2 2.31449 2.38604 2.25673 2.88338L2.25 3V17C2.25 17.5128 2.63604 17.9355 3.13338 17.9933L3.25 18H11.25C11.8023 18 12.25 18.4477 12.25 19C12.25 19.5128 11.864 19.9355 11.3666 19.9933L11.25 20H3.25C1.65232 20 0.346339 18.7511 0.255093 17.1763L0.25 17V3C0.25 1.40232 1.49892 0.096339 3.07373 0.00509262L3.25 0H11.25ZM16.8629 5.2097L16.9571 5.29289L20.9571 9.29289C20.9726 9.30842 20.9877 9.32446 21.0021 9.34098L20.9571 9.29289C20.9786 9.31438 20.9989 9.3366 21.018 9.35947C21.0267 9.36988 21.0351 9.38039 21.0433 9.39108C21.0497 9.39926 21.0557 9.4074 21.0617 9.4156C21.0678 9.42426 21.0741 9.43327 21.0802 9.44238C21.0868 9.45201 21.093 9.46152 21.099 9.47111C21.1043 9.47989 21.1097 9.48884 21.115 9.49788C21.1204 9.50706 21.1255 9.51621 21.1305 9.52543C21.1704 9.59945 21.2014 9.67919 21.2218 9.76308C21.224 9.7727 21.2262 9.78221 21.2282 9.79174C21.2311 9.80499 21.2337 9.81851 21.236 9.83212C21.2368 9.8377 21.2377 9.84308 21.2385 9.84846C21.241 9.86395 21.243 9.87981 21.2446 9.89579C21.2455 9.90464 21.2463 9.91326 21.247 9.92188C21.2477 9.93128 21.2483 9.94092 21.2488 9.9506C21.2495 9.96482 21.2499 9.97894 21.25 9.99306C21.25 9.99545 21.25 9.99772 21.25 10L21.2499 10.0152C21.2497 10.0281 21.2492 10.041 21.2486 10.0539L21.25 10C21.25 10.0276 21.2489 10.055 21.2467 10.0821C21.2455 10.0955 21.2442 10.1089 21.2425 10.1223C21.2414 10.1318 21.2401 10.1415 21.2386 10.1512C21.2371 10.1607 21.2355 10.1703 21.2338 10.1798C21.2224 10.2428 21.2052 10.3035 21.1826 10.3616C21.1772 10.3755 21.1715 10.3894 21.1654 10.4032C21.1625 10.4098 21.1595 10.4163 21.1565 10.4227C21.1425 10.453 21.1267 10.4828 21.1093 10.512C21.1028 10.5226 21.0963 10.5331 21.0895 10.5435C21.0849 10.5509 21.0799 10.5583 21.0749 10.5656C21.0691 10.5739 21.0633 10.5821 21.0573 10.5902C21.0519 10.5977 21.0462 10.6053 21.0403 10.6129L21.0361 10.6182C21.012 10.6488 20.9861 10.678 20.9587 10.7055L20.9571 10.7071L16.9571 14.7071C16.5666 15.0976 15.9334 15.0976 15.5429 14.7071C15.1824 14.3466 15.1547 13.7794 15.4597 13.3871L15.5429 13.2929L17.8349 10.9999L6.25 11C5.69772 11 5.25 10.5523 5.25 10C5.25 9.48716 5.63604 9.06449 6.13338 9.00673L6.25 9L17.8349 8.99962L15.5429 6.70711C15.1824 6.34662 15.1547 5.77939 15.4597 5.3871L15.5429 5.29289C15.9034 4.93241 16.4706 4.90468 16.8629 5.2097Z" fill="#F66161"/>
</svg>
