<svg width="22" height="22" viewBox="0 0 22 22" fill="none" xmlns="http://www.w3.org/2000/svg">
<path fill-rule="evenodd" clip-rule="evenodd" d="M12.73 19C13.5007 19 13.9817 19.8351 13.595 20.5018C13.0583 21.427 12.0696 21.9965 11 21.9965C9.9304 21.9965 8.9417 21.427 8.405 20.5018C8.03762 19.8684 8.45336 19.0831 9.15664 19.0061L9.27 19H12.73ZM11 0C15.3349 0 18.8645 3.44784 18.9962 7.75082L19 8V13C19 14.0544 19.8159 14.9182 20.8507 14.9945L21.1332 15.007C22.2445 15.1262 22.2872 16.7377 21.2614 16.9717L21.1332 16.993L21 17H1L0.866825 16.993C-0.288942 16.869 -0.288942 15.131 0.866825 15.007L1.14926 14.9945C2.13238 14.922 2.91786 14.1388 2.99396 13.1567L3 13V8C3 3.58172 6.58172 0 11 0ZM11 2C7.7616 2 5.12243 4.56557 5.00414 7.77506L5 8V13C5 13.5858 4.87409 14.1421 4.64787 14.6435L4.54484 14.8549L4.463 15H17.536L17.4552 14.8549C17.2309 14.4272 17.0818 13.9539 17.0253 13.4526L17.0049 13.1996L17 13V8C17 4.68629 14.3137 2 11 2Z" fill="#FFB846"/>
</svg>
