<svg width="79" height="90" viewBox="0 0 79 90" fill="none" xmlns="http://www.w3.org/2000/svg">
<path d="M11.9522 81.9232C12.2607 82.4348 12.5269 82.9702 12.7481 83.5242C12.8357 84.0002 13.4782 86.6468 14.1207 87.4617C14.5427 88.0514 15.1075 88.5274 15.7635 88.8463C16.2075 89.0424 16.6967 89.1171 17.1799 89.0627C18.538 88.9184 19.3265 88.6372 19.3338 87.6204C19.3338 87.5555 19.3338 87.4906 19.3338 87.4257C19.1908 86.2474 18.7923 85.1135 18.1656 84.1011C17.8024 83.3659 17.5444 82.5844 17.399 81.779C17.3623 80.9475 17.2573 80.1202 17.085 79.3055C16.7941 78.7921 16.4517 78.3089 16.0628 77.8631C15.8876 77.6829 13.0401 78.2526 13.0401 78.2526C13.0401 78.2526 12.0033 78.4401 11.8719 78.9088C11.8167 79.5724 11.8363 80.2399 11.9303 80.8992C11.9118 81.2406 11.9191 81.5829 11.9522 81.9232Z" fill="#A30F00"/>
<path d="M15.7414 88.8608C15.6842 88.8391 15.6302 88.81 15.5808 88.7742C15.0028 88.4474 14.5043 87.9994 14.1206 87.4617C13.5073 86.6468 12.8355 84.0002 12.7479 83.5242C12.5267 82.9703 12.2606 82.4349 11.9521 81.9233C11.9281 81.5944 11.9281 81.2642 11.9521 80.9353C11.9521 80.9353 11.9521 80.9858 11.9521 81.0074C12.2607 81.5179 12.5245 82.0535 12.7406 82.6084C12.8355 83.0843 13.6971 86.6396 14.3104 87.4473C14.7321 88.0383 15.3002 88.5126 15.9605 88.8247C15.9605 88.8247 16.0992 88.8824 16.1357 88.8968L16.3401 88.9617C16.4789 88.9993 16.6205 89.0258 16.7636 89.0411C17.0484 89.0411 17.2382 89.0771 17.3039 88.7598C17.3308 88.5812 17.4246 88.4191 17.5668 88.3055C17.6494 88.2502 17.7406 88.2088 17.8369 88.1829L18.421 88.0026C18.5062 87.974 18.5986 87.974 18.6839 88.0026C18.8226 88.0747 18.8591 88.2983 19.0124 88.3127C19.0702 88.3078 19.1256 88.2879 19.173 88.255C19.173 88.3632 19.0489 88.4281 18.9905 88.5074C18.8797 88.6523 18.7269 88.7605 18.5524 88.8175C18.3553 88.8968 18.1509 88.9689 17.9464 89.0339C17.6811 89.1138 17.406 89.1575 17.1287 89.1637C16.9855 89.1781 16.8411 89.1781 16.6979 89.1637C16.3741 89.0788 16.0548 88.9777 15.7414 88.8608Z" fill="#FFF45B"/>
<path d="M12.3319 80.0842C12.3319 80.0842 12.6239 80.5818 12.8356 80.5458C13.0474 80.5097 13.1569 80.4448 13.2664 80.6251C13.3759 80.8054 13.7775 81.9304 13.814 82.0674C13.8509 82.2386 13.8509 82.4155 13.814 82.5866C13.5651 82.347 13.3469 82.0782 13.1642 81.7862C13.1642 81.6852 12.8502 80.8342 12.8502 80.8342C12.8502 80.8342 12.2807 80.9496 12.3319 80.0842Z" fill="#CC2B1C"/>
<path d="M14.3252 84.6852C14.2988 85.4903 14.537 86.2822 15.0042 86.9424C15.7344 87.8799 16.8515 88.3342 17.107 88.226C17.5111 87.9964 17.928 87.7894 18.3555 87.6059C18.5016 87.6059 19.0199 87.6059 19.0345 87.4761C19.0186 86.6859 18.8449 85.9065 18.5235 85.1828C18.2992 84.6461 18.0151 84.1357 17.6765 83.6611C17.6765 83.6611 17.6035 85.7597 14.3252 84.6852Z" fill="#CC2B1C"/>
<path d="M12.6096 78.4977C12.4385 78.8303 12.3533 79.1994 12.3614 79.5723C12.4636 79.9184 12.5147 80.1564 12.6461 80.2429C12.7775 80.3295 12.7848 80.178 13.0769 80.2429C13.2767 80.3109 13.4418 80.4532 13.5369 80.6396C13.5369 80.6396 16.6983 79.7958 16.5815 79.666C16.4647 79.5362 16.5815 78.6708 15.9317 78.4256C14.8403 78.134 13.687 78.159 12.6096 78.4977Z" fill="#3D403B"/>
<path d="M23.7364 74.0339C24.3373 74.683 25.089 75.178 25.9268 75.4762C27.022 75.8728 27.8178 76.1613 28.38 76.9185C28.9422 77.6757 29.2269 78.3608 30.3732 78.981C31.3134 79.383 32.3562 79.4887 33.3595 79.2839C33.7829 79.2262 34.4181 78.332 34.4255 78.2238C34.3879 77.775 34.2972 77.3321 34.1553 76.9041C34.0857 76.6983 33.99 76.502 33.8705 76.3199C33.0454 75.3869 32.1336 74.5323 31.1472 73.7671C30.95 73.6517 29.6869 72.505 29.519 72.4185C29.3511 72.332 29.0079 71.618 28.84 71.4449C28.5445 71.2391 28.2289 71.0627 27.8981 70.9185C27.8981 70.9185 25.642 70.1036 24.2475 71.4305C24.2475 71.4305 23.7656 71.5387 23.7656 71.9425C23.7609 72.2946 23.7365 72.6461 23.6926 72.9954C23.6926 73.1829 23.6926 73.3127 23.6926 73.3127C23.6454 73.4286 23.6248 73.5535 23.6324 73.6782C23.64 73.8029 23.6755 73.9244 23.7364 74.0339Z" fill="#A30F00"/>
<path d="M24.3643 71.755C24.4814 72.215 24.7357 72.6296 25.0944 72.9449C25.6785 73.4209 26.5546 73.1973 26.7664 73.3199C26.9781 73.4425 27.2848 73.6012 27.2848 73.6012C27.7191 73.3507 28.134 73.0687 28.526 72.7574C28.6501 72.5771 28.3727 71.6829 28.3727 71.6829L26.5254 71.4521L24.3643 71.755Z" fill="#3D403B"/>
<path d="M23.7364 74.0338C24.3373 74.6829 25.0891 75.1779 25.9268 75.4761C27.022 75.8728 27.8178 76.1612 28.38 76.9184C28.9422 77.6757 29.227 78.3607 30.3733 78.9809C31.3134 79.3829 32.3562 79.4887 33.3595 79.2838C33.783 79.2261 34.4182 78.3319 34.4255 78.2237C34.3879 77.7749 34.2972 77.332 34.1553 76.904V78.1372C34.0084 78.1196 33.8595 78.142 33.7246 78.2021C33.5931 78.2814 33.2208 78.9232 33.0601 78.9665C32.2593 79.1134 31.4318 78.9916 30.7091 78.6204C29.969 78.0736 29.3167 77.4196 28.7743 76.6805C28.208 75.9366 27.4522 75.3543 26.5839 74.993C25.3938 74.5242 24.1161 73.9184 23.6634 72.9954C23.6634 73.1829 23.6634 73.3127 23.6634 73.3127C23.6206 73.4307 23.6049 73.5566 23.6175 73.6814C23.6302 73.8061 23.6708 73.9265 23.7364 74.0338Z" fill="#FFF45B"/>
<path d="M27.2266 74.106C27.2266 74.106 27.6939 74.5964 28.1611 75.0146C28.6766 75.5497 29.164 76.1106 29.6214 76.6949C29.8185 76.9113 30.0449 77.0771 30.2347 77.3079C30.4345 77.558 30.6827 77.7664 30.9648 77.9209C31.295 78.0676 31.6481 78.1578 32.0089 78.1877C32.2259 78.2236 32.4461 78.2381 32.666 78.231C32.9524 78.2069 33.2244 78.0964 33.4451 77.9145C33.6659 77.7327 33.8246 77.4881 33.8999 77.2142C34.1044 76.1901 32.7463 75.3103 32.1184 74.719C31.6803 74.3151 31.2204 73.9257 30.7458 73.5579C30.2712 73.1901 30.0157 72.8367 29.4535 72.642C29.0244 72.5916 28.5918 72.7023 28.2415 72.9521C28.0151 73.0675 26.7885 73.7382 27.2266 74.106Z" fill="#CC2B1C"/>
<path d="M24.5325 72.7789C24.8029 73.0026 25.1121 73.1761 25.4451 73.291C25.69 73.2785 25.9355 73.2979 26.1753 73.3486C26.4036 73.407 26.6158 73.5155 26.7959 73.6659C26.7231 73.7635 26.6399 73.8529 26.5476 73.9328C26.2868 73.8103 26.0086 73.7276 25.7226 73.6876C25.3414 73.6823 24.9638 73.614 24.6055 73.4857C24.5471 73.4063 23.7366 72.476 24.5325 72.7789Z" fill="#CC2B1C"/>
<path d="M21.3785 55.1539C21.5537 56.5457 23.1527 61.7669 23.2038 64.2837C23.369 66.3809 23.7581 68.4549 24.3647 70.4712C24.3647 70.7525 24.4304 71.0337 24.4669 71.315C24.5034 71.5962 24.5326 71.7332 24.5691 71.9352C24.5732 72.1428 24.6567 72.3412 24.8028 72.4905C25.144 72.7469 25.5338 72.9332 25.9491 73.0385C26.1535 73.1034 26.3726 73.2116 26.577 73.2549C26.6498 73.2624 26.7232 73.2624 26.796 73.2549C26.9129 73.2549 27.0224 73.2909 27.1392 73.2982C27.2729 73.3046 27.4061 73.2773 27.5262 73.2188C27.5987 73.1819 27.6615 73.1288 27.7097 73.0637C27.7579 72.9986 27.79 72.9233 27.8036 72.8438C27.8362 72.4939 27.7784 72.1416 27.6357 71.8198C27.6335 71.7886 27.6335 71.7572 27.6357 71.726C27.6131 71.6676 27.596 71.6073 27.5846 71.5457C27.5116 71.1347 28.1614 67.4929 28.3804 65.4448C28.5994 63.3967 28.6214 60.8871 28.6579 60.5337C28.6944 60.1804 28.7747 56.6828 28.7747 56.6828C28.4679 55.1593 27.9777 53.6777 27.3144 52.2693C27.1175 51.8527 26.819 51.4909 26.4456 51.2164C25.0291 50.3582 21.5683 54.2813 21.4004 54.8799C21.379 54.9696 21.3716 55.062 21.3785 55.1539Z" fill="#F4AE8B"/>
<path d="M11.8355 73.2406C12.8284 77.6396 12.8868 77.8271 12.8138 78.1588C12.6747 78.5148 12.6418 78.9027 12.7189 79.2766C12.843 79.8175 13.449 80.993 14.442 80.5458C14.7133 80.4171 14.9766 80.2726 15.2306 80.1131C15.5191 79.9331 15.7925 79.7306 16.0483 79.5074C15.8931 78.8773 15.7905 78.2357 15.7416 77.5891C15.9823 75.7802 16.3162 73.9846 16.7419 72.2093C17.0778 70.6083 17.3917 68.3511 17.7714 66.9088C18.1511 65.4665 19.3996 63.1444 19.4726 62.3656C19.417 61.1053 19.2951 59.8488 19.1075 58.6011C18.9469 57.368 18.8009 56.3079 18.8009 56.3079L12.6313 57.8295C12.6313 57.8295 12.6313 63.9809 12.3539 64.5651C11.3669 67.3529 11.1874 70.3574 11.8355 73.2406Z" fill="#FCD1B9"/>
<g style="mix-blend-mode:multiply">
<path d="M21.3784 55.154C21.5536 56.5458 23.1526 61.767 23.2037 64.2838C23.3689 66.3809 23.758 68.4549 24.3646 70.4713C24.4303 71.1202 24.5302 71.7653 24.664 72.404L24.9341 72.1011C25.0675 71.6639 25.1316 71.209 25.124 70.7525C25.124 70.529 26.168 69.3823 26.4747 69.4112C26.7814 69.44 26.9055 69.5338 27.0004 70.8535C27.0588 71.6251 27.3582 71.7261 27.6064 71.6684C27.5838 71.61 27.5667 71.5496 27.5553 71.4881C27.4823 71.0771 28.1321 67.4352 28.3511 65.3871C28.5702 63.3391 28.5921 60.8295 28.6286 60.4761C28.6651 60.1227 28.7454 56.6251 28.7454 56.6251C28.4386 55.1017 27.9484 53.62 27.2851 52.2117C25.5912 51.5482 23.0796 52.4929 21.3784 55.154Z" fill="#FDD3C7"/>
</g>
<g style="mix-blend-mode:multiply">
<path d="M14.8727 66.9303C14.2914 66.5855 13.6835 66.2865 13.0547 66.0361C13.0547 66.0361 13.9016 67.4063 14.8143 67.6082C15.727 67.8101 15.0333 70.3197 14.8581 71.7548C14.7486 72.6563 14.7413 73.5865 14.6464 74.4952C14.61 75.1854 14.6541 75.8774 14.7778 76.5577C14.8654 77.2284 14.9749 77.899 15.0406 78.5769C15.0406 78.7788 15.3765 80.0192 15.2013 80.113C15.4898 79.933 15.7632 79.7304 16.019 79.5072C15.8638 78.8772 15.7613 78.2356 15.7123 77.5889C15.953 75.7801 16.2869 73.9845 16.7126 72.2091C17.0485 70.6082 17.3624 68.351 17.7421 66.9087C18.1218 65.4663 19.3703 63.1442 19.4433 62.3654C19.3877 61.1052 19.2658 59.8487 19.0782 58.601C18.7059 58.1971 18.4503 57.9375 18.4503 57.9375L13.2445 60.0577C13.2445 60.0577 12.7919 63.0793 14.4784 64.1538C16.165 65.2284 17.399 64.9471 17.3186 65.387C17.1119 65.8761 16.8419 66.3366 16.5155 66.7572C16.4936 66.9159 16.333 67.7308 14.8727 66.9303Z" fill="#FDD3C7"/>
</g>
<path d="M14.5659 69.952C14.5659 70.5145 14.5002 71.077 14.4345 71.6467C14.0511 73.8663 14.0511 76.1339 14.4345 78.3535C14.5075 78.6419 14.5659 79.0169 14.3177 79.19C14.2177 79.2494 14.1002 79.2731 13.9846 79.2574C13.8691 79.2416 13.7625 79.1873 13.6825 79.1035C13.5267 78.9296 13.4142 78.7221 13.3539 78.4977C12.8126 76.9375 12.4263 75.329 12.2003 73.6948C12.0567 71.9943 12.0298 70.286 12.12 68.5819C12.0808 68.056 12.1632 67.5283 12.3609 67.0386C12.3831 66.9754 12.4186 66.9176 12.4652 66.8691C12.5118 66.8206 12.5684 66.7825 12.6311 66.7573C12.8939 66.6924 13.405 67.2333 13.6314 67.3775C13.9699 67.5506 14.2436 67.826 14.4126 68.1636C14.4975 68.4195 14.5395 68.6875 14.5367 68.9568C14.5659 69.2982 14.5757 69.6299 14.5659 69.952Z" fill="#FCDCCB"/>
<path d="M11.0104 50.8704C10.8717 53.1853 11.3025 60.9233 11.3025 60.9233L11.8501 62.3656C12.447 62.7946 13.0973 63.146 13.7849 63.4112C14.4201 63.5483 16.8806 63.6997 17.494 63.7574C18.1073 63.8151 20.6116 62.4305 20.8233 62.1853C21.0351 61.9401 22.1595 59.6973 22.7874 58.4641C23.021 57.9954 23.1817 57.6853 23.1817 57.6853C23.3112 57.8426 23.4215 58.0144 23.5102 58.1973C23.6489 58.4713 24.9705 58.9978 26.4307 59.3439C27.891 59.6901 29.855 58.767 30.1763 58.6228C30.871 57.7834 31.3584 56.7958 31.6 55.7382C31.7387 54.8151 32.0308 51.0002 31.8044 49.9689C31.5548 47.9276 31.4256 45.8737 31.4175 43.8175C31.4175 43.8175 13.4491 42.606 12.8577 43.6588C12.7236 43.9165 12.6041 44.1813 12.4999 44.4521C11.7432 46.5244 11.2431 48.6795 11.0104 50.8704Z" fill="#380000"/>
<path d="M25.8907 52.0459C25.8907 52.0459 25.4818 54.8368 25.7373 55.8824C25.9929 56.9281 25.9856 58.1541 26.0878 58.457C26.19 58.7598 26.8179 58.8536 27.0005 58.8897C27.183 58.9257 29.1908 58.3488 29.388 57.8296C29.5851 57.3103 29.1908 55.9329 29.3369 55.356C29.4829 54.7791 30.2495 53.3728 29.8553 52.8824C29.461 52.3921 29.1689 52.0964 29.1689 52.0964C28.0888 52.3479 26.9623 52.3305 25.8907 52.0459Z" fill="#632E20"/>
<path d="M13.0766 64.2478C13.1193 64.0679 13.1438 63.8843 13.1496 63.6997C13.1431 63.6233 13.1557 63.5466 13.1861 63.4761C13.3687 63.13 13.6899 63.7502 13.7848 63.8728C13.962 64.0982 14.171 64.2973 14.4055 64.4641C14.7967 64.7717 15.2355 65.0152 15.7051 65.1853C16.0628 65.2934 16.9682 65.0771 16.8222 65.6757C16.7346 66.0579 16.4352 66.6132 16.0263 66.7069C15.6647 66.7348 15.3011 66.6856 14.9604 66.5627C14.3179 66.436 13.7119 66.17 13.1861 65.7838C12.7116 65.4088 12.916 64.8463 13.0547 64.3415L13.0766 64.2478Z" fill="#FCDCCB"/>
<path d="M11.0104 50.8703C10.8717 53.1852 11.3025 60.9232 11.3025 60.9232L11.8501 62.3655C12.447 62.7945 13.0973 63.146 13.7849 63.4112C14.4201 63.5482 16.8806 63.6997 17.494 63.7574C18.1073 63.8151 20.6116 62.4304 20.8233 62.1852C21.0351 61.9401 22.1595 59.6973 22.7874 58.4641C22.8396 58.1616 22.9761 57.8794 23.1816 57.6492C23.8122 56.9599 24.2721 56.1353 24.5251 55.2405C24.6565 54.7574 24.7295 54.2526 24.9047 53.7982C25.151 53.334 25.3609 52.8518 25.5327 52.3559C25.6158 51.8787 25.6158 51.3909 25.5327 50.9136C25.5048 50.4443 25.3805 49.9855 25.1676 49.5651C24.7354 48.9451 24.1057 48.4857 23.3788 48.2598L16.0775 45.3103C15.4513 45.0409 14.8043 44.8215 14.1427 44.654C13.5944 44.5349 13.038 44.4554 12.478 44.416C11.7259 46.5008 11.2331 48.6681 11.0104 50.8703Z" fill="#632E20"/>
<path d="M24.671 18.3822C24.671 18.3822 24.4811 17.4015 24.6199 17.1851C24.7093 16.8464 24.7316 16.4938 24.6856 16.1467L24.5396 14.7043L26.6934 14.4231L26.5547 15.714L26.4452 16.7741C26.3216 17.1741 26.0919 17.5342 25.78 17.817C25.468 18.0997 25.0851 18.2949 24.671 18.3822Z" fill="#FCD1B9"/>
<path d="M9.84961 17.9712L11.1419 26.9639C11.1419 26.9639 12.1641 33.5769 12.7409 35.8269C13.3177 38.0769 13.8069 41.1851 13.8069 41.1851C13.8069 41.1851 12.792 44.7115 13.033 45.3029C13.6354 46.4555 14.485 47.4646 15.5227 48.2596C16.9789 49.3345 18.6832 50.0345 20.4817 50.2964C22.2802 50.5582 24.1165 50.3738 25.8248 49.7596L26.1607 49.6298C30.6582 47.8053 31.2715 44.8774 31.2715 44.8774C31.2715 44.8774 30.8335 41.7115 30.6947 40.1755C30.6087 38.0597 30.6478 35.9407 30.8116 33.8293C30.9025 32.8781 31.0562 31.9338 31.2715 31.0024C31.4098 30.3057 31.4904 29.599 31.5125 28.8894C31.5051 28.2081 31.5343 27.5268 31.6001 26.8486C31.7899 25.8245 32.155 24.887 32.3302 23.8846C32.3302 23.7187 32.374 23.5457 32.3886 23.3798C32.52 21.9375 33.0092 20.4952 33.0311 19.0529C33.0505 18.8129 33.0505 18.5717 33.0311 18.3317C33.0344 18.2837 33.0344 18.2355 33.0311 18.1875C32.9729 17.746 32.8343 17.3184 32.6223 16.9255C32.2473 16.1674 31.6625 15.5298 30.9357 15.0865C30.6655 15.0144 27.6793 14.4519 27.6793 14.4519L25.0947 14.0841L20.0203 13.4062C19.5175 13.5809 19.0538 13.8503 18.6549 14.1995C17.6474 14.9207 17.4137 14.7909 15.7855 15.4976C14.1574 16.2043 12.332 16.9399 11.8429 17.1923C11.3537 17.4447 9.84961 17.9712 9.84961 17.9712Z" fill="#EDB216"/>
<path d="M26.0072 21.2454C25.8953 21.4028 25.8068 21.5752 25.7444 21.7574C25.6921 22.0807 25.7171 22.4117 25.8174 22.7237C26.4234 25.4713 25.978 28.3415 26.365 31.118C26.5695 32.5603 29.3293 30.8439 29.9061 30.3968C30.1498 30.2475 30.3449 30.0323 30.4683 29.7766C30.5589 29.3076 30.4704 28.8221 30.2201 28.4136C29.2713 26.0573 29.2922 23.428 30.2785 21.0867C30.4975 20.5458 31.1912 19.6444 30.2785 19.3992C29.5608 19.189 28.8288 19.03 28.0881 18.9232C26.679 18.8079 26.606 20.3151 26.0072 21.2454Z" fill="#FAC943"/>
<path d="M13.9748 21.5771C13.8491 20.995 13.6932 20.4197 13.5075 19.8535C13.2265 19.3147 12.9145 18.7922 12.573 18.2886C12.1933 17.4881 12.7117 17.4232 13.3031 17.0194C14.0244 16.59 14.797 16.2509 15.603 16.0098C16.1652 15.8078 17.0632 15.3535 17.6692 15.6997C18.0051 15.9088 18.2241 16.5434 18.3994 16.8607C19.0971 18.0672 20.1735 19.0165 21.4659 19.565C22.1338 19.8972 22.872 20.0678 23.6198 20.0626C24.4302 20.0049 25.2772 19.6155 26.0949 19.4785C25.4264 20.0561 24.7136 20.5817 23.9629 21.0506C23.4737 21.3174 22.9115 21.7718 23.1525 22.4497C23.3204 22.8751 23.8242 23.041 24.2185 23.2862C24.696 23.655 25.0705 24.1379 25.3068 24.6892C25.5431 25.2406 25.6334 25.8423 25.5692 26.4376C25.5692 27.6348 25.2041 28.8102 25.2188 30.0434C25.2188 31.017 25.4232 32.1348 24.7442 32.8487C24.3341 33.207 23.8262 33.4377 23.2839 33.5122C22.5522 33.7106 21.7925 33.7885 21.0351 33.7429C20.3311 33.6554 19.6622 33.3887 19.0939 32.969C18.5256 32.5493 18.0775 31.9909 17.7934 31.3487C17.7168 31.1138 17.5869 30.8992 17.4137 30.7213C17.1815 30.5794 16.9128 30.5067 16.6398 30.5122C16.2003 30.4991 15.7711 30.3776 15.3912 30.1588C15.204 30.0485 15.0533 29.8869 14.9573 29.6936C14.8614 29.5003 14.8244 29.2836 14.8509 29.0698C14.9597 28.7509 15.1281 28.4549 15.3474 28.1973C15.4538 28.0657 15.5159 27.9047 15.5251 27.7366C15.5342 27.5685 15.49 27.4018 15.3985 27.2598C15.2669 27.1477 15.1161 27.0598 14.9532 27.0001C14.223 26.654 14.2668 26.0338 14.2887 25.3415C14.3119 24.481 14.2655 23.6201 14.15 22.767C14.1427 22.3703 14.0551 21.9737 13.9748 21.5771Z" fill="#FAC943"/>
<path d="M25.0362 22.774C24.9862 22.759 24.9336 22.7547 24.8818 22.7614C24.83 22.7681 24.7803 22.7858 24.736 22.8131C24.6917 22.8405 24.6539 22.8769 24.625 22.9199C24.5962 22.9629 24.5771 23.0116 24.5689 23.0625C24.4667 23.4591 24.7368 24.3245 25.0362 24.375C25.3355 24.4255 25.4012 24.4543 25.3939 24.5192C25.3866 24.5841 25.4889 25.6731 25.5108 25.6731C25.5327 25.6731 26.2409 25.3197 26.2409 25.3197L25.0362 22.774Z" fill="#D18400"/>
<path d="M14.5513 36.2959C14.7447 37.7607 15.0572 39.2076 15.4859 40.6228C16.0189 42.0651 16.3402 42.7863 16.3402 42.7863L14.7047 41.9209C14.5732 41.8981 14.438 41.9072 14.3108 41.9474C14.1837 41.9876 14.0683 42.0577 13.9746 42.1517C13.7263 42.4473 14.4929 43.594 14.7047 44.0267C14.9164 44.4593 13.1203 43.8824 13.1203 43.8824C13.1203 43.8824 12.2295 44.6973 12.6895 45.0868C13.2213 45.6507 13.7095 46.2534 14.1498 46.8896C14.1498 46.8896 15.5297 47.7262 15.8948 47.3944C16.2598 47.0627 16.1649 46.8175 16.6979 46.8968C17.2309 46.9762 17.7566 46.767 17.596 46.4569C17.4353 46.1468 17.6398 46.017 17.6398 46.017C17.7229 45.9173 17.7737 45.7952 17.7854 45.6665C17.7971 45.5378 17.7693 45.4087 17.7055 45.2959C17.1805 44.7329 16.5954 44.2276 15.9605 43.7887C15.9605 43.7887 16.8439 43.8824 16.8805 43.3776C16.917 42.8728 15.9605 41.1709 15.7853 40.3488C15.61 39.5267 14.5513 36.2959 14.5513 36.2959Z" fill="#DB8D0D"/>
<path d="M26.7301 14.0194C26.7301 14.0194 26.5403 16.1829 26.4673 16.7742C26.3943 17.3656 24.5324 19.1035 23.1963 18.8007C21.6069 18.2871 20.272 17.2003 19.458 15.7574C19.2242 14.8678 19.2067 13.9362 19.4069 13.0386C19.4069 12.8367 18.8301 11.2285 18.8301 11.2285C18.8301 11.2285 16.5667 6.98095 19.1879 7.4497C21.8091 7.91845 22.9262 7.33432 24.2331 9.18047C25.2205 10.7107 26.0567 12.3311 26.7301 14.0194Z" fill="#FCC09E"/>
<path d="M15.5616 44.7865C15.3418 44.6563 15.1195 44.5304 14.8947 44.4088C15.1146 44.5389 15.3369 44.6648 15.5616 44.7865Z" fill="#FCD1B9"/>
<g style="mix-blend-mode:multiply">
<path d="M4.44663 31.4063C4.87124 32.3994 5.4024 33.3447 6.031 34.226C7.36713 36.2813 8.95152 39.3678 9.26547 39.6347C9.57942 39.9015 10.6819 41.077 11.5654 40.7308C11.4581 40.7147 11.3543 40.6806 11.2587 40.6299C11.0908 40.5433 10.4629 40.0674 8.75437 37.6803C7.45553 35.6746 6.34128 33.558 5.425 31.3558L7.29412 29.7621L6.49828 29.3005C6.49828 29.3005 5.60023 30.6635 4.92852 30.815C4.2568 30.9664 4.44663 31.4063 4.44663 31.4063Z" fill="#FDD3C7"/>
</g>
<path d="M13.6536 28.1324C13.6536 28.1324 12.3321 28.7022 12.668 29.1637C12.8779 29.4448 13.1676 29.6581 13.5003 29.7767L12.9527 30.8223L12.2226 33.4978L11.2661 27.9161C11.8652 27.4091 12.505 26.9508 13.179 26.5459C14.5079 26.1997 13.6536 28.1324 13.6536 28.1324Z" fill="#DB8D0D"/>
<g style="mix-blend-mode:multiply">
<path d="M25.3941 16.94C25.6617 17.3236 26.0208 17.6361 26.4398 17.85C26.8588 18.0638 27.3247 18.1723 27.7962 18.166C28.9988 18.2138 30.1978 18.3245 31.3885 18.4977C31.8119 18.6131 31.2498 17.9496 31.812 18.6131C32.3742 19.2765 31.7535 20.3366 31.8558 20.9063C32.0088 21.4769 32.209 22.0341 32.4545 22.5722C32.4545 22.5722 32.4034 20.0337 32.7246 19.6876C32.9027 19.5152 33.0182 19.2896 33.0532 19.0458C33.0532 19.0458 33.1554 18.9664 33.0532 18.3246C32.9435 17.8354 32.8021 17.3536 32.6297 16.8823C32.246 16.1392 31.6592 15.5171 30.9358 15.0866C30.6657 15.0145 27.6794 14.452 27.6794 14.452L25.0948 14.0842C24.5399 14.6035 24.4888 15.4905 25.3941 16.94Z" fill="#E68F5A"/>
</g>
<path d="M25.3648 22.8895C25.2438 22.8885 25.1235 22.8715 25.007 22.839C23.3643 22.3847 20.0276 19.2332 19.5603 18.101L19.3559 17.6251C18.8667 16.5073 18.3994 15.4616 19.0492 13.9255L19.2171 13.9977C18.6038 15.44 19.0273 16.4207 19.5238 17.5529C19.5895 17.7116 19.6625 17.8702 19.7282 18.0361C20.1809 19.1251 23.4519 22.2188 25.0581 22.6659C25.1471 22.7076 25.2444 22.7292 25.3429 22.7292C25.4414 22.7292 25.5386 22.7076 25.6276 22.6659C26.4162 22.0818 26.4819 16.94 26.4381 15.0001H26.6206C26.6206 15.2885 26.7666 22.0529 25.7372 22.8102C25.624 22.8732 25.4942 22.9008 25.3648 22.8895Z" fill="#D18400"/>
<path d="M25.4963 22.7164C25.3751 22.7119 25.2549 22.6925 25.1385 22.6587C23.4957 22.2116 20.1591 19.0529 19.6918 17.9279C19.6261 17.7621 19.5604 17.6034 19.4874 17.452C18.9982 16.327 18.5382 15.2885 19.188 13.7524L19.3559 13.8173C18.7353 15.2597 19.1588 16.2476 19.6553 17.3798C19.7283 17.5385 19.794 17.6972 19.8597 17.8558C20.3197 18.952 23.5834 22.0457 25.1896 22.4856C25.2786 22.5273 25.3759 22.5489 25.4744 22.5489C25.5729 22.5489 25.6702 22.5273 25.7591 22.4856C26.5477 21.9087 26.6134 16.7597 26.5696 14.827H26.7521C26.7521 15.1154 26.8981 21.8871 25.8687 22.6371C25.7568 22.7033 25.6259 22.7312 25.4963 22.7164Z" fill="#431D11"/>
<g style="mix-blend-mode:multiply">
<path d="M29.9717 41.8848C29.9717 41.8848 30.0594 43.0819 30.074 43.7165C30.0886 44.3511 29.3438 44.0915 29.3438 44.0915C29.3162 44.2253 29.3276 44.3642 29.3767 44.4918C29.4258 44.6195 29.5106 44.7308 29.6213 44.8127C29.7967 44.9074 29.9367 45.0552 30.0208 45.2343C30.1049 45.4134 30.1287 45.6144 30.0886 45.8079C30.0374 46.3271 29.9644 47.106 29.9644 47.106C30.4003 46.5513 30.7863 45.9601 31.118 45.3391L31.2787 44.892L30.9793 42.6492C30.9793 42.6492 32.8338 36.9449 29.9717 41.8848Z" fill="#FCBDAB"/>
</g>
<path d="M11.6674 41.1274C11.9392 41.1289 12.2103 41.1531 12.4779 41.1996C12.945 41.214 13.4108 41.2574 13.8724 41.3294C14.1426 41.4592 13.7994 42.0505 13.7921 42.1659C13.8557 42.3703 13.944 42.5664 14.055 42.75C14.226 42.9346 14.4089 43.108 14.6026 43.2693L14.0915 43.702C14.0915 43.702 12.9014 43.3198 13.1788 43.6659C13.4563 44.0121 14.0404 44.2212 13.7848 44.3871C13.3868 44.4873 12.9739 44.5166 12.5655 44.4736C12.5655 44.4736 12.1347 44.9207 11.2148 44.4736C10.2948 44.0265 9.7107 43.1034 9.84943 42.6996C9.98815 42.2957 10.6453 41.8198 10.857 41.5169C11.0788 41.3059 11.3625 41.1696 11.6674 41.1274Z" fill="#FDE1D2"/>
<path d="M4.83381 29.8847L4.00146 30.952C4.00146 30.952 3.61449 31.3775 2.38058 30.8006C1.14666 30.2236 0.788905 30.0794 0.854616 29.6251C1.23302 28.6358 1.67692 27.6722 2.18344 26.7405C2.18344 26.7405 2.24186 28.0097 4.83381 29.8847Z" fill="#FDE1D2"/>
<path d="M0.408836 30.5915C0.554861 31.8463 1.13896 32.0338 2.86206 35.0194C4.30679 37.3377 5.9352 39.5393 7.73201 41.6035C7.76851 41.6468 9.10465 42.6276 9.10465 42.6276C9.35591 42.5776 9.58191 42.4433 9.74428 42.2474C9.90665 42.0515 9.99539 41.8062 9.99541 41.553C10.0066 41.2714 9.94552 40.9914 9.81788 40.7393C9.69023 40.4871 9.50015 40.2709 9.26528 40.1107C9.17036 40.0458 7.0749 36.9305 7.0749 36.9305L4.30771 32.4305C4.11719 31.906 3.85693 31.4088 3.53378 30.9521C3.04459 30.6204 0.270111 29.5603 0.408836 30.5915Z" fill="#FDE1D2"/>
<path d="M28.9059 8.00495C28.6649 8.47498 28.5589 9.00123 28.5993 9.52658C28.6942 10.0242 29.0301 15.4545 27.9203 16.017C27.2631 16.3631 25.927 16.1973 24.5106 15.6997L24.1893 15.5843H24.1309C23.2506 15.2422 22.4129 14.8018 21.6339 14.2718C19.4435 12.7862 15.6176 8.60351 17.1509 5.26456C18.6842 1.92562 19.9181 1.27658 22.5538 1.60832C24.0762 1.80109 25.5562 2.23962 26.9346 2.90639L27.1901 3.0362C27.1901 3.0362 28.2415 3.15158 28.5044 4.88956C28.7672 6.62755 29.0593 7.71649 28.9059 8.00495Z" fill="#FCD1B9"/>
<g style="mix-blend-mode:multiply">
<path d="M28.9056 8.00496C28.6646 8.47499 28.5586 9.00124 28.599 9.52659C28.6939 10.0242 29.0297 15.4545 27.9199 16.017C27.2628 16.3631 25.9267 16.1973 24.5103 15.6997C26.1238 16.2189 27.8177 16.0458 27.9126 15.8223C27.921 15.2413 27.96 14.6612 28.0295 14.0843C28.1901 13.9112 27.9711 13.4352 27.9711 13.4352C27.9711 13.4352 28.0368 12.9881 28.0806 12.8367C28.0557 12.469 28.0094 12.103 27.9418 11.7405C27.9418 11.7405 28.5552 11.2718 28.5552 11.1059C28.408 10.4552 28.1618 9.83036 27.825 9.25255C27.534 8.63788 27.4619 7.94404 27.6206 7.2838C27.4735 5.98178 27.2294 4.69224 26.8905 3.42563C26.9002 3.2441 26.9221 3.06341 26.9562 2.88477L27.2117 3.01457C27.2117 3.01457 28.2631 3.12996 28.526 4.86794C28.7888 6.60592 29.0589 7.7165 28.9056 8.00496Z" fill="#FEE3DB"/>
</g>
<g style="mix-blend-mode:multiply">
<path d="M24.1895 15.606L24.5107 15.7213L24.1895 15.606Z" fill="#FEE3DB"/>
</g>
<path d="M23.065 4.12511C23.8438 4.26157 24.6324 4.33633 25.4233 4.34867C25.9052 4.26563 26.3951 4.2366 26.8835 4.26213L28.4533 4.6804C28.4533 4.6804 29.2565 4.34146 29.1323 3.95925C29.0082 3.57703 27.1245 1.07463 23.6856 0.216457C22.6616 -0.0823203 21.5655 -0.0312934 20.5745 0.361288C19.5835 0.753869 18.7554 1.46506 18.2242 2.37992L18.1731 2.76213C18.1731 2.76213 16.2894 3.06501 16.4646 6.15876C16.6399 9.25251 17.0049 10.1323 17.7278 10.8246C18.2862 11.3826 18.808 11.9752 19.2902 12.5987C19.2902 12.5987 18.29 10.3126 18.728 9.52655C19.1661 8.7405 19.7356 8.8054 20.0788 9.07223C20.3237 9.30363 20.5372 9.56543 20.714 9.85107H21.4441C21.4441 9.85107 21.8092 8.03376 22.4955 7.73088C23.1818 7.428 23.3716 5.42319 23.3205 5.27175C23.2694 5.1203 23.065 4.12511 23.065 4.12511Z" fill="#F48342"/>
<path d="M16.8442 6.31031C16.8379 5.71371 16.9016 5.11839 17.034 4.53627C17.0924 4.8031 17.034 4.83195 17.3042 4.94012C17.3845 4.94012 17.4137 5.07714 17.4429 5.16368C17.4721 5.25022 17.5013 5.41608 17.5451 5.54589C17.6546 5.44493 17.7714 5.12762 17.9613 5.20694C18.1511 5.28627 18.0416 5.5531 18.2898 5.56031C18.5381 5.56752 18.6111 5.03387 18.7425 5.13483C18.7664 5.15916 18.7839 5.18886 18.7936 5.22137L19.0127 5.85598C19.0127 5.9281 19.0857 6.01464 19.1587 6.00022L19.3047 5.06271C19.3047 4.98339 19.3558 4.88964 19.4288 4.89685C19.491 5.23024 19.5714 5.56005 19.6698 5.88483C19.6698 5.88483 19.6698 5.94252 19.7136 5.94973C19.7574 5.95695 19.8012 5.90646 19.8085 5.84877C19.8461 5.41707 19.9343 4.99114 20.0713 4.57954C20.1297 4.83916 20.1882 5.09877 20.2393 5.35839C20.3634 5.35839 20.3634 5.15646 20.451 5.06993C20.5016 5.02631 20.5664 5.00227 20.6335 5.00227C20.7007 5.00227 20.7655 5.02631 20.8161 5.06993C20.914 5.16665 20.9867 5.28545 21.0278 5.41608C21.0813 5.19985 21.1572 4.98961 21.2542 4.78868C21.3321 4.8658 21.3788 4.96838 21.3856 5.07714C21.3856 4.88964 21.4221 4.70935 21.444 4.52906C21.4805 4.53203 21.5149 4.54723 21.5414 4.57215C21.568 4.59708 21.5851 4.63022 21.59 4.66608C21.6353 4.59346 21.6651 4.51248 21.6776 4.4281C21.6776 4.34877 21.7871 4.26945 21.8675 4.29829C21.8875 4.31014 21.9049 4.3258 21.9186 4.34438C21.9324 4.36295 21.9423 4.38406 21.9478 4.40646C21.9919 4.5169 22.0285 4.63013 22.0573 4.74541L22.1157 4.44973C22.342 4.493 22.4516 4.73098 22.5246 4.94012L22.729 5.48819C22.7689 5.58198 22.7912 5.68218 22.7947 5.78387C22.7784 5.88529 22.7438 5.98299 22.6925 6.07233C22.437 6.54829 22.1887 7.03146 21.9624 7.51464C21.947 7.54575 21.9245 7.57291 21.8967 7.59396C21.7798 7.67329 21.6703 7.48579 21.6484 7.34877C21.6265 7.21175 21.517 7.03146 21.4002 7.10358C21.2834 7.1757 21.3345 7.19012 21.2906 7.21896C21.2468 7.24781 21.1008 7.21897 21.0278 7.13243L20.6335 6.73579C20.5605 6.87281 20.4583 7.01704 20.3123 7.02425C20.1663 7.03146 19.9545 6.743 19.7355 6.73579C19.5164 6.72858 19.4361 6.92329 19.3923 7.09637C19.3761 7.27742 19.3076 7.45009 19.1952 7.59396L18.9104 7.29108C18.8447 7.47137 18.7863 7.65887 18.7279 7.84637L18.2679 7.48579C18.235 7.44982 18.1917 7.42466 18.1438 7.41368C18.0124 7.41368 17.9394 7.56512 17.9321 7.69493C17.9248 7.82473 17.9321 7.97618 17.8225 8.04829C17.713 8.12041 17.6473 8.04829 17.5889 8.14204C17.5644 8.16669 17.5453 8.19606 17.5327 8.22831C17.5201 8.26056 17.5144 8.29502 17.5159 8.32954C17.5159 8.58916 17.4648 8.84877 17.4429 9.10839C17.0659 8.22151 16.8627 7.27202 16.8442 6.31031Z" fill="#F69C68"/>
<path d="M19.8302 8.85584C19.8302 8.85584 19.027 8.05536 18.4429 8.72603C17.8588 9.39671 19.1 11.2429 19.1 11.2429C19.1 11.2429 19.633 12.202 20.2025 12.1082C20.772 12.0145 20.2025 10.5289 20.2025 10.5289C20.1855 9.95312 20.0592 9.38559 19.8302 8.85584Z" fill="#FDDBC8"/>
<path d="M2.13965 25.6731C2.21743 26.2029 2.37493 26.7182 2.60693 27.2019C3.52632 28.416 4.62385 29.4879 5.8633 30.3822C6.1001 30.5172 6.3438 30.6399 6.59343 30.75C6.95047 30.9096 7.32931 31.0165 7.71782 31.0673H7.94416C7.94416 31.0673 10.9742 28.7019 11.3904 28.7164C11.731 28.7173 12.0702 28.6712 12.3979 28.5793C13.052 27.2584 13.4319 25.8215 13.515 24.3534C13.5773 22.461 13.1949 20.5801 12.3979 18.8582C12.0948 18.4957 11.6974 18.2217 11.2485 18.0654C10.7996 17.9092 10.316 17.8766 9.84979 17.9712C9.84979 17.9712 9.3314 18.2452 9.20728 18.1947C8.64159 18.7166 8.13707 19.2996 7.70321 19.9327C7.6448 20.0625 5.70997 22.226 4.41764 23.6178C3.71945 24.3662 2.95731 25.0539 2.13965 25.6731Z" fill="#E8A60E"/>
<path d="M2.9133 25.7669C3.24916 24.8727 4.31515 24.1299 5.05258 23.5458C6.39601 22.4785 9.90791 15.6131 12.3027 18.1948C12.4787 18.4098 12.6147 18.654 12.7043 18.916L13.3249 20.452C13.5717 20.9609 13.7179 21.5116 13.7557 22.0746C13.721 22.8424 13.3983 23.5699 12.8503 24.1155C12.3059 24.65 11.7119 25.1329 11.0761 25.5578C9.42936 26.776 7.93437 28.1824 6.62234 29.7477C6.54988 29.8454 6.45474 29.9246 6.3449 29.9785C6.23384 29.9936 6.12074 29.9832 6.01439 29.9482C5.90803 29.9132 5.81126 29.8545 5.73159 29.7766L4.651 28.9833C4.09531 28.6126 3.60248 28.1575 3.19075 27.6347C3.00054 27.3662 2.87641 27.0575 2.82825 26.7333C2.78008 26.409 2.8092 26.0781 2.9133 25.7669Z" fill="#FAC943"/>
<path d="M6.62256 30.75C6.9796 30.9096 7.35845 31.0165 7.74696 31.0673H7.9733C7.9733 31.0673 11.0033 28.7019 11.4195 28.7164C11.7602 28.7174 12.0993 28.6712 12.4271 28.5793C12.7585 27.921 13.0179 27.2296 13.201 26.5168C12.9436 26.643 12.6777 26.7515 12.4052 26.8414C11.989 26.9063 12.1131 27.7212 11.77 27.9303C11.4268 28.1394 9.57957 28.089 8.91516 29.3005C8.65494 29.6853 8.31693 30.0127 7.92237 30.2621C7.52782 30.5116 7.08527 30.6777 6.62256 30.75Z" fill="#DB8D0D"/>
<path d="M32.5931 16.8823C33.0528 17.6195 33.4321 18.4027 33.7248 19.2189C33.8522 19.805 34.0155 20.383 34.214 20.9496C34.2724 21.0145 34.5352 21.6708 34.5863 21.7862C34.6374 21.9016 35.3165 22.7381 35.3165 22.9184C35.3165 23.0987 35.1996 25.5001 33.5276 25.8895C31.8556 26.279 30.943 26.1347 30.1107 25.0097C29.2783 23.8847 32.5931 16.8823 32.5931 16.8823Z" fill="#DB8D0D"/>
<path d="M33.002 19.7814C33.002 19.7814 33.3306 19.5795 33.1188 21.5627C32.9071 23.5458 33.0093 24.505 33.1845 24.9232C33.3598 25.3415 33.4839 24.9232 33.4839 24.9232C33.4839 24.9232 33.8344 24.3607 33.7248 24.0867C33.7162 23.5471 33.7801 23.0088 33.9147 22.4857C33.9835 23.3177 33.9344 24.1552 33.7686 24.9737L33.4985 25.904C33.4985 25.904 32.3449 26.3439 31.7973 26.0843C31.2497 25.8247 31.9506 23.618 32.0747 23.142C32.1989 22.666 32.4544 22.5867 32.4544 22.5867C32.8185 21.6953 33.0044 20.7426 33.002 19.7814Z" fill="#C25C10"/>
<path d="M13.4127 46.2043C13.9514 47.3988 14.8002 48.4313 15.8733 49.1971C17.1021 49.8579 18.4392 50.2998 19.8233 50.5024L22.9336 51.7284C22.9336 51.7284 23.7659 53.6034 22.7219 53.9928C21.6778 54.3822 18.509 57.7284 18.4871 57.9447C18.3206 58.8581 18.0913 59.7592 17.8008 60.6418C17.5964 61.0745 16.1434 63.1659 16.1434 63.1659C15.0388 63.1757 13.9435 62.9647 12.9236 62.5457C12.5384 62.2902 12.2181 61.9503 11.9876 61.5526C11.7571 61.1548 11.6227 60.7099 11.5947 60.2524L11.6385 56.5817C11.6385 56.5817 11.4852 53.0553 12.1788 50.9207C12.8725 48.7861 12.3833 47.7188 13.4127 46.2043Z" fill="#8C5140"/>
<path d="M20.7651 13.904C21.0289 14.9162 21.3707 15.9071 21.7873 16.8679C22.1669 17.4665 22.6707 18.3102 22.5685 18.4401C22.4663 18.5699 20.2394 17.1131 19.9254 15.5915C19.741 14.7406 19.741 13.8607 19.9254 13.0098C20.3071 13.1957 20.6061 13.5141 20.7651 13.904Z" fill="#FCD1B9"/>
<path d="M24.0506 6.43287C24.2477 6.3247 24.6858 6.81509 24.7296 7.01701C24.7734 7.21893 24.9997 7.83191 24.9121 7.99057C24.8245 8.14922 23.7074 8.50979 23.5906 8.89922C23.5288 9.11649 23.5112 9.3437 23.5387 9.56773C23.5663 9.79176 23.6385 10.0082 23.7512 10.2045C23.9702 10.4497 24.4813 11.4809 23.9483 11.5531C23.4153 11.6252 22.7728 11.9425 22.5319 10.8319C22.291 9.72133 22.1157 8.98576 22.1157 8.98576C22.1157 8.98576 22.656 7.34874 23.1525 7.25499C23.649 7.16124 23.7001 6.59874 24.0506 6.43287Z" fill="#FDDECD"/>
<path d="M27.1827 9.31736C27.1827 9.31736 27.8106 10.0385 27.6792 10.2332C27.6016 10.3708 27.4898 10.4866 27.3545 10.5699C27.2191 10.6531 27.0645 10.701 26.9053 10.7092C26.5548 10.7092 26.6862 10.2765 26.6862 10.2765C26.6862 10.2765 26.971 9.07217 27.1827 9.31736Z" fill="#FDDECD"/>
<path d="M31.2571 44.654C31.1418 44.8209 30.9986 44.9672 30.8336 45.0867C30.7112 45.1152 30.5837 45.1152 30.4613 45.0867C30.3984 45.0818 30.3372 45.0638 30.2819 45.0338C30.2266 45.0038 30.1784 44.9626 30.1404 44.9128C30.1024 44.8631 30.0756 44.8059 30.0617 44.7451C30.0478 44.6843 30.0471 44.6213 30.0597 44.5602C30.1035 44.0699 30.5343 43.1179 30.6219 42.6564L30.7095 42.1804C30.7095 42.1804 30.3591 42.9016 30.213 42.9016C30.067 42.9016 29.8188 42.7862 29.9721 41.8775C30.1428 41.1657 30.3499 40.4629 30.5927 39.7718C30.5927 39.678 30.6511 39.5338 30.6803 39.3679C30.6803 39.6708 30.6803 39.9448 30.6803 40.1756C30.8336 41.4809 31.1622 43.9328 31.2571 44.654Z" fill="#00A695"/>
<path d="M35.3604 30.5266C34.8566 34.3126 34.2652 38.4592 34.2506 39.0073C34.2636 39.7374 34.1727 40.4657 33.9805 41.1708C33.6908 41.8309 33.349 42.4674 32.9583 43.0746C32.7734 43.3015 32.5759 43.5182 32.3669 43.7237C32.2738 43.6898 32.1835 43.6488 32.0968 43.6011C32.0968 43.6011 31.6368 44.2357 31.2571 44.6972C31.1418 44.8641 30.9986 45.0105 30.8336 45.1299C30.7112 45.1585 30.5837 45.1585 30.4613 45.1299C30.3984 45.1251 30.3372 45.107 30.2819 45.0771C30.2266 45.0471 30.1784 45.0059 30.1404 44.9561C30.1024 44.9063 30.0756 44.8491 30.0617 44.7883C30.0478 44.7276 30.0471 44.6645 30.0597 44.6035C30.1035 44.1131 30.5343 43.1612 30.6219 42.6996L30.7095 42.2237C30.7095 42.2237 30.3591 42.9448 30.213 42.9448C30.067 42.9448 29.8188 42.8294 29.9721 41.9208C30.1428 41.209 30.3499 40.5061 30.5927 39.815C30.5927 39.7213 30.6511 39.5842 30.673 39.4256C30.7679 38.9568 30.9067 38.3367 30.9067 38.3078C30.9067 38.279 30.9067 37.9617 30.9067 37.9617C31.0832 37.9438 31.2457 37.8584 31.3593 37.7237C31.3613 37.7069 31.3613 37.69 31.3593 37.6732C31.504 36.5057 31.5699 35.3301 31.5565 34.154C31.5565 33.8943 31.3666 32.5746 31.1987 31.2693L31.2425 31.0818C31.3831 30.3879 31.4637 29.6835 31.4835 28.9761C31.4762 28.2899 31.5054 27.6039 31.5711 26.9208C31.5711 26.7549 31.6368 26.5963 31.6806 26.4376C31.7244 26.279 31.7171 26.2357 31.7463 26.1419C32.3216 26.1787 32.8991 26.1202 33.4548 25.9689C33.7608 25.8972 34.0426 25.7481 34.2725 25.5362C34.6093 25.2175 34.8602 24.8209 35.0027 24.3823C35.2093 24.6893 35.3692 25.0246 35.4772 25.3775C35.616 25.904 35.8496 26.7405 35.3604 30.5266Z" fill="#FBC4A5"/>
<path d="M35.0317 27.7502C34.7908 28.5651 33.7978 31.4281 33.7759 32.7478C33.754 34.0675 33.6007 36.6059 33.5642 37.0026C33.4189 37.443 33.2019 37.8571 32.9217 38.2285C32.5595 38.3368 32.2096 38.4818 31.8776 38.6612C31.4993 38.9339 31.0988 39.1751 30.6802 39.3824L30.943 37.9401L31.3957 37.7021C31.3976 37.6853 31.3976 37.6684 31.3957 37.6516C31.7889 36.2546 31.9854 34.8107 31.9798 33.3607C32.0952 31.2421 32.4254 29.1402 32.9655 27.0867C32.5168 26.906 32.0964 26.6632 31.717 26.3656C31.717 26.2646 31.7535 26.1636 31.7827 26.0699C32.358 26.1067 32.9354 26.0482 33.4912 25.8968C33.7972 25.8252 34.079 25.676 34.3089 25.4641C34.3973 25.6517 34.4998 25.8325 34.6156 26.005C34.8369 26.2323 34.9923 26.5143 35.0656 26.8213C35.1388 27.1283 35.1271 27.4491 35.0317 27.7502Z" fill="#FCD1B9"/>
<g style="mix-blend-mode:multiply">
<path d="M32.8341 41.6973C32.719 42.0667 32.585 42.4302 32.4325 42.7862C32.3084 43.0386 32.0967 43.5651 32.0967 43.5651C32.0967 43.5651 32.5713 42.7502 32.6662 42.4905C32.7978 42.2474 32.856 41.9721 32.8341 41.6973Z" fill="#FCBDAB"/>
</g>
<g style="mix-blend-mode:multiply">
<path d="M32.2278 41.2212C32.1786 41.8048 32.0279 42.3756 31.7825 42.9087C31.3858 43.6551 30.9445 44.3776 30.4609 45.0722C30.4609 45.0722 31.6291 43.1034 31.7313 42.7933L32.2278 41.2212Z" fill="#FCBDAB"/>
</g>
<g style="mix-blend-mode:multiply">
<path d="M31.3518 40.1541C31.3518 40.1541 31.1912 41.0843 31.0598 41.5964C30.9095 42.0894 30.7241 42.5714 30.5049 43.0387L30.7093 42.1372C30.8395 41.4524 31.0554 40.7863 31.3518 40.1541Z" fill="#FCBDAB"/>
</g>
<path d="M32.4322 39.0651C32.7124 39.0584 32.9822 38.9594 33.1989 38.7838C33.4676 38.5575 33.7645 38.3661 34.0823 38.2141L33.9801 39.3319C33.9801 39.3319 34.0677 39.9449 34.1115 40.1612C34.1553 40.3776 33.9071 41.4088 33.6515 41.1708C33.396 40.9329 32.9214 40.9834 32.9214 41.2141C32.9214 41.4449 32.4614 40.9112 32.4687 40.8608C32.476 40.8103 32.3081 40.6156 32.3081 40.6156C32.4176 40.1063 32.4593 39.585 32.4322 39.0651Z" fill="#FCD1B9"/>
<path d="M27.0661 72.9592C27.131 73.3769 27.3368 73.7606 27.6502 74.0482C27.9471 74.1757 28.2248 74.3431 28.4753 74.5458C28.8959 74.9917 29.2931 75.4587 29.6653 75.9448C30.118 76.0979 30.6071 76.1105 31.0672 75.9809C31.3884 75.8366 31.2351 74.8559 31.111 74.6612C30.9869 74.4665 29.5047 72.6203 29.5047 72.6203C29.5047 72.6203 29.052 71.2357 28.5848 71.2501C28.3949 71.2501 28.154 71.6684 27.8546 71.9713C27.4677 72.3679 27.0296 72.779 27.0661 72.9592Z" fill="#D13F32"/>
<path d="M13.4126 80.6466C13.5284 80.3842 13.6959 80.147 13.9052 79.949C14.1145 79.7509 14.3615 79.5959 14.6319 79.4928C15.435 79.2836 16.1871 79.2909 16.3258 79.4928C16.4645 79.6947 16.2382 80.4375 16.2674 80.8197C16.2966 81.2019 17.4137 83.6466 17.4064 83.9351C17.317 84.2241 17.1257 84.4718 16.8671 84.6332C16.6085 84.7947 16.2999 84.8592 15.9972 84.8149C15.0481 84.8149 14.6976 84.4327 14.61 84.0505C14.5224 83.6683 14.1135 81.7211 14.0332 81.5192C13.9529 81.3173 13.6754 80.7115 13.4126 80.6466Z" fill="#D13F32"/>
<path d="M74.8819 53.9136L69.5739 19.1539L43.8296 4.14673L42.9097 4.45682L49.4808 38.8054L73.962 54.5482L74.8819 53.9136Z" fill="#8E9AA3"/>
<path d="M73.962 54.5481L68.6539 19.4712L42.9097 4.45679L48.0498 39.7861L73.962 54.5481Z" fill="#BEC8D4"/>
<path d="M68.6539 19.4712L69.5739 19.1539L43.8296 4.14673L42.9097 4.45682L68.6539 19.4712Z" fill="#D7E2F0"/>
<path d="M48.7724 39.4545L49.853 38.9641L44.7129 6.26696L43.6177 5.61792L48.7724 39.4545Z" fill="#8FA7B5"/>
<path d="M49.5322 39.1875L49.8826 39.3894L44.7352 6.8654L67.632 20.2212V19.637L44.3848 6.07935L49.5322 39.1875Z" fill="#DEDEDE"/>
<path d="M76.6052 78.6997L67.1865 25.0242L69.2674 23.3223L78.1823 77.7982L76.6052 78.6997Z" fill="#C29C6D"/>
<path d="M54.6647 65.8198L45.2461 12.1371L47.1809 11.7549L56.2418 64.9111L54.6647 65.8198Z" fill="#C29C6D"/>
<path d="M74.327 77.1274L66.2153 25.0025L68.1575 24.613L76.605 78.6996L74.327 77.1274Z" fill="#9A794E"/>
<path d="M52.3867 64.2476L43.6689 13.0457L45.6111 12.6562L54.6647 65.8197L52.3867 64.2476Z" fill="#9A794E"/>
<path d="M63.9956 86.9713L62.1265 86.0121L65.7625 27.0073L67.7338 27.1083L63.9956 86.9713Z" fill="#C6A171"/>
<path d="M42.1797 74.2718L40.3105 73.3199L43.9466 14.3079L45.9179 14.416L42.1797 74.2718Z" fill="#C6A171"/>
<path d="M65.3828 86.0411L63.9956 86.9714L67.1498 26.0771L69.1284 26.1853L65.3828 86.0411Z" fill="#B38E62"/>
<path d="M43.5669 73.3487L42.1797 74.2718L45.3338 13.3848L47.3052 13.4857L43.5669 73.3487Z" fill="#B38E62"/>
<path d="M66.697 58.464L69.5737 19.1539L43.8294 4.14673L42.9095 4.45682L41.2959 43.3486L65.7771 59.0914L66.697 58.464Z" fill="#8E9AA3"/>
<path d="M65.7774 59.0914L68.6541 19.4712L42.9098 4.45679L39.8579 44.3294L65.7774 59.0914Z" fill="#BEC8D4"/>
<path d="M64.7259 57.7573L40.5879 44.0049L43.6179 5.61792L67.6318 19.6372L64.7259 57.7573Z" fill="#D9DBDE"/>
<path d="M68.6539 19.4712L69.5739 19.1539L43.8296 4.14673L42.9097 4.45682L68.6539 19.4712Z" fill="#D9DBDE"/>
<path d="M40.5879 44.0049L41.6685 43.5146L44.7131 6.26696L43.6179 5.61792L40.5879 44.0049Z" fill="#8E9AA3"/>
<path d="M64.7404 57.0721L41.3398 43.7308L44.3845 6.07935L67.6317 19.637L64.7404 57.0721Z" fill="#F5F7FC"/>
<path d="M41.3398 43.7308L41.6976 43.9399L44.7349 6.8654L67.6317 20.2212V19.637L44.3845 6.07935L41.3398 43.7308Z" fill="#DEDEDE"/>
<path d="M46.2028 26.1996C46.193 26.1229 46.1666 26.0491 46.1255 25.9833C46.0844 25.9175 46.0294 25.8611 45.9644 25.8181C45.8993 25.775 45.8257 25.7462 45.7484 25.7337C45.6711 25.7211 45.592 25.7251 45.5165 25.7453C45.0127 25.8679 44.7425 26.6972 44.5892 27.1083C44.173 28.2333 44.2606 29.8559 45.5603 30.3895C48.2179 31.4929 48.9043 25.5145 46.6628 25.6371C46.6219 25.6385 46.5824 25.6515 46.5489 25.6745C46.5154 25.6976 46.4893 25.7298 46.4739 25.7671C46.4585 25.8044 46.4543 25.8454 46.4619 25.885C46.4695 25.9247 46.4885 25.9613 46.5167 25.9905C46.7451 26.1905 46.9242 26.4393 47.0406 26.7179C47.157 26.9966 47.2076 27.2978 47.1885 27.5987C47.1885 28.1539 47.1884 29.178 46.6481 29.5458C45.7647 30.1515 45.0857 29.2068 45.0638 28.3991C45.0605 28.0212 45.1324 27.6463 45.2755 27.2958L45.4946 26.8126C45.6771 26.6612 45.6917 26.5169 45.5311 26.3871C45.6114 26.8198 46.2612 26.6395 46.2028 26.1996Z" fill="black"/>
<path d="M63.1925 33.0505C62.0462 31.8462 60.8634 33.3678 60.6152 34.4928C60.2793 35.9351 60.7758 37.6442 62.4332 38.0986C65.5071 38.8846 65.5143 32.1346 61.8637 32.3798C61.652 32.3798 61.506 32.7188 61.7396 32.8197C63.156 33.4399 64.1636 34.7019 63.6963 36.3101C63.4919 36.988 63.1414 37.5 62.2361 37.0313C61.8241 36.8035 61.5082 36.4377 61.3453 36C61.2349 35.6453 61.2075 35.2705 61.265 34.9039C61.3088 34.4712 61.7396 32.4231 62.7983 33.4111C62.8506 33.4627 62.9215 33.4917 62.9954 33.4917C63.0694 33.4917 63.1403 33.4627 63.1925 33.4111C63.2448 33.3594 63.2742 33.2894 63.2742 33.2164C63.2742 33.1433 63.2448 33.0733 63.1925 33.0216V33.0505Z" fill="black"/>
<path d="M51.6639 44.2356C51.4887 42.7068 49.6488 42.9376 49.0281 44.077C48.1958 45.613 49.3275 47.6827 50.7951 48.3534C51.4359 48.6909 52.184 48.771 52.8832 48.577C53.5695 48.2885 53.7083 47.3294 53.7302 46.6803C53.7302 44.9568 53 43.0169 50.9411 43.2116C50.8781 43.2103 50.8169 43.232 50.7692 43.2726C50.7214 43.3131 50.6905 43.3696 50.6824 43.4313C50.6742 43.493 50.6894 43.5554 50.7251 43.6067C50.7607 43.658 50.8142 43.6945 50.8754 43.7092C51.7734 44.0193 52.4597 44.3582 52.7299 45.339C52.9489 46.1395 53.2118 47.8414 51.956 47.8414C51.5239 47.799 51.1099 47.6482 50.7534 47.4033C50.3969 47.1585 50.1096 46.8277 49.9189 46.4424C49.6914 46.0207 49.5735 45.5499 49.5757 45.0722C49.566 44.8988 49.5927 44.7254 49.6543 44.5627C49.7159 44.4001 49.8109 44.2519 49.9335 44.1275C50.3205 43.7164 50.7659 43.7741 51.2696 44.2933C51.3427 44.5169 51.7296 44.4952 51.7004 44.2356H51.6639Z" fill="#C20000"/>
<path d="M47.7285 30.541C47.7723 32.3295 48.4587 34.1468 48.9259 35.8776C49.4297 37.7237 49.9408 39.5915 50.6198 41.3872C50.8096 41.8848 51.6274 41.6685 51.4375 41.1636C50.1525 37.6949 49.7218 33.7646 48.1301 30.4329C48.1047 30.3948 48.0677 30.3657 48.0246 30.3496C47.9814 30.3335 47.9342 30.3313 47.8896 30.3433C47.8451 30.3553 47.8056 30.3809 47.7766 30.4164C47.7477 30.4519 47.7309 30.4955 47.7285 30.541Z" fill="black"/>
<path d="M49.2255 40.226C49.7264 40.9143 50.3439 41.5121 51.0508 41.9928C51.0975 42.036 51.1545 42.0668 51.2165 42.0823C51.2784 42.0979 51.3434 42.0978 51.4053 42.082C51.4672 42.0661 51.524 42.0351 51.5706 41.9918C51.6171 41.9485 51.6518 41.8943 51.6714 41.8342C51.7323 41.4357 51.7495 41.0319 51.7225 40.6299C51.8048 40.2011 51.8585 39.7675 51.8832 39.3318C51.8824 39.2753 51.8648 39.2203 51.8327 39.1736C51.8005 39.1269 51.7552 39.0906 51.7024 39.0691C51.6495 39.0476 51.5914 39.0419 51.5353 39.0527C51.4792 39.0635 51.4275 39.0903 51.3867 39.1298C51.1415 39.4543 50.9993 39.8433 50.9778 40.2476C51.0035 40.7112 51.0035 41.1759 50.9778 41.6395L51.5984 41.4808C50.9548 40.8801 50.2299 40.3704 49.4445 39.9664C49.2912 39.9087 49.1744 40.1034 49.2474 40.226H49.2255Z" fill="black"/>
<path d="M59.7755 36.8656C58.6284 37.5063 57.5706 38.2917 56.6287 39.2021C55.2735 40.2143 54.0883 41.4311 53.1168 42.8079C52.9781 43.0386 53.2774 43.3704 53.5183 43.2045C54.8253 42.2886 55.8475 40.8968 57.0668 39.8367C58.0598 38.9713 59.1257 38.1564 60.0676 37.2334C60.2793 37.0386 60.0165 36.7574 59.7755 36.8656Z" fill="black"/>
<path d="M53.2995 41.3872C53.177 41.8754 53.0283 42.3568 52.8541 42.8295C52.842 42.8711 52.8384 42.9148 52.8437 42.9578C52.8489 43.0009 52.8628 43.0425 52.8846 43.0801C52.9064 43.1178 52.9356 43.1507 52.9705 43.177C53.0054 43.2033 53.0452 43.2225 53.0877 43.2333C53.4912 43.273 53.898 43.2658 54.2997 43.2117C54.4854 43.2332 54.6736 43.2147 54.8513 43.1575C55.0291 43.1002 55.1921 43.0055 55.3292 42.88C55.3596 42.849 55.3765 42.8076 55.3765 42.7646C55.3765 42.7215 55.3596 42.6801 55.3292 42.6492C55.19 42.5609 55.0342 42.5013 54.871 42.474C54.7079 42.4468 54.5409 42.4524 54.38 42.4905C53.9804 42.5398 53.5781 42.5639 53.1753 42.5626L53.4966 42.9809C53.621 42.4747 53.7161 41.9618 53.7814 41.4449C53.7814 41.1708 53.3579 41.1203 53.2995 41.38V41.3872Z" fill="black"/>
<path d="M47.7724 15.3679C47.4842 15.9569 47.3037 16.5917 47.2394 17.2429C47.0225 17.7696 46.9841 18.3515 47.1299 18.9015C47.1568 18.9469 47.1939 18.9856 47.2382 19.0147C47.2826 19.0438 47.3331 19.0626 47.3859 19.0695C47.4387 19.0765 47.4924 19.0715 47.5429 19.0548C47.5934 19.0382 47.6395 19.0105 47.6775 18.9736C47.9864 18.4925 48.1321 17.9267 48.0937 17.3583C48.2449 16.7252 48.2771 16.0701 48.1886 15.4256C48.1751 15.3844 48.1501 15.3478 48.1166 15.3199C48.083 15.2921 48.0422 15.2741 47.9988 15.2681C47.9554 15.2621 47.9111 15.2683 47.8711 15.2859C47.8311 15.3035 47.7969 15.3319 47.7724 15.3679Z" fill="#C20000"/>
<path d="M46.1077 15.4473C46.7083 15.9719 47.408 16.3739 48.1666 16.63C48.8311 16.868 49.6269 17.1997 50.357 16.8896C50.4045 16.8616 50.4449 16.8234 50.4752 16.7777C50.5055 16.732 50.5249 16.6801 50.5319 16.6259C50.539 16.5717 50.5335 16.5167 50.5158 16.4649C50.4981 16.4132 50.4688 16.3661 50.43 16.3271C49.8973 16.0243 49.3092 15.8282 48.6996 15.7502C47.9781 15.5009 47.2712 15.212 46.5823 14.8848C46.2318 14.7334 45.8083 15.1517 46.1369 15.4473H46.1077Z" fill="#C20000"/>
<path d="M49.072 19.4136C49.2939 19.0669 49.5815 18.7657 49.919 18.5266C50.1234 18.3607 50.3279 18.2093 50.5396 18.0579L50.8463 17.8487C50.985 17.7694 50.9923 17.7622 50.8463 17.8487C50.9923 18.0362 50.8463 18.88 50.8024 19.1179C50.749 19.6728 50.6513 20.2225 50.5104 20.7622C50.4851 20.868 50.5025 20.9795 50.559 21.0728C50.6155 21.1662 50.7066 21.2342 50.813 21.2623C50.9194 21.2905 51.0326 21.2766 51.1288 21.2236C51.225 21.1706 51.2965 21.0827 51.3281 20.9785C51.5529 20.1207 51.673 19.2395 51.6859 18.3535C51.6859 17.8992 51.7297 17.1059 51.1237 16.9761C50.5177 16.8463 49.846 17.5819 49.4517 17.9208C49.0574 18.2598 48.3711 18.779 48.5975 19.3631C48.6118 19.4074 48.6386 19.4468 48.6748 19.4766C48.7109 19.5064 48.7549 19.5255 48.8016 19.5315C48.8483 19.5376 48.8958 19.5304 48.9385 19.5108C48.9812 19.4912 49.0174 19.46 49.0428 19.4208L49.072 19.4136Z" fill="#C20000"/>
<path d="M49.3933 19.1539C49.6431 19.2973 49.8675 19.48 50.0577 19.6947C50.2476 19.8966 50.3206 20.1058 50.5907 20.2067C50.8609 20.3077 50.9047 20.1058 50.9193 19.9615C50.9777 19.363 50.0431 18.8942 49.5758 18.7212C49.3203 18.6346 49.167 19.024 49.3933 19.1539Z" fill="#C20000"/>
<path d="M54.3654 18.9449C54.4169 18.8552 54.4466 18.7549 54.4521 18.6519C54.4575 18.5489 54.4386 18.4461 54.3968 18.3516C54.355 18.2571 54.2914 18.1735 54.2112 18.1075C54.131 18.0415 54.0363 17.9948 53.9346 17.9713C53.3213 17.7982 52.6642 18.4833 52.3356 18.9088C51.4157 20.1059 52.5108 21.4473 53.7959 21.5987C53.8387 21.5963 53.88 21.5819 53.9149 21.5572C53.9498 21.5325 53.9768 21.4985 53.9929 21.4592C54.009 21.4199 54.0134 21.3769 54.0057 21.3352C53.9979 21.2935 53.9783 21.2548 53.9492 21.2237C53.5695 20.8848 52.9927 20.6179 52.7737 20.1348C52.6981 19.9592 52.6829 19.7639 52.7304 19.579C52.7779 19.394 52.8854 19.2296 53.0365 19.1107C53.1193 19.0242 53.2069 18.9377 53.2994 18.8511C53.325 18.7962 53.3637 18.7483 53.4121 18.7113C53.4605 18.6744 53.5172 18.6495 53.5774 18.6389C53.6377 18.6283 53.6996 18.6322 53.758 18.6503C53.8164 18.6684 53.8694 18.7002 53.9127 18.7429C53.8543 18.9881 54.2193 19.1684 54.3435 18.9232L54.3654 18.9449Z" fill="#C20000"/>
<path d="M54.526 18.8582C54.9017 19.2821 55.3785 19.6068 55.9132 19.8029C56.3148 19.9976 56.9354 20.5241 57.3734 20.387C57.4166 20.3725 57.4544 20.3455 57.4817 20.3095C57.5091 20.2735 57.5248 20.2301 57.5268 20.1851C57.5268 19.6803 56.8624 19.464 56.4535 19.3197C55.8621 19.0962 55.2926 18.8366 54.7012 18.5986C54.5625 18.5409 54.4164 18.7356 54.5041 18.8582H54.526Z" fill="#C20000"/>
<path d="M55.7601 19.8678C55.5849 20.4087 55.4243 20.9496 55.3001 21.5048C55.123 21.9644 55.0726 22.4621 55.1541 22.9472C55.1689 22.993 55.1966 23.0338 55.2341 23.0646C55.2715 23.0954 55.3171 23.115 55.3654 23.1211C55.4138 23.1271 55.4629 23.1194 55.507 23.0988C55.551 23.0782 55.5882 23.0456 55.6141 23.0048C55.8143 22.5657 55.9306 22.0939 55.9572 21.613C56.0668 21.0921 56.2033 20.577 56.3661 20.0698C56.4829 19.6875 55.8915 19.5289 55.7601 19.9039V19.8678Z" fill="#C20000"/>
<path d="M57.7094 20.9065C57.3636 21.4472 57.1719 22.07 57.1544 22.7093C57.0595 23.2574 56.8259 23.9064 57.2421 24.3464C57.2951 24.3966 57.3657 24.4247 57.4392 24.4247C57.5127 24.4247 57.5833 24.3966 57.6363 24.3464C58.0671 23.9786 57.9357 23.3367 57.9649 22.8175C58.089 22.2082 58.089 21.5806 57.9649 20.9714C57.9587 20.9461 57.9457 20.923 57.9273 20.9044C57.9089 20.8858 57.8858 20.8725 57.8603 20.8659C57.8349 20.8592 57.8081 20.8595 57.7828 20.8666C57.7575 20.8738 57.7347 20.8875 57.7166 20.9065H57.7094Z" fill="#C20000"/>
<path d="M58.4394 19.1756C58.3857 19.1401 58.3205 19.1259 58.2568 19.136C58.193 19.146 58.1355 19.1795 58.0957 19.2298C58.056 19.28 58.0369 19.3432 58.0424 19.4067C58.0479 19.4703 58.0776 19.5294 58.1254 19.5722C58.3882 19.839 58.7752 19.3631 58.4394 19.1756Z" fill="#C20000"/>
<path d="M61.3013 22.8173C61.3126 22.4924 61.1993 22.1752 60.9841 21.9292C60.7688 21.6833 60.4676 21.5265 60.1405 21.4904C59.7734 21.4777 59.4105 21.5713 59.0966 21.7596C58.7827 21.948 58.5313 22.2229 58.3735 22.5505C58.1034 22.8505 57.9345 23.2262 57.8905 23.6253C57.8464 24.0244 57.9292 24.4272 58.1275 24.7777C58.3258 25.1282 58.6297 25.409 58.997 25.5811C59.3643 25.7532 59.7767 25.808 60.1769 25.738C60.469 25.738 60.6661 25.2837 60.3449 25.1322C59.6148 24.7861 58.4831 24.8005 58.7021 23.6466C58.767 23.313 58.9013 22.9962 59.0964 22.7164C59.4614 22.2115 60.6077 21.8438 60.6442 22.8173C60.6559 22.8942 60.6952 22.9643 60.7548 23.015C60.8144 23.0657 60.8905 23.0936 60.9691 23.0936C61.0478 23.0936 61.1239 23.0657 61.1835 23.015C61.2431 22.9643 61.2823 22.8942 61.294 22.8173H61.3013Z" fill="#C20000"/>
<path d="M63.5944 23.5964C63.7331 22.594 61.8493 22.3992 61.5938 23.3656C61.4259 24.0146 61.9662 24.8656 62.2655 25.4065C62.4516 25.8193 62.6975 26.2031 62.9956 26.5459C63.222 26.5459 63.2366 26.5459 63.0468 26.5459C62.862 26.5372 62.6786 26.5106 62.4992 26.4666C62.2436 26.4016 62.01 26.3007 61.769 26.2574C61.704 26.2398 61.6348 26.2439 61.5723 26.269C61.5098 26.2942 61.4575 26.339 61.4234 26.3965C61.3893 26.454 61.3753 26.521 61.3837 26.5871C61.3921 26.6532 61.4223 26.7148 61.4697 26.7622C61.9224 27.2021 63.755 27.8656 63.9156 26.8199C63.9886 26.3295 63.4629 25.8824 63.222 25.5146C62.9879 25.1738 62.7828 24.8144 62.6087 24.4401C62.4992 24.2678 62.4156 24.0808 62.3604 23.8848C62.2144 23.7045 62.2728 23.5964 62.5357 23.5531C62.5679 23.507 62.611 23.4693 62.6612 23.4433C62.7115 23.4172 62.7673 23.4036 62.8241 23.4036C62.8808 23.4036 62.9367 23.4172 62.9869 23.4433C63.0371 23.4693 63.0802 23.507 63.1125 23.5531C63.1125 23.7983 63.5578 23.9137 63.5944 23.618V23.5964Z" fill="#C20000"/>
<path d="M48.7436 27.8726C49.0273 28.0076 49.3425 28.0649 49.6562 28.0385C49.9994 28.0385 50.2184 28.0385 50.4374 27.7644C50.4695 27.7096 50.4864 27.6475 50.4864 27.5842C50.4864 27.5209 50.4695 27.4587 50.4374 27.4039C50.2184 27.1154 49.9994 27.1154 49.6562 27.1298C49.3426 27.1072 49.0284 27.1643 48.7436 27.2957C48.6937 27.3261 48.6526 27.3685 48.6241 27.419C48.5955 27.4695 48.5806 27.5263 48.5806 27.5842C48.5806 27.642 48.5955 27.6988 48.6241 27.7493C48.6526 27.7998 48.6937 27.8423 48.7436 27.8726Z" fill="#C20000"/>
<path d="M52.1092 28.2117C52.3479 28.2776 52.5924 28.321 52.8394 28.3415C52.8767 28.34 52.9129 28.3281 52.9436 28.307C52.9743 28.286 52.9984 28.2568 53.0129 28.2227C53.0275 28.1887 53.0319 28.1513 53.0257 28.1149C53.0196 28.0785 53.003 28.0445 52.9781 28.017C52.7825 27.8299 52.5202 27.7263 52.248 27.7286C51.9267 27.6853 51.788 28.1685 52.1092 28.2117Z" fill="#C20000"/>
<path d="M53.8471 28.8966C54.1684 29.113 54.5188 29.3726 54.9058 29.1995C54.9661 29.1635 55.0098 29.1057 55.0275 29.0383C55.0452 28.9709 55.0356 28.8994 55.0007 28.839C54.8328 28.5505 54.4458 28.5144 54.1538 28.3774C54.085 28.3484 54.0079 28.3452 53.9369 28.3683C53.866 28.3915 53.806 28.4395 53.7683 28.5033C53.7307 28.5671 53.7179 28.6423 53.7324 28.7147C53.7469 28.7871 53.7877 28.8518 53.8471 28.8966Z" fill="#C20000"/>
<path d="M55.7601 29.8198C56.1032 30.0722 56.607 30.6924 57.0816 30.44C57.1226 30.422 57.1575 30.3927 57.1821 30.3556C57.2067 30.3185 57.22 30.2752 57.2203 30.2308C57.2203 29.7188 56.4172 29.5602 56.0375 29.3871C55.9824 29.3654 55.9212 29.3639 55.865 29.3829C55.8088 29.4019 55.7614 29.4402 55.7314 29.4908C55.7013 29.5414 55.6906 29.601 55.7013 29.6587C55.7119 29.7164 55.7431 29.7684 55.7893 29.8054L55.7601 29.8198Z" fill="#C20000"/>
<path d="M57.8116 31.2045C58.0029 31.545 58.267 31.8403 58.5855 32.0699C58.6202 32.0893 58.6599 32.0982 58.6997 32.0956C58.7395 32.093 58.7777 32.079 58.8095 32.0552C58.8414 32.0315 58.8655 31.999 58.8788 31.9619C58.8922 31.9248 58.8943 31.8846 58.8848 31.8463C58.7179 31.4844 58.4679 31.1659 58.1547 30.916C57.9795 30.7141 57.6144 30.9881 57.7823 31.2045H57.8116Z" fill="#C20000"/>
<path d="M59.2059 32.9063C59.3135 33.1495 59.4535 33.3775 59.6221 33.5841C59.7462 33.7933 59.8484 34.0385 60.1113 34.089C60.161 34.0997 60.2129 34.0951 60.26 34.0758C60.307 34.0564 60.3469 34.0233 60.3741 33.9808C60.6516 33.512 59.9433 32.7188 59.4907 32.6178C59.4505 32.6071 59.4083 32.6072 59.3682 32.6181C59.3281 32.6289 59.2917 32.6501 59.2626 32.6795C59.2336 32.7089 59.2131 32.7454 59.2031 32.7853C59.1931 32.8251 59.1941 32.8669 59.2059 32.9063Z" fill="#C20000"/>
<path d="M26.6716 23.5457V25.1827L25.8904 25.4928L25.6129 25.3053L25.5107 24.1875C25.386 24.2019 25.2598 24.1793 25.1481 24.1229C25.0363 24.0664 24.944 23.9785 24.8828 23.8702C24.8031 23.7864 24.743 23.6864 24.7067 23.5771C24.6704 23.4679 24.6588 23.3521 24.6727 23.238C24.6866 23.1238 24.7257 23.0141 24.7873 22.9165C24.8488 22.8189 24.9313 22.7358 25.0288 22.6731L25.1457 22.6226C25.4336 22.5119 25.732 22.4298 26.0364 22.3774C26.2471 22.4887 26.4197 22.6589 26.5328 22.8668C26.6458 23.0746 26.6941 23.3108 26.6716 23.5457Z" fill="#866D66"/>
<path d="M25.5107 24.2021C25.386 24.2164 25.2598 24.1939 25.1481 24.1374C25.0363 24.081 24.944 23.9931 24.8828 23.8848C24.8031 23.801 24.743 23.701 24.7067 23.5917C24.6704 23.4825 24.6588 23.3667 24.6727 23.2526C24.6866 23.1384 24.7257 23.0287 24.7873 22.9311C24.8488 22.8335 24.9313 22.7504 25.0288 22.6877L25.1457 22.6372C25.9853 22.9473 25.5107 24.2021 25.5107 24.2021Z" fill="#674840"/>
<path d="M25.6276 23.2429L25.8904 25.5073L25.613 25.3198L25.5107 24.2021L25.6276 23.2429Z" fill="#674840"/>
<path d="M26.4893 23.856L25.8906 24.0074L25.949 24.3752L26.4893 24.2382V23.856Z" fill="#674840"/>
</svg>
