<svg width="21" height="21" viewBox="0 0 21 21" fill="none" xmlns="http://www.w3.org/2000/svg">
<path fill-rule="evenodd" clip-rule="evenodd" d="M19.991 14.2366L16.0535 12.596C15.385 12.3171 14.6098 12.5098 14.1545 13.0718L12.4975 15.0938C9.60996 13.728 7.27207 11.3901 5.90625 8.50261L7.92832 6.84968C8.49023 6.39031 8.68301 5.61921 8.4041 4.95066L6.76348 1.01316V1.00905C6.44766 0.246164 5.61504 -0.159891 4.81934 0.0574922L1.20996 1.04187C0.496289 1.23874 0 1.88679 0 2.62507C0 12.7723 8.22773 21.0001 18.375 21.0001C19.1133 21.0001 19.7613 20.5038 19.9582 19.7901L20.9426 16.1807C21.16 15.385 20.7539 14.5524 19.991 14.2366ZM18.9938 19.5255C18.994 19.5251 18.9941 19.5246 18.9942 19.5242L19.9778 15.9176C20.0629 15.6061 19.9042 15.283 19.6085 15.1606L19.6064 15.1597L15.6689 13.519C15.4063 13.4095 15.105 13.4872 14.9315 13.7013L14.928 13.7056L12.7759 16.3317L12.0699 15.9978C8.97326 14.5331 6.46701 12.0268 5.00228 8.9302L4.6679 8.2233L7.29539 6.07547C7.2954 6.07546 7.29538 6.07548 7.29539 6.07547C7.51528 5.89568 7.58973 5.59585 7.48119 5.33567L5.82014 1.34914C5.68556 1.0809 5.37919 0.941189 5.08287 1.02214L1.47589 2.00586C1.47552 2.00596 1.47516 2.00606 1.47479 2.00616C1.1921 2.08467 1 2.34043 1 2.62507C1 12.2201 8.78002 20.0001 18.375 20.0001C18.6596 20.0001 18.9153 19.8081 18.9938 19.5255Z" fill="#A1A4B2"/>
</svg>
