<svg width="68" height="100" viewBox="0 0 68 100" fill="none" xmlns="http://www.w3.org/2000/svg">
<g clip-path="url(#clip0_193_27462)">
<path d="M61.4542 61.4144C61.4542 61.4144 52.4601 59.0613 49.5798 58.8385C48.2264 58.735 45.9992 59.1021 44.0117 59.5162C44.7373 60.6457 45.7815 63.0993 44.2862 66.4627C44.6017 66.3874 44.8982 66.3215 45.1727 66.2808C49.1539 65.6784 56.8798 65.2767 59.5393 66.1458C61.1387 66.6698 62.694 64.8532 62.735 63.322C62.7634 62.3023 61.4542 61.4144 61.4542 61.4144Z" fill="#C1592B"/>
<path d="M46.8224 64.326C45.7071 64.4155 44.6 64.5864 43.5099 64.8374L43.0557 65.5402C43.0557 65.5402 44.1125 65.5402 46.3397 65.3677C47.6104 65.2884 48.8625 65.0241 50.056 64.5833C48.9893 64.3915 47.9062 64.3053 46.8224 64.326Z" fill="#AF4922"/>
<path d="M39.8285 60.5201L33.0806 62.1705C33.0806 62.1705 33.3329 67.0808 35.7715 67.9624C37.9515 68.7499 41.6709 67.1027 44.2893 66.4627C45.7846 63.0992 44.7404 60.6456 44.0148 59.5161C41.7655 59.9867 39.8285 60.5201 39.8285 60.5201Z" fill="#0F0F0F"/>
<path d="M25.2695 13.7769C23.8247 16.1991 23.8846 17.7553 23.8247 20.052C23.7836 21.6647 23.6795 25.4988 20.6699 27.0142C19.1714 27.7672 10.313 35.0181 10.313 35.0181L12.108 37.0952C14.2185 35.7335 17.9916 33.3991 20.0611 32.7183C23.0391 31.7425 24.5439 31.1087 25.3768 30.0733C26.2096 29.0379 25.9099 23.406 27.4179 21.3039C28.2936 20.0731 29.2742 18.9195 30.3486 17.8557C30.3486 17.8557 30.7335 19.0166 31.1468 20.6105C31.6073 19.2958 31.9165 18.3734 31.9165 18.3734L29.9606 10.9092C28.1403 11.0347 26.0897 12.4027 25.2695 13.7769Z" fill="#D56432"/>
<path d="M27.4241 21.2915C25.9162 23.3936 26.2159 29.0255 25.383 30.0766C24.5502 31.1277 23.0454 31.7458 20.0673 32.7216C17.9978 33.4024 14.2248 35.7368 12.1143 37.0984L12.9976 38.0805C12.9976 38.0805 21.3891 34.1146 23.0927 33.3742C25.5344 32.2949 27.5377 29.4993 28.2065 28.1219C29.115 26.2582 30.3485 22.8697 31.1341 20.6232C30.7208 19.0293 30.3359 17.8684 30.3359 17.8684C29.2691 18.9249 28.295 20.0701 27.4241 21.2915Z" fill="#D87745"/>
<path d="M38.901 12.9329C39.0556 13.1023 38.2701 15.9167 37.1092 17.8902C35.9482 19.8637 33.3898 23.1268 32.4843 24.4979C32.4194 24.6047 32.3172 24.684 32.1973 24.7206C32.7682 25.4013 33.3737 26.0527 34.0112 26.6722C34.0112 26.6722 37.6329 28.1123 40.3775 25.7121C43.1221 23.3119 42.2167 15.1762 42.2167 15.1762L38.901 12.9329Z" fill="#C1592B"/>
<path d="M35.9072 10.9092L31.6388 15.1762C31.6388 15.1762 30.2634 20.1963 30.5063 21.8749C30.6199 22.6656 31.3991 23.7574 32.1972 24.7238C32.3172 24.6871 32.4194 24.6078 32.4843 24.501C33.3897 23.1299 35.9545 19.8669 37.1091 17.8934C38.2638 15.9198 39.0556 13.1055 38.901 12.936L35.9072 10.9092Z" fill="#AF4922"/>
<path d="M30.8123 42.9876C29.9305 45.4221 29.2964 47.9385 28.9194 50.4988L34.0585 46.0341C34.0585 46.0341 33.3297 41.7074 30.8123 42.9876Z" fill="#0058D8"/>
<path d="M44.2293 50.5993C40.1281 49.2376 31.2949 62.5001 31.2949 62.5001C31.2949 62.5001 35.9134 67.3821 39.3805 64.4014C42.3585 61.8412 45.1725 58.8385 45.1725 58.8385C44.1157 56.2273 43.7898 53.3801 44.2293 50.5993Z" fill="#0058D8"/>
<path d="M41.6706 58.8228C40.2857 59.9429 39.3803 61.3611 38.5348 61.6466C37.6894 61.9321 35.7713 61.4992 35.7713 61.4992L35.0962 62.9675C35.0962 62.9675 37.4338 63.1872 38.6768 62.8891C39.9198 62.591 40.9135 60.7712 41.7937 60.0276C42.8 59.1774 44.7812 57.7717 44.7812 57.7717L44.5067 56.8022C43.5227 57.4204 42.5757 58.0951 41.6706 58.8228Z" fill="#0F0F0F"/>
<path d="M41.8981 42.2031C41.8981 42.2031 41.4722 40.8948 43.5291 40.2265C45.5859 39.5582 45.1064 37.9423 44.7089 36.6214C44.3114 35.3005 42.1347 35.7115 40.2387 36.6214C38.3427 37.5313 38.491 35.3225 40.4974 35.244C42.5038 35.1656 43.1473 33.7129 43.3177 32.141C43.488 30.5691 40.8665 30.5158 40.5636 28.878C40.2608 27.2402 41.1409 23.0202 41.1409 23.0202C43.6362 22.3612 46.1792 21.8965 48.747 21.6302C47.6996 18.5303 45.5102 16.1175 44.2294 15.1763C40.5699 12.5407 35.6675 10.9124 35.6675 10.9124L36.3426 12.7447L41.7498 15.0225C41.7498 15.0225 36.6013 26.3177 33.3267 23.7826C30.0521 21.2474 31.3581 18.0503 31.3581 18.0503L29.0678 15.0225C28.8993 17.6345 28.8993 20.2545 29.0678 22.8664C29.3675 26.4558 32.2225 34.7891 31.1909 36.2669C28.9322 39.5048 31.5695 40.1073 31.5695 40.1073L29.847 43.3483C29.847 43.3483 37.125 49.0649 41.794 47.6154C44.3287 46.8083 46.9057 46.139 49.5136 45.6105C49.2951 44.6597 48.9414 43.7448 48.463 42.8934C47.3841 41.0673 41.8981 42.2031 41.8981 42.2031Z" fill="#0092FF"/>
<path d="M49.0338 22.5935C48.9518 22.2798 48.854 21.9409 48.7467 21.624C46.1788 21.8923 43.6357 22.3592 41.1407 23.0202C41.1407 23.0202 40.2573 27.2559 40.5634 28.8969C40.8694 30.5378 43.4846 30.5911 43.3174 32.1599C43.1502 33.7287 42.5035 35.1877 40.4971 35.263C38.4907 35.3383 38.3424 37.5659 40.2384 36.6403C42.1344 35.7148 44.3175 35.31 44.7087 36.6403C45.0998 37.9707 45.5888 39.5802 43.5288 40.2454C41.4688 40.9105 41.8978 42.222 41.8978 42.222C41.8978 42.222 47.3712 41.0863 48.4628 42.8998C48.9411 43.7511 49.2949 44.6661 49.5133 45.6169C50.3304 45.46 50.7247 45.4161 50.7247 45.4161C50.7247 45.4161 50.7247 42.5358 49.5795 40.7348C50.119 35.3163 50.1474 27.1273 49.0338 22.5935Z" fill="#007BE0"/>
<path d="M41.6706 16.5913C40.8662 17.7114 38.6768 22.6123 37.3676 23.9928C36.2508 25.1725 34.6261 26.8323 33.0046 25.3137C31.3831 23.7952 30.4177 22.2734 30.5281 20.7517C30.6385 19.23 30.8436 17.8464 30.8436 17.8464H30.3294C30.3294 17.8464 29.8372 20.0238 29.9981 21.2224C30.159 22.4209 31.0739 25.1443 33.0708 26.1828C35.0678 27.2214 37.172 25.775 38.2951 24.1403C39.4181 22.5056 41.9041 17.4604 42.7905 16.6604C43.3088 16.2043 43.7898 15.7081 44.2291 15.1763L43.5477 14.7151C42.8334 15.2462 42.201 15.8783 41.6706 16.5913Z" fill="#0F0F0F"/>
<path d="M34.9038 2.84581C32.6544 1.14526 27.3324 0.599326 25.3891 6.06808C25.2003 6.49007 25.1108 6.94935 25.1273 7.41095C25.0768 8.18906 25.4428 9.83627 25.6541 10.9093C26.5217 15.3019 29.2852 18.6591 31.3547 17.7555C32.91 17.0715 36.1877 14.6524 37.1089 11.631C38.1468 8.22985 36.6578 4.16986 34.9038 2.84581Z" fill="#D87745"/>
<path d="M25.6543 6.35363C25.7131 6.48488 25.8 6.60175 25.909 6.69606C26.018 6.79037 26.1464 6.85982 26.2852 6.89956C26.7679 7.05644 27.4399 7.41098 28.0708 6.89956C28.7018 6.38814 29.3327 6.5858 29.8059 6.70503C30.6735 6.89956 30.4526 7.38274 31.2003 7.72473C32.8313 8.46833 32.6988 9.16173 32.8313 9.77983C33.0395 10.7462 33.866 10.9093 34.478 10.9093C34.3014 9.37195 34.0238 7.05644 34.0238 7.05644C34.0238 7.05644 27.1559 2.82074 25.6543 6.35363Z" fill="#C1592B"/>
<path d="M37.8946 3.56748C37.5791 3.15646 36.6832 2.62622 36.0806 2.67955C36.1056 2.3775 36.0462 2.07446 35.9089 1.80389C35.7716 1.53333 35.5617 1.30578 35.3025 1.14638C35.0434 0.986979 34.7449 0.901931 34.4402 0.900631C34.1355 0.899332 33.8363 0.981832 33.5758 1.13902C33.2603 0.643284 32.9764 0.156964 32.3139 0.0283245C31.7902 -0.0783522 31.1845 0.141276 30.7113 0.273053C30.4842 0.149995 30.2349 0.0727862 29.9778 0.0458636C29.7206 0.0189411 29.4606 0.042836 29.2128 0.116176C28.9764 0.212357 28.7616 0.354229 28.5807 0.533573C28.3998 0.712918 28.2565 0.926171 28.1591 1.16098C27.4241 1.08254 27.0297 0.953902 26.5313 1.55317C26.282 1.86693 26.2694 2.31246 26.3294 2.91173C25.6637 2.88663 25.1117 3.04351 24.9224 3.56748C24.7331 4.09145 24.9224 4.43031 25.1747 5.03586C24.2283 6.15596 24.5848 7.11919 25.1337 7.92868C25.4713 6.89642 25.689 6.54816 26.872 6.57326C27.6764 6.59208 28.6102 5.97712 29.7112 6.10262C30.6419 6.2093 31.0362 6.52305 31.5883 7.20077C32.4117 8.21733 33.4338 8.48402 33.5253 9.45039C33.5552 9.75084 33.6567 10.0399 33.8213 10.2936C33.9859 10.5473 34.2088 10.7584 34.4717 10.9094C34.4717 10.9094 35.355 8.90132 36.3425 9.51C37.0586 9.97436 37.1248 11.631 37.1248 11.631C38.1627 10.4666 38.7401 8.967 38.7495 7.41098C38.7495 6.86819 38.3142 6.08694 38.1785 5.4908C38.2652 5.16787 38.2848 4.83073 38.2359 4.50002C38.1871 4.16932 38.071 3.85199 37.8946 3.56748Z" fill="#0F0F0F"/>
<path d="M44.7749 17.5201C41.2321 18.5367 40.882 23.4062 41.1596 25.2322C41.1596 25.3013 41.1817 25.3703 41.1911 25.4393C42.2732 25.0879 44.144 24.5294 45.0462 24.5451C46.0431 24.5639 46.8192 24.6706 48.3271 25.5083C48.4281 22.2453 47.8287 16.6448 44.7749 17.5201Z" fill="#D87745"/>
<path d="M41.1914 25.4392C41.4564 26.9829 42.0842 28.8905 43.0243 29.7941C43.9644 30.6977 47.8289 29.4992 48.198 27.1021C48.2703 26.5736 48.3135 26.0415 48.3274 25.5082C46.8194 24.6705 46.0434 24.567 45.0465 24.545C44.1442 24.5293 42.2735 25.0878 41.1914 25.4392Z" fill="#C1592B"/>
<path d="M24.6386 59.0674C23.9793 60.5013 23.5691 62.2771 23.2158 63.8898C23.9879 64.8384 24.9006 65.6647 25.9226 66.3403C26.8879 66.9364 29.5158 67.1654 30.6988 67.2407C34.005 62.7917 40.5636 56.4476 40.5636 56.4476L25.8058 55.5879C25.5259 56.7812 25.1351 57.946 24.6386 59.0674Z" fill="#D87745"/>
<path d="M23.569 75.8816C21.6257 75.4895 20.5311 73.1928 20.0673 71.9377C19.3705 73.8585 18.9036 75.8541 18.6761 77.8834C18.4174 80.5346 16.1365 89.21 15.2406 90.3803C14.3446 91.5506 19.6225 92.0463 19.6225 92.0463C19.6225 92.0463 22.8214 84.397 25.2158 81.5481C26.4493 80.0828 27.1086 78.0968 27.5913 76.004C26.2557 76.2293 24.8883 76.1877 23.569 75.8816Z" fill="#D87745"/>
<path d="M23.2158 80.8044C23.2158 80.8044 24.9541 79.7157 25.3831 77.9241C25.8122 76.1326 26.1055 75.8816 26.1055 75.8816H24.5282L23.2158 80.8044Z" fill="#C1592B"/>
<path d="M23.2158 63.8899C22.8183 65.6971 22.4933 67.2973 21.9539 67.9687C21.4144 68.6401 20.7141 70.096 20.061 71.944C20.5248 73.199 21.6195 75.4957 23.5628 75.8879C24.8861 76.19 26.2569 76.2263 27.5945 75.9946C28.0614 74.0305 28.3863 71.991 28.9258 70.2403C29.1592 69.481 29.8123 68.4299 30.6924 67.2471C29.5094 67.1718 26.8815 66.9333 25.9162 66.3466C24.896 65.6686 23.9855 64.8402 23.2158 63.8899Z" fill="#0F0F0F"/>
<path d="M60.6056 23.1928C58.5865 21.6774 54.5863 21.3918 51.3748 19.092C46.6901 15.7411 44.0117 17.8903 44.0117 17.8903L45.0465 24.5451C46.3588 24.5702 47.2863 24.7459 50.0057 26.5437C51.5501 27.5913 53.2546 28.3838 55.0532 28.8906C55.9702 28.8692 56.8839 28.7737 57.7852 28.6051C57.7852 28.5674 55.6747 30.1174 55.8924 33.895C55.9681 35.1939 55.7694 38.2876 55.334 39.4986C54.8198 40.9137 53.0973 42.95 52.1982 43.9822C51.0783 45.2686 51.6556 45.9087 52.5137 45.1494C53.1745 44.5631 53.9281 44.0892 54.7441 43.7469C54.7441 43.7469 55.3119 47.6688 54.9712 49.2784C54.6305 50.888 56.1542 53.2035 56.9934 52.1022C58.1985 50.5334 59.6497 46.8217 59.6497 44.9392C59.6497 42.8621 58.4824 40.9984 58.8231 39.9787C59.0597 39.2759 59.5329 37.522 61.511 33.8887C62.7508 31.6077 63.0378 29.1824 64.0063 27.0865C64.5553 25.9287 62.8422 24.8714 60.6056 23.1928Z" fill="#D87745"/>
<path d="M45.0464 24.5452L45.5322 27.6827C45.5322 27.6827 49.9677 27.9525 51.3527 28.4389C52.5505 28.813 53.8053 28.9744 55.0595 28.9158C53.2608 28.409 51.5563 27.6165 50.0119 26.5689C47.2862 24.746 46.3587 24.5703 45.0464 24.5452Z" fill="#C1592B"/>
<path d="M35.6735 48.748C34.0962 48.1864 34.0709 46.5172 34.0709 46.5172C34.0263 46.3099 33.9926 46.1005 33.97 45.8897C33.6766 45.7297 33.38 45.576 33.0772 45.4254C32.572 45.1929 32.0991 44.8966 31.6702 44.5437C31.4052 45.5352 30.6449 48.3307 30.4777 48.5158C27.1305 52.1836 22.2029 57.5959 21.96 57.9473C24.4837 60.7491 23.0988 60.7931 25.6699 62.8293C27.0147 63.901 28.6364 64.5731 30.3484 64.7683C31.1717 63.2906 32.3138 61.248 32.8374 60.335C33.705 58.8227 37.9386 55.6287 39.2131 54.6874C40.4876 53.7461 40.2794 51.4118 39.9545 50.8094C39.6295 50.207 37.2414 49.3065 35.6735 48.748Z" fill="#0092FF"/>
<path d="M45.2449 47.129C43.5224 47.4428 41.8094 47.7566 40.0522 47.7064C38.4433 47.6656 36.7177 47.3926 35.2949 46.6145C34.8501 46.3666 34.4116 46.1156 33.9699 45.874C33.9925 46.0848 34.0262 46.2943 34.0709 46.5015C34.0709 46.5015 34.1056 48.1707 35.6735 48.7323C37.2414 49.294 39.6137 50.1976 39.9386 50.7968C40.2636 51.3961 40.4686 53.743 39.1973 54.6749C37.9259 55.6067 33.6891 58.8133 32.8216 60.3224C32.2979 61.2355 31.1559 63.278 30.3325 64.7558C32.4197 64.9713 34.5261 64.6075 36.418 63.7047C36.418 63.7047 37.1751 60.473 40.5633 56.435C43.9514 52.397 47.9706 51.7287 49.0495 48.0232C49.1878 47.5508 49.2995 47.0711 49.3839 46.5862C49.0337 46.5862 48.6867 46.5862 48.3397 46.6208C47.2999 46.7366 46.2669 46.9062 45.2449 47.129Z" fill="#007BE0"/>
<path d="M32.8218 36.3955C32.8218 36.3955 37.3993 37.5564 40.2385 36.634C43.0778 35.7115 46.3398 32.1536 46.3398 32.1536C46.3398 32.1536 43.2418 33.7223 41.7938 34.3499C40.3458 34.9774 34.9544 36.2355 32.8218 36.3955Z" fill="#0058D8"/>
<path d="M45.6142 39.7151C44.8097 39.4766 38.8441 39.4766 37.964 39.5551C37.0838 39.6335 33.254 40.0759 31.5693 40.1167C33.354 41.443 35.4208 42.3446 37.6106 42.7522C41.2701 43.4362 46.8224 41.1552 46.8224 41.1552C46.8224 41.1552 46.4186 39.9629 45.6142 39.7151Z" fill="#0058D8"/>
<path d="M37.4498 47.0757C34.7967 46.238 30.9795 44.1829 30.9795 44.1829C30.9795 44.1829 31.642 46.3321 37.677 48.2366C39.5351 48.8233 43.3555 48.2774 44.7688 48.0358C46.1839 47.8284 47.622 47.8284 49.0371 48.0358C49.28 47.2456 49.4262 46.4292 49.4725 45.6042C49.4725 45.6042 47.6143 45.9399 45.6868 46.4199C43.7593 46.9 40.1029 47.9165 37.4498 47.0757Z" fill="#0058D8"/>
<path d="M19.0985 89.85C18.1331 88.5636 17.3823 87.9204 16.2592 87.9204C16.2592 87.9204 13.379 90.3426 12.0919 91.0925C10.8047 91.8423 8.79518 93.3452 7.12002 94.2049C5.44486 95.0646 4.68773 96.2945 5.00636 96.9816C5.6373 98.2931 6.93705 99.4446 9.18636 99.4258C10.3284 99.4258 12.8048 97.4209 14.6977 96.7777C16.5905 96.1345 19.5212 95.0646 20.0071 93.9225C20.9724 91.6635 21.1207 90.556 20.8683 89.53C20.4613 89.3417 19.5433 90.4524 19.0985 89.85Z" fill="#0F0F0F"/>
<path d="M14.8464 89.0813L13.5435 90.0979C13.5435 90.0979 14.9789 90.5779 15.6193 91.5913C16.2597 92.6048 17.5121 92.4165 16.8811 90.9638C16.6842 90.5317 16.4029 90.1427 16.0536 89.8196C15.7043 89.4964 15.294 89.2455 14.8464 89.0813Z" fill="white"/>
<path d="M12.6029 90.7913L11.2085 91.6604C11.2085 91.6604 12.565 92.6016 13.2023 93.6119C13.8395 94.6222 15.0793 94.2959 14.4358 92.8432C14.0586 91.9835 13.4169 91.265 12.6029 90.7913Z" fill="white"/>
<path d="M10.3256 92.2283L8.86816 93.1915C8.86816 93.1915 10.2878 94.0355 10.925 95.0489C11.5623 96.0623 12.8021 95.7329 12.1585 94.2834C11.7819 93.4225 11.1401 92.7028 10.3256 92.2283Z" fill="white"/>
<path d="M18.5089 94.3243C17.5372 95.6358 15.187 96.097 13.6412 96.8845C12.0954 97.6721 9.32551 98.9553 8.74504 98.742C8.16457 98.5286 7.53994 97.4556 6.89637 96.5269C6.25281 95.5981 5.03509 96.166 5.03509 96.166C3.45773 98.2086 6.79542 100.289 8.86808 99.9688C10.5685 99.7052 12.4424 98.1647 13.0891 97.7725C14.4341 97.0454 15.8783 96.5169 17.3764 96.2037C18.5026 96.1629 19.3291 95.5919 20.0042 94.8075C20.6793 94.0231 20.5815 92.4292 20.5815 92.4292C20.5815 92.4292 19.1556 93.4458 18.5089 94.3243Z" fill="#0058D8"/>
<path d="M18.0795 87.4655C16.6851 86.6403 15.6851 87.0451 15.6851 87.0451V88.4036C17.8176 91.2023 19.4076 90.032 19.4076 90.032L19.7231 89.0907C19.7231 89.0907 18.8619 87.9298 18.0795 87.4655Z" fill="#0058D8"/>
<path d="M66.8136 62.6413C66.474 61.7399 65.9691 60.909 65.3246 60.1909C65.3246 60.1909 60.6178 60.0811 60.2991 61.2169C60.1761 61.6498 61.6115 62.2115 61.8197 62.9896C61.8522 63.1469 61.8399 63.3102 61.7842 63.461C61.7284 63.6117 61.6315 63.744 61.5042 63.843C60.6693 64.687 59.7708 65.4664 58.8164 66.1742C58.8164 66.1742 59.9521 67.8465 60.9679 68.6842C62.722 70.1244 62.8608 74.1028 63.6652 75.3264C64.5075 76.6065 66.2773 75.8849 66.2773 75.8849C66.9893 74.5703 67.4135 73.1208 67.5223 71.6316C67.631 70.1424 67.4218 68.6472 66.9083 67.2441C66.3909 65.7945 67.1859 63.592 66.8136 62.6413Z" fill="#0F0F0F"/>
<path d="M66.9844 65.3771C67.2999 64.3323 68.0759 63.4695 67.1831 61.8787C66.2903 60.288 66.3787 60.1217 64.5237 60.1562C65.0126 60.8549 65.4481 61.589 65.8266 62.3525C66.161 63.1055 65.9654 64.5833 66.0916 65.8038C66.2556 67.404 66.8834 69.2551 66.9749 69.6442C67.1137 70.2717 67.0159 72.9261 66.2525 74.2062C65.9118 74.7741 63.877 74.6862 63.6782 75.3263C63.4795 75.9663 64.8392 76.1295 65.8077 76.1389C67.3377 76.1577 68.3125 72.606 67.9056 69.8858C67.4986 67.1655 66.6784 66.4094 66.9844 65.3771Z" fill="#0058D8"/>
<path d="M61.8954 67.0809C61.3999 67.4303 60.9615 67.8536 60.5957 68.3359L61.1572 68.8505C61.1572 68.8505 61.9207 68.3359 62.7346 67.6739C63.3939 67.1405 62.5485 66.582 61.8954 67.0809Z" fill="white"/>
<path d="M63.2048 68.6401C62.6559 68.9539 61.6748 69.4998 61.6748 69.4998L62.1102 70.3438C62.1102 70.3438 62.8704 69.961 63.656 69.4998C64.4415 69.0386 63.7569 68.3201 63.2048 68.6401Z" fill="white"/>
<path d="M64.0123 70.3439C63.5012 70.5667 62.416 71.1659 62.416 71.1659L62.6463 71.9472C62.6463 71.9472 63.5927 71.5205 64.3183 71.1659C65.0439 70.8114 64.5202 70.1211 64.0123 70.3439Z" fill="white"/>
<path d="M57.9048 66.221C58.1508 66.6477 59.6241 67.2407 59.6241 67.2407C61.2803 66.2775 61.5169 63.8428 61.5169 63.8428C61.5169 63.8428 59.8954 64.3009 58.8291 64.6648C57.7628 65.0288 57.6555 65.7943 57.9048 66.221Z" fill="#0058D8"/>
<path d="M31.2951 61.4143C29.847 61.1602 27.44 61.3924 26.2664 59.5161C24.9257 57.3732 24.036 55.5879 24.036 55.5879L23.2158 56.5009C23.2158 56.5009 24.4556 58.2799 25.7838 60.5201C26.9195 62.4372 29.7177 63.0302 31.5033 62.7164C33.2888 62.4026 36.8884 62.4026 36.8884 62.4026L37.4625 61.1163C37.4625 61.1163 32.7462 61.6653 31.2951 61.4143Z" fill="#0F0F0F"/>
<path d="M36.2413 36.063C36.6956 35.2598 37.6357 32.8376 36.418 31.0743C34.0709 27.6732 31.5029 32.8753 31.5029 32.8753L33.2506 33.7538C33.2506 33.7538 34.0614 31.7928 34.869 31.9528C35.6766 32.1128 35.765 34.5884 34.3895 36.063C33.3313 37.2212 32.5599 38.6094 32.137 40.1167L37.4622 42.2032L37.9638 40.5246L34.0709 39.2508C34.0709 39.2508 35.787 36.8631 36.2413 36.063Z" fill="#0F0F0F"/>
<path d="M44.2294 44.9454C42.4438 45.3972 40.4153 46.4859 36.5193 44.7979C33.8535 43.6433 30.6641 41.8455 30.6641 41.8455L30.3486 42.4259C30.3486 42.4259 33.2951 44.3084 35.106 45.0928C36.9168 45.8772 38.6645 46.922 41.3807 46.3478C44.0969 45.7737 50.6808 44.4653 50.6808 44.4653L50.5956 43.7719C50.5956 43.7719 46.6207 44.3555 44.2294 44.9454Z" fill="#0F0F0F"/>
<path d="M44.229 30.1143C45.0181 30.1116 45.7915 29.8947 46.4657 29.4868C47.6992 28.6553 47.8979 27.9682 47.8979 27.9682C47.1188 27.8143 46.3306 27.7095 45.5382 27.6544C44.5697 27.6325 44.229 30.1143 44.229 30.1143Z" fill="#AF4922"/>
<path d="M14.4142 38.5322C14.4137 40.1901 13.8881 41.8057 12.9118 43.1496C11.9355 44.4935 10.5583 45.4972 8.97572 46.0183C7.39318 46.5393 5.68579 46.5512 4.09608 46.0522C2.50637 45.5532 1.11518 44.5687 0.120117 43.2385C0.319171 44.4169 0.784721 45.535 1.48163 46.5083C2.17855 47.4817 3.08862 48.2849 4.14321 48.8574C5.19779 49.4299 6.36934 49.7568 7.56946 49.8133C8.76958 49.8697 9.96693 49.6544 11.0712 49.1836C12.1754 48.7127 13.1577 47.9985 13.9439 47.095C14.7302 46.1915 15.2998 45.1221 15.6099 43.9677C15.92 42.8132 15.9624 41.6038 15.734 40.4307C15.5055 39.2576 15.0122 38.1514 14.2911 37.1956C14.3712 37.6367 14.4123 38.0839 14.4142 38.5322Z" fill="#DB5E00"/>
<path d="M7.94997 34.0269C6.90752 34.0264 5.8752 34.2303 4.91202 34.6269C3.94884 35.0235 3.07368 35.6049 2.33655 36.3381C1.59942 37.0712 1.01478 37.9416 0.616043 38.8995C0.217304 39.8574 0.0122814 40.8842 0.0126959 41.9209C0.01389 42.3659 0.0540025 42.81 0.132577 43.2481C1.12764 44.5783 2.51882 45.5628 4.10853 46.0618C5.69824 46.5608 7.40564 46.549 8.98818 46.0279C10.5707 45.5069 11.948 44.5031 12.9242 43.1593C13.9005 41.8154 14.4262 40.1997 14.4266 38.5418C14.4242 38.0967 14.3831 37.6526 14.3036 37.2146C13.5684 36.2267 12.6108 35.4238 11.5075 34.8702C10.4041 34.3166 9.18575 34.0278 7.94997 34.0269Z" fill="#FF7300"/>
<path d="M3.67843 35.2566L3.47021 35.3946C3.47021 35.3946 7.70701 39.0687 9.52728 43.1632C11.3476 47.2577 11.8996 48.7481 11.8996 48.7481L12.1741 48.6037C11.4065 46.104 10.3744 43.6924 9.09508 41.4093C7.18332 37.9612 3.67843 35.2566 3.67843 35.2566Z" fill="#0F0F0F"/>
<path d="M5.23347 46.7244C4.57098 44.7697 5.21454 40.5027 3.46998 38.5668C3.20863 38.2539 2.88519 37.9979 2.51988 37.8149C2.15458 37.6319 1.75526 37.5258 1.34686 37.5032L1.21436 37.7197C1.21436 37.7197 3.73813 37.886 4.26813 41.1459C4.69401 43.703 4.32176 46.1157 5.43537 47.7692C6.54899 49.4227 7.93707 49.8024 7.93707 49.8024H8.23046C8.23046 49.8024 5.87072 48.6101 5.23347 46.7244Z" fill="#0F0F0F"/>
<path d="M9.11379 36.8035C7.31245 36.6027 6.6815 34.1428 6.6815 34.1428L6.45752 34.1679C6.45752 34.1679 6.6815 36.5211 8.73207 37.0796C9.56492 37.3055 11.7007 37.0796 12.8332 38.2373C14.909 40.3834 15.2245 45.0489 15.2245 45.0489L15.4232 44.5563C15.4232 44.5563 15.4232 41.4627 13.7418 38.9621C12.2748 36.7815 11.1044 37.0231 9.11379 36.8035Z" fill="#0F0F0F"/>
<path d="M60.6052 27.9712C60.5326 28.285 61.1951 29.3862 61.1951 29.3862L62.2393 27.1021C61.9301 26.9986 60.949 26.5374 60.6052 27.9712Z" fill="#C1592B"/>
<path d="M35.8314 10.7241C36.0382 10.7476 36.2385 10.8105 36.4214 10.9092C36.4214 10.9092 36.2826 10.2534 35.8504 10.2534C35.4182 10.2534 35.0806 10.9092 35.0806 10.9092C34.885 11.5053 35.4529 11.5367 35.5917 11.6308C36.1469 11.9446 35.7147 12.5721 36.1879 12.3336C36.6611 12.0952 36.3046 11.5273 36.087 11.4331C35.8693 11.339 35.6327 11.4112 35.5538 11.2166C35.4749 11.0221 35.5854 10.7241 35.8314 10.7241Z" fill="#C1592B"/>
</g>
<defs>
<clipPath id="clip0_193_27462">
<rect width="68" height="100" fill="white"/>
</clipPath>
</defs>
</svg>
