<svg width="33" height="32" viewBox="0 0 33 32" fill="none" xmlns="http://www.w3.org/2000/svg">
<path d="M27.7 0H5.3C2.6536 0 0.5 2.1536 0.5 4.8V27.2C0.5 29.5797 2.24293 31.5552 4.51813 31.9307C4.59333 31.9712 4.67547 32 4.76667 32H5.3H27.7H28.2333C28.3245 32 28.4067 31.9712 28.4819 31.9307C30.7571 31.5552 32.5 29.5797 32.5 27.2V4.8C32.5 2.1536 30.3464 0 27.7 0ZM27.7 30.9333H5.3V25.0667C5.3 21.0656 8.24133 17.7003 12.1779 17.1488C12.2451 17.2021 12.316 17.2496 12.3848 17.3003C12.6141 17.4704 12.8525 17.6293 13.1021 17.7707C13.1187 17.7797 13.1341 17.7909 13.1507 17.8C13.26 17.8608 13.3736 17.9131 13.4867 17.968C13.5608 18.0043 13.6344 18.0421 13.7096 18.0757C13.8195 18.1243 13.932 18.1669 14.0445 18.2096C14.1283 18.2416 14.212 18.2736 14.2973 18.3024C14.4061 18.3392 14.516 18.3717 14.6269 18.4032C14.7245 18.4309 14.8221 18.4555 14.9208 18.4789C15.0232 18.5029 15.1256 18.5259 15.2296 18.5456C15.3523 18.5685 15.4755 18.5861 15.5997 18.6021C15.6845 18.6133 15.7677 18.6267 15.8531 18.6347C16.0675 18.6544 16.2835 18.6667 16.5 18.6667C16.7165 18.6667 16.9325 18.6544 17.1469 18.6341C17.2323 18.6261 17.316 18.6128 17.4003 18.6016C17.524 18.5851 17.6477 18.568 17.7704 18.5451C17.8744 18.5259 17.9768 18.5024 18.0792 18.4784C18.1779 18.4555 18.2755 18.4304 18.3731 18.4027C18.484 18.3712 18.5939 18.3387 18.7027 18.3019C18.788 18.2731 18.8712 18.2411 18.9555 18.2091C19.068 18.1664 19.1805 18.1237 19.2904 18.0752C19.3661 18.0416 19.4392 18.0037 19.5139 17.9675C19.6264 17.9125 19.74 17.8603 19.8493 17.7995C19.8691 17.7883 19.8877 17.7749 19.9075 17.7637C20.1539 17.624 20.3885 17.4672 20.6152 17.2997C20.684 17.2485 20.7555 17.2016 20.8221 17.1483C24.7587 17.7003 27.7 21.0656 27.7 25.0667V30.9333ZM10.6333 11.7333C10.6333 8.49867 13.2653 5.86667 16.5 5.86667C19.7347 5.86667 22.3667 8.49867 22.3667 11.7333C22.3667 13.5237 21.5587 15.1264 20.2904 16.2032C20.1997 16.2805 20.1048 16.3515 20.0099 16.4229C19.9608 16.4597 19.9128 16.4976 19.8627 16.5328C19.7672 16.5995 19.6691 16.6619 19.5704 16.7227C19.5171 16.7557 19.4643 16.7893 19.4093 16.8203C19.3091 16.8779 19.2067 16.9307 19.1037 16.9824C19.0467 17.0107 18.9891 17.0389 18.9309 17.0656C18.8275 17.1131 18.7224 17.1568 18.6168 17.1984C18.5539 17.2229 18.4899 17.2459 18.4259 17.2683C18.3224 17.3045 18.2184 17.3387 18.1133 17.3685C18.0387 17.3899 17.9629 17.4085 17.8872 17.4267C17.7896 17.4507 17.692 17.4741 17.5933 17.4933C17.4957 17.512 17.396 17.5253 17.2963 17.5387C17.2163 17.5499 17.1368 17.5632 17.0563 17.5712C16.8733 17.5893 16.6877 17.6 16.5 17.6C16.3123 17.6 16.1267 17.5893 15.9437 17.5717C15.8632 17.5637 15.7837 17.5504 15.7037 17.5392C15.6045 17.5253 15.5048 17.5125 15.4067 17.4939C15.308 17.4752 15.2104 17.4512 15.1128 17.4272C15.0371 17.4085 14.9613 17.3904 14.8867 17.3691C14.7816 17.3387 14.6776 17.3045 14.5741 17.2688C14.5101 17.2464 14.4461 17.2235 14.3832 17.1989C14.2771 17.1579 14.1725 17.1136 14.0691 17.0661C14.0109 17.0395 13.9533 17.0112 13.8963 16.9829C13.7933 16.9317 13.6909 16.8784 13.5907 16.8208C13.5363 16.7893 13.4835 16.7557 13.4296 16.7232C13.3309 16.6624 13.2323 16.6005 13.1373 16.5333C13.0872 16.4981 13.0392 16.4603 12.9901 16.4235C12.8952 16.3525 12.8003 16.2811 12.7096 16.2037C11.4413 15.1264 10.6333 13.5237 10.6333 11.7333ZM31.4333 27.2C31.4333 28.888 30.3069 30.3157 28.7667 30.776V25.0667C28.7667 20.8021 25.8163 17.1819 21.7544 16.2443C22.7981 15.0304 23.4333 13.456 23.4333 11.7333C23.4333 7.9104 20.3229 4.8 16.5 4.8C12.6771 4.8 9.56667 7.9104 9.56667 11.7333C9.56667 13.456 10.2019 15.0304 11.2456 16.2443C7.18373 17.1819 4.23333 20.8021 4.23333 25.0667V30.776C2.69307 30.3157 1.56667 28.888 1.56667 27.2V4.8C1.56667 2.74133 3.24133 1.06667 5.3 1.06667H27.7C29.7587 1.06667 31.4333 2.74133 31.4333 4.8V27.2Z" fill="#FFB846"/>
</svg>
