<svg width="159" height="94" viewBox="0 0 159 94" fill="none" xmlns="http://www.w3.org/2000/svg">
<path fill-rule="evenodd" clip-rule="evenodd" d="M31.1587 0.800997C28.7103 1.16035 26.4815 1.71372 26.2064 2.03005C25.9312 2.34712 25.1276 4.47456 24.4214 6.75827C22.584 12.6989 18.5035 20.567 14.5347 25.8229C9.04482 33.0915 7.72765 39.2654 10.0246 46.953C12.7887 56.2004 28.5903 74.8135 40.1803 82.4732C45.1177 85.7368 54.0246 90.5572 55.1168 90.5572C55.3785 90.5572 54.0336 88.7732 52.1294 86.5937C50.2245 84.4134 47.5841 80.4288 46.2609 77.7389C44.0906 73.3248 43.856 72.1833 43.856 66.0373C43.856 60.0393 44.1184 58.6864 46.0533 54.6973C48.7933 49.0495 55.8493 41.8798 61.7672 38.7309L66.185 36.38L70.7026 40.0461C75.7156 44.1144 81.1313 46.2381 89.961 47.597C102.274 49.4927 113.454 46.6616 123.52 39.1001C126.815 36.6246 127.544 36.337 127.932 37.3577C130.199 43.3044 114.169 59.5387 92.9297 72.8061C89.0291 75.2431 83.0542 78.7325 79.6529 80.5617C76.2509 82.3902 73.4681 84.0042 73.4681 84.1492C73.4681 84.4587 82.1561 81.2985 92.21 77.332C131.307 61.907 144.96 46.7696 138.159 26.3868C137.536 24.5183 136.934 22.8877 136.822 22.7639C136.709 22.6393 134.638 24.6286 132.219 27.1841C123.341 36.5612 112.565 42.982 103.724 44.1635C100.31 44.6195 99.1932 44.353 93.0894 41.6246C87.4855 39.1197 79.4573 34.3447 74.5109 30.5745C71.8931 28.5792 58.7917 35.3873 50.8692 42.8597C45.1979 48.2093 42.2727 52.7095 40.7688 58.3965C39.2102 64.2911 39.5926 68.7174 42.3409 76.5907C43.2525 79.2035 38.4411 73.1089 36.0818 68.6637C27.8144 53.0847 30.8806 39.1009 45.8981 23.8925C52.3138 17.3954 58.7985 12.3086 66.9662 7.36524L72.8744 3.78907L77.4819 6.9002C83.5775 11.0169 94.6892 22.3902 99.2854 29.2179C101.312 32.2278 103.454 34.6912 104.045 34.6912C105.987 34.6912 113.752 30.0846 118.605 26.0531C122.914 22.474 128.208 16.6352 132.369 10.8727L133.92 8.72414L136.481 10.231C143.033 14.0835 146.177 22.6249 144.651 32.4264C143.057 42.6718 140.272 48.9469 134.672 54.9215C129.262 60.6923 122.833 65.111 110.629 71.448C104.828 74.4602 100.326 76.9349 100.624 76.9463C101.692 76.9893 112.575 72.3932 118.642 69.3372C132.108 62.5555 142.881 53.1904 146.582 45.0491C151.968 33.2025 150.52 18.743 143.21 11.3815C137.876 6.01087 136.135 5.49373 128.698 7.07006C116.53 9.6482 117.449 9.09331 114.644 15.57C112.911 19.5735 110.902 22.6317 108.13 25.4915L104.122 29.6255L101.352 25.3948C97.1413 18.9642 89.9482 11.2426 82.6584 5.32765L76.092 0L55.8508 0.0739846C44.7181 0.114752 33.6064 0.441643 31.1587 0.800997ZM62.1915 5.05964C62.1743 5.37068 58.7752 7.82349 54.6378 10.5088C42.0493 18.6811 32.5006 30.271 28.4726 42.2671C26.3413 48.6154 26.6224 58.0892 29.1091 63.6849C30.0147 65.721 30.64 67.5026 30.4998 67.6438C29.8393 68.3089 19.9413 55.6175 17.5281 51.0101C15.2514 46.6631 14.8061 45.0521 14.8061 41.1619C14.8061 35.7617 16.0925 32.8069 21.4017 26.0094C25.2453 21.0886 29.7029 12.4468 30.4405 8.48785C30.6954 7.1214 31.2877 5.96331 31.757 5.91424C33.5877 5.72324 53.1055 4.74558 57.5375 4.62253C60.1149 4.55156 62.2088 4.7486 62.1915 5.05964ZM128.194 10.4937C128.194 11.9387 120.718 20.1993 116.09 23.8683C109.234 29.3032 108.856 29.3681 112.855 24.424C114.825 21.9885 117.215 18.2221 118.167 16.0554C119.722 12.5132 120.222 12.0308 123.109 11.2834C124.875 10.8259 126.658 10.3269 127.07 10.1744C127.482 10.0219 127.904 9.87015 128.007 9.83769C128.11 9.80522 128.194 10.1004 128.194 10.4937ZM136.75 35.3458C136.75 39.6452 136.343 41.3529 134.342 45.4454C130.237 53.8412 119.057 62.9231 105.329 69.014C99.9099 71.4178 100.288 71.0328 109.452 64.8166C118.21 58.8751 128.341 49.0314 130.398 44.4632C132.095 40.6983 132.34 37.6038 131.124 35.3156C130.431 34.0133 130.687 33.3776 132.772 31.2117C135.956 27.902 136.75 28.7257 136.75 35.3458ZM76.9826 36.5695C80.2347 39.0707 86.6354 42.4709 90.7106 43.8631C91.9993 44.3039 91.2242 44.4013 88.2292 44.1771C81.4507 43.6683 69.3974 37.0497 70.872 34.6452C71.6771 33.3346 73.5371 33.9197 76.9826 36.5695ZM0 107.921C0 119.496 0.062223 120 1.49935 120C2.87275 120 3.00395 119.477 3.05792 113.772C3.1194 107.32 3.42451 107.432 5.24922 114.576C5.72677 116.444 6.45245 117.708 6.95173 117.54C7.43078 117.38 8.39111 115.065 9.08606 112.396L10.3508 107.543L10.4227 113.772C10.4947 119.909 10.5232 120 12.3884 120H14.2821L14.0751 108.11C13.8742 96.5167 13.8277 96.2132 12.2234 95.9837C10.8485 95.7867 10.4392 96.2819 9.73153 99.0035C7.72015 106.734 6.89101 109.013 6.48768 107.921C6.25753 107.298 5.34593 104.326 4.46131 101.315C3.19511 97.0059 2.54889 95.8418 1.42663 95.8418C0.0839635 95.8418 0 96.5514 0 107.921ZM17.9922 107.921V120H19.8664C21.6574 120 21.7406 119.798 21.7406 115.47V110.941H25.4087C28.0618 110.941 29.2028 110.61 29.5319 109.746C30.3611 107.57 30.0237 97.6906 29.0874 96.7477C28.5641 96.2207 26.0557 95.8418 23.09 95.8418H17.9922V107.921ZM35.0158 106.569C32.5921 119.46 32.5666 120 34.3913 120C35.3532 120 35.9387 119.285 36.2468 117.735C36.6224 115.843 37.0549 115.47 38.8706 115.47C40.6863 115.47 41.1189 115.843 41.4945 117.735C41.8169 119.357 42.3754 120 43.4624 120C45.4408 120 45.3973 119.019 42.8544 106.411C40.9045 96.7454 40.7021 96.2079 38.9224 95.9958C37.0774 95.7753 37.0122 95.952 35.0158 106.569ZM49.0722 96.7854C48.8593 97.3426 48.7798 102.709 48.8945 108.711L49.1037 119.623H54.3514H59.5991L59.8255 115.659C60.0272 112.13 59.8893 111.696 58.5616 111.696C57.4273 111.696 57.0143 112.283 56.8351 114.149C56.6274 116.32 56.341 116.603 54.3514 116.603H52.1024V107.921V99.239H54.3514C56.341 99.239 56.6274 99.5221 56.8351 101.693C57.0143 103.559 57.4273 104.146 58.5616 104.146C59.8893 104.146 60.0272 103.712 59.8255 100.183L59.5991 96.2192L54.5283 95.9958C50.8167 95.832 49.3548 96.0441 49.0722 96.7854ZM72.4995 96.3144C72.2072 96.608 71.9688 98.5882 71.9688 100.714C71.9688 104.355 72.1877 104.798 75.7171 108.298C78.7061 111.263 79.4655 112.519 79.4655 114.498C79.4655 116.625 79.2039 116.98 77.6386 116.98C76.1257 116.98 75.7719 116.559 75.577 114.527C75.3955 112.626 74.9525 112.017 73.6143 111.826C71.9725 111.592 71.8975 111.78 72.115 115.601L72.3436 119.623H77.5913H82.8391L83.0587 115.05L83.2776 110.476L79.4977 107.266C76.3071 104.557 75.7171 103.651 75.7171 101.459C75.7171 99.1915 75.9555 98.8615 77.5913 98.8615C79.1739 98.8615 79.4655 99.2141 79.4655 101.126C79.4655 103.051 79.7526 103.391 81.3809 103.391C83.1982 103.391 83.2844 103.208 83.0677 99.8052L82.8391 96.2192L77.9347 95.9995C75.2366 95.8788 72.7912 96.0207 72.4995 96.3144ZM87.7119 107.921C87.7119 119.394 87.7854 120 89.1738 120C90.428 120 90.6679 119.382 90.8606 115.659L91.0855 111.318L94.8338 110.941L98.5822 110.563L98.8011 104.262C98.9398 100.265 98.7007 97.5729 98.1474 96.901C97.5649 96.1943 95.6817 95.8418 92.4934 95.8418H87.7119V107.921ZM103.035 96.8202C102.83 97.3585 102.756 102.709 102.871 108.711L103.08 119.623L107.831 119.849C110.689 119.985 113.004 119.723 113.641 119.191C115.043 118.019 115.184 98.1406 113.801 96.7477C112.543 95.4817 103.522 95.5428 103.035 96.8202ZM118.778 96.8202C118.573 97.3585 118.5 102.709 118.614 108.711C118.819 119.379 118.861 119.628 120.51 119.864C122.191 120.104 122.197 120.066 122.197 109.484V98.8615H124.446C126.645 98.8615 126.695 98.9453 126.695 102.636C126.695 105.87 126.487 106.411 125.24 106.411C122.875 106.411 122.842 107.455 125.011 113.695C126.679 118.499 127.39 119.669 128.757 119.864C130.824 120.159 130.845 119.57 128.945 114.535C127.077 109.587 127.077 108.949 128.944 108.457C130.26 108.11 130.443 107.427 130.443 102.858C130.443 99.8166 130.069 97.2769 129.544 96.7477C128.287 95.4817 119.265 95.5428 118.778 96.8202ZM133.442 97.3517C133.442 98.4592 133.942 98.8615 135.316 98.8615H137.19V109.484C137.19 119.779 137.238 120.097 138.733 119.864C140.194 119.635 140.283 119.08 140.42 109.431L140.564 99.239L142.626 99.0005C144.082 98.8314 144.687 98.3331 144.687 97.3018C144.687 95.9882 144.123 95.8418 139.065 95.8418C133.942 95.8418 133.442 95.9761 133.442 97.3517ZM148.186 96.3453C147.911 96.6216 147.686 98.5882 147.686 100.714C147.686 104.355 147.905 104.798 151.434 108.298C154.453 111.293 155.183 112.509 155.183 114.549C155.183 116.865 155.007 117.06 153.121 116.841C151.404 116.643 151.02 116.194 150.825 114.149C150.646 112.283 150.233 111.696 149.098 111.696C147.771 111.696 147.633 112.13 147.834 115.659L148.061 119.623H153.308H158.556L158.778 115.375L159 111.129L154.808 107.099C151.553 103.97 150.665 102.642 150.838 101.154C151.007 99.695 151.55 99.1824 153.121 99.0005C154.973 98.7853 155.183 98.9959 155.183 101.077C155.183 103.042 155.465 103.391 157.057 103.391C158.771 103.391 158.931 103.109 158.931 100.075C158.931 97.7472 158.577 96.6216 157.745 96.3C156.144 95.681 148.81 95.7157 148.186 96.3453ZM26.2386 103.391V107.921H23.9896H21.7406V103.391V98.8615H23.9896H26.2386V103.391ZM95.2087 103.391V107.921H92.9597H90.7106V103.391V98.8615H92.9597H95.2087V103.391ZM110.952 107.968V117.076L108.515 116.839L106.079 116.603L105.864 108.727C105.745 104.395 105.82 100.403 106.028 99.8566C106.236 99.3092 107.429 98.8615 108.68 98.8615H110.952V107.968ZM40.0401 108.487C40.5034 112.204 40.433 112.451 38.9074 112.451C37.4028 112.451 37.3158 112.186 37.7566 108.948C38.019 107.022 38.2334 104.915 38.2334 104.267C38.2334 101.625 39.5761 104.76 40.0401 108.487Z" fill="url(#paint0_linear_187_58221)"/>
<defs>
<linearGradient id="paint0_linear_187_58221" x1="0" y1="0" x2="191" y2="113" gradientUnits="userSpaceOnUse">
<stop stop-color="#FF5247"/>
<stop offset="1" stop-color="#FFA24A"/>
</linearGradient>
</defs>
</svg>
