<svg width="42" height="28" viewBox="0 0 42 28" fill="none" xmlns="http://www.w3.org/2000/svg">
<path d="M5.14543 0.627684C5.22746 0.529879 5.89191 0.358777 6.62185 0.247666C7.35157 0.136555 10.6642 0.0354809 13.9832 0.0228759L20.0176 0L21.9752 1.64729C24.1484 3.47619 26.2929 5.86368 27.5483 7.85201L28.3741 9.16013L29.5689 7.88189C30.3954 6.99767 30.9941 6.05205 31.5109 4.81419C32.347 2.81162 32.0732 2.98319 35.7008 2.18604C37.9178 1.69865 38.437 1.85854 40.027 3.51914C42.2063 5.79528 42.6381 10.2661 41.0325 13.929C39.9291 16.4463 36.7172 19.342 32.7028 21.4388C30.894 22.3838 27.6495 23.8049 27.3313 23.7915C27.2423 23.788 28.5844 23.0229 30.3138 22.0915C33.9523 20.1321 35.8688 18.7659 37.4816 16.9816C39.1513 15.1342 39.9814 13.194 40.4568 10.0261C40.9116 6.99556 39.9742 4.35458 38.0211 3.1634L37.2576 2.69748L36.7952 3.36181C35.5546 5.14356 33.9763 6.94888 32.6916 8.05555C31.2449 9.30205 28.9299 10.7264 28.3511 10.7264C28.1747 10.7264 27.5362 9.96475 26.9321 9.03408C25.5618 6.92297 22.2492 3.4064 20.4319 2.13352L19.0583 1.17157L17.2969 2.27731C14.8619 3.80579 12.9287 5.37862 11.016 7.38749C6.53894 12.0899 5.62484 16.4136 8.08956 21.2306C8.7929 22.605 10.2273 24.4895 9.95552 23.6816C9.13619 21.2472 9.02221 19.8786 9.48686 18.056C9.93519 16.2976 10.8073 14.9062 12.498 13.2521C14.8599 10.9416 18.7658 8.8366 19.5462 9.45355C21.0208 10.6193 23.4143 12.0957 25.0849 12.8702C26.9046 13.7138 27.2376 13.7962 28.2554 13.6552C30.8911 13.2899 34.1036 11.3046 36.7503 8.40523C37.4715 7.61508 38.089 7 38.1226 7.03852C38.1561 7.0768 38.3356 7.581 38.5213 8.15873C40.5488 14.461 36.4785 19.1415 24.8227 23.9108C21.8254 25.1373 19.2353 26.1144 19.2353 26.0187C19.2353 25.9739 20.0649 25.4748 21.0792 24.9094C22.0932 24.3438 23.8744 23.2649 25.0373 22.5114C31.3694 18.4092 36.1482 13.3896 35.4723 11.5509C35.3566 11.2353 35.1393 11.3242 34.1571 12.0896C31.1562 14.4276 27.823 15.303 24.1522 14.7169C21.5199 14.2967 19.9054 13.6401 18.4108 12.3821L17.0641 11.2486L15.747 11.9755C13.9827 12.9491 11.8792 15.166 11.0623 16.9122C10.4854 18.1457 10.4072 18.564 10.4072 20.4185C10.4072 22.3189 10.4772 22.6718 11.1242 24.0366C11.5187 24.8683 12.3058 26.1004 12.8737 26.7745C13.4414 27.4484 13.8424 28 13.7644 28C13.4387 28 10.7834 26.5096 9.31141 25.5005C5.85615 23.1321 1.14529 17.377 0.321261 14.5177C-0.363532 12.1408 0.029152 10.2318 1.66582 7.98436C2.84901 6.35924 4.0655 3.92647 4.61329 2.08964C4.82382 1.38352 5.06341 0.725724 5.14543 0.627684Z" fill="url(#paint0_linear_187_60758)"/>
<defs>
<linearGradient id="paint0_linear_187_60758" x1="-1.9724" y1="-8.31417" x2="56.0271" y2="24.7709" gradientUnits="userSpaceOnUse">
<stop stop-color="#FF5247"/>
<stop offset="1" stop-color="#FFA24A"/>
</linearGradient>
</defs>
</svg>
