<?xml version="1.0" standalone="no"?>
<!DOCTYPE svg PUBLIC "-//W3C//DTD SVG 20010904//EN"
 "http://www.w3.org/TR/2001/REC-SVG-20010904/DTD/svg10.dtd">
<svg version="1.0" xmlns="http://www.w3.org/2000/svg"
 width="1272.000000pt" height="1272.000000pt" viewBox="0 0 1272.000000 1272.000000"
 preserveAspectRatio="xMidYMid meet">
<metadata>
Created by potrace 1.14, written by Peter Selinger 2001-2017
</metadata>
<g transform="translate(0.000000,1272.000000) scale(0.100000,-0.100000)"
fill="#000000" stroke="none">
<path d="M4167 10113 c-1 0 -186 -4 -412 -7 -400 -7 -509 -10 -805 -21 -237
-9 -400 -20 -460 -30 -14 -2 -43 -6 -64 -10 -21 -3 -48 -7 -60 -10 -12 -3 -32
-7 -46 -9 -58 -11 -141 -32 -188 -49 -44 -15 -70 -71 -165 -358 -118 -354
-247 -649 -422 -964 -31 -55 -58 -108 -61 -117 -4 -10 -10 -18 -15 -18 -5 0
-9 -4 -9 -9 0 -16 -199 -326 -270 -421 -98 -132 -120 -162 -120 -170 0 -4 -3
-10 -7 -12 -11 -4 -63 -86 -63 -98 0 -5 -4 -10 -9 -10 -14 0 -157 -295 -187
-385 -14 -44 -29 -87 -32 -95 -14 -40 -38 -165 -48 -250 -13 -115 -8 -306 11
-410 3 -14 7 -38 10 -55 11 -68 17 -94 36 -165 25 -93 24 -89 37 -123 7 -16
12 -33 12 -38 0 -5 4 -17 9 -27 5 -9 17 -35 26 -57 53 -122 249 -478 274 -495
4 -3 10 -12 13 -20 10 -26 242 -353 328 -460 10 -14 48 -61 82 -105 34 -44 65
-82 68 -85 3 -3 28 -32 55 -65 28 -33 55 -65 60 -71 6 -6 28 -32 50 -59 22
-26 51 -60 65 -75 14 -15 50 -56 81 -91 218 -246 625 -643 831 -811 23 -18 46
-37 52 -43 6 -5 34 -28 61 -50 28 -22 55 -43 60 -48 50 -41 226 -167 235 -167
5 0 10 -4 10 -8 0 -5 12 -15 28 -23 15 -7 43 -26 63 -41 20 -15 39 -28 43 -28
3 0 37 -20 75 -45 38 -25 73 -45 77 -45 4 0 15 -6 23 -14 9 -7 36 -25 61 -38
25 -14 88 -50 140 -80 360 -208 710 -377 710 -343 0 12 -123 175 -132 175 -4
0 -8 5 -8 10 0 9 -18 32 -80 100 -14 15 -38 45 -55 66 -16 21 -42 53 -57 70
-16 17 -28 36 -28 42 0 6 -4 12 -8 14 -4 2 -23 26 -42 53 -19 28 -37 52 -40
55 -8 7 -145 222 -153 240 -4 8 -21 38 -37 65 -38 64 -160 311 -164 335 -1 3
-4 10 -7 15 -7 11 -37 101 -44 131 -2 10 -9 37 -14 59 -5 22 -13 67 -18 100
-8 67 -9 793 0 840 3 17 8 47 11 68 11 79 51 204 97 304 10 24 19 47 19 53 0
5 5 10 10 10 6 0 10 6 10 13 0 30 151 291 205 354 5 6 21 26 35 44 171 227
431 495 630 649 25 19 50 38 55 43 6 4 21 16 35 28 13 11 40 30 60 41 19 12
37 25 40 29 9 11 119 79 129 79 5 0 11 4 13 8 2 5 46 31 98 59 52 27 147 77
210 111 l115 61 70 -57 c428 -347 536 -424 742 -526 70 -35 139 -67 153 -71
14 -4 30 -11 35 -15 6 -4 69 -27 140 -50 72 -23 139 -46 150 -50 27 -11 138
-35 148 -32 4 1 7 -2 7 -6 0 -4 8 -8 18 -9 9 0 85 -14 167 -31 83 -18 166 -34
185 -36 19 -3 46 -7 60 -10 45 -8 126 -19 230 -30 279 -30 619 -23 890 19 14
2 43 6 65 10 22 3 90 17 150 31 61 14 118 27 128 29 10 2 27 7 37 10 10 3 27
8 37 10 62 13 413 143 470 174 10 5 64 32 119 60 56 28 125 64 153 81 29 16
56 30 61 30 6 0 10 4 10 8 0 4 12 13 28 19 27 12 63 33 72 43 3 3 30 21 60 40
30 19 60 38 65 42 6 5 64 48 130 96 265 193 324 219 355 154 20 -40 22 -169 4
-228 -8 -27 -17 -56 -19 -64 -5 -21 -70 -157 -101 -209 -53 -91 -177 -264
-254 -355 -122 -144 -190 -218 -364 -391 -198 -198 -290 -283 -456 -425 -47
-41 -86 -77 -88 -82 -2 -4 -8 -8 -13 -8 -5 0 -17 -8 -27 -17 -21 -20 -46 -41
-117 -98 -54 -43 -65 -53 -90 -73 -9 -8 -46 -36 -83 -65 -37 -28 -69 -53 -72
-57 -7 -8 -297 -223 -385 -285 -38 -28 -74 -53 -80 -58 -22 -17 -138 -96 -285
-193 -85 -57 -159 -107 -165 -112 -10 -8 -169 -108 -203 -127 -10 -5 -49 -30
-87 -55 -39 -24 -73 -43 -77 -42 -5 1 -8 -3 -8 -8 0 -6 -4 -10 -9 -10 -6 0
-29 -13 -53 -28 -24 -16 -63 -40 -88 -53 -25 -13 -47 -27 -50 -30 -3 -4 -27
-18 -55 -33 -27 -15 -79 -45 -114 -67 -34 -21 -65 -39 -67 -39 -3 0 -30 -16
-60 -35 -30 -19 -56 -35 -59 -35 -2 0 -30 -15 -62 -34 -32 -18 -80 -46 -108
-61 -380 -210 -518 -285 -526 -285 -5 0 -9 -3 -9 -7 0 -5 -27 -23 -60 -42 -32
-19 -56 -39 -53 -44 3 -5 8 -5 12 -1 3 5 16 10 29 12 23 3 290 95 442 152 47
17 92 33 100 35 16 3 139 50 180 68 14 6 27 11 30 12 3 1 12 5 20 8 8 4 44 17
80 30 153 56 763 293 815 317 11 5 106 45 210 89 184 77 316 134 420 181 28
13 52 24 55 25 3 0 19 8 36 18 17 9 34 13 38 10 3 -4 6 -1 6 5 0 7 4 12 9 12
5 0 47 17 93 38 45 22 90 42 98 45 54 23 600 307 610 317 3 3 30 18 60 34 103
55 459 273 496 304 5 5 21 15 34 22 14 7 30 19 37 26 7 6 29 22 50 35 21 13
40 26 43 29 3 3 21 17 40 30 19 14 40 28 45 33 6 4 46 35 90 68 44 34 82 64
85 67 3 4 28 25 55 47 28 22 61 49 74 60 52 42 310 303 367 370 32 39 61 72
64 75 10 9 160 220 160 225 0 2 15 28 34 57 112 177 219 457 252 662 3 21 7
48 10 60 24 123 23 466 -2 588 -8 42 -15 83 -19 108 -14 95 -126 472 -173 578
-9 21 -16 40 -16 44 -2 17 -16 18 -37 1 -13 -10 -156 -151 -319 -314 -253
-254 -383 -377 -489 -465 -13 -10 -28 -24 -35 -29 -6 -6 -31 -26 -56 -45 -25
-19 -47 -37 -50 -40 -3 -3 -25 -21 -50 -40 -25 -19 -47 -37 -50 -40 -3 -3 -12
-9 -22 -15 -9 -5 -62 -43 -117 -82 -56 -40 -106 -73 -111 -73 -4 0 -10 -4 -12
-8 -6 -16 -239 -155 -368 -219 -41 -21 -76 -41 -78 -45 -2 -5 -7 -8 -12 -8 -8
0 -58 -22 -190 -82 -151 -69 -474 -166 -610 -183 -14 -2 -47 -6 -75 -10 -75
-11 -213 -13 -260 -4 -66 14 -78 16 -138 34 -58 17 -141 49 -232 89 -27 12
-86 38 -130 56 -111 48 -476 229 -497 248 -10 8 -18 11 -18 7 0 -4 -8 -2 -17
6 -10 8 -27 19 -38 25 -11 6 -51 28 -90 49 -38 21 -90 52 -115 69 -25 17 -47
30 -50 30 -3 -1 -14 4 -25 11 -11 7 -76 48 -145 90 -195 121 -493 322 -510
345 -3 4 -26 19 -51 33 -68 40 -165 37 -318 -9 -31 -10 -58 -18 -61 -19 -18
-4 -62 -20 -100 -37 -25 -10 -54 -23 -65 -27 -166 -66 -720 -377 -733 -412 -2
-5 -8 -9 -13 -9 -14 0 -334 -232 -359 -260 -3 -3 -18 -16 -35 -28 -88 -67
-423 -390 -493 -475 -123 -150 -164 -202 -174 -220 -6 -12 -17 -27 -24 -35
-16 -15 -124 -189 -124 -199 0 -3 -6 -14 -13 -22 -40 -47 -149 -330 -191 -497
-30 -121 -31 -124 -55 -279 -10 -64 -8 -384 3 -447 3 -21 8 -53 11 -70 10 -72
18 -108 46 -218 16 -63 31 -122 33 -130 2 -8 25 -78 50 -156 43 -131 54 -184
40 -184 -18 0 -214 228 -214 249 0 5 -4 11 -8 13 -4 2 -28 32 -52 68 -25 36
-48 67 -52 68 -5 2 -8 7 -8 12 0 5 -17 35 -39 67 -86 130 -264 473 -264 511 0
6 -4 12 -9 12 -4 0 -8 6 -8 12 0 11 -21 70 -51 143 -62 152 -141 524 -147 690
-3 74 -1 307 3 340 2 22 7 65 10 95 3 30 8 62 10 70 3 8 7 31 10 50 6 49 12
74 36 170 6 25 12 50 13 55 10 44 52 161 60 167 6 4 8 8 4 8 -20 0 155 383
228 497 19 29 34 56 34 58 0 7 161 248 169 255 4 3 27 34 53 70 25 36 54 75
64 87 28 31 45 53 84 103 19 25 46 57 60 71 14 15 45 51 70 80 79 94 531 541
660 653 164 143 163 142 250 211 41 33 87 71 102 84 15 13 39 31 52 40 26 18
194 144 213 161 7 5 17 10 23 10 5 0 10 3 10 8 0 4 44 36 98 72 53 36 102 69
107 73 17 15 268 177 272 177 3 0 28 15 56 34 99 64 219 136 228 136 5 0 9 5
9 10 0 6 6 10 14 10 7 0 24 9 38 19 13 11 42 29 63 41 22 11 76 43 120 70 67
42 82 47 95 36 8 -7 86 -61 173 -120 222 -149 367 -253 387 -276 3 -3 32 -28
65 -55 33 -28 65 -54 71 -60 6 -5 39 -35 74 -65 111 -96 220 -200 420 -400
194 -195 232 -235 385 -405 44 -49 92 -102 107 -117 14 -16 24 -28 21 -28 -3
0 3 -8 13 -17 53 -48 267 -324 404 -518 41 -59 82 -116 90 -125 8 -10 23 -28
33 -39 9 -12 17 -23 17 -26 0 -5 40 -53 73 -87 9 -10 17 -21 17 -25 1 -11 93
-85 117 -94 11 -4 48 2 88 16 73 23 228 95 233 108 2 4 7 5 12 2 5 -3 14 0 22
7 7 7 31 22 53 34 78 40 300 179 308 191 4 7 13 13 18 13 14 0 341 230 369
260 3 3 30 25 60 50 171 140 410 374 614 604 130 148 236 274 321 386 28 35
60 76 73 90 12 14 22 28 22 31 0 3 8 15 18 27 9 11 49 64 87 117 39 53 77 106
85 117 15 20 19 18 160 -67 80 -48 147 -91 148 -96 2 -5 8 -9 13 -9 29 0 221
-196 284 -291 28 -41 53 -76 56 -79 3 -3 29 -52 57 -110 80 -165 127 -319 168
-560 10 -64 23 -359 15 -374 -3 -6 -6 -39 -7 -75 -2 -69 -10 -148 -18 -191 -3
-14 -8 -41 -10 -60 -3 -19 -7 -44 -10 -55 -2 -11 -7 -40 -11 -65 -4 -25 -9
-54 -11 -65 -2 -11 -6 -32 -9 -47 -6 -31 -57 -244 -78 -328 -53 -203 -178
-508 -275 -670 -12 -19 -29 -48 -38 -65 -21 -38 -134 -204 -154 -227 -8 -9
-19 -23 -25 -30 -105 -140 -369 -411 -525 -538 -21 -17 -51 -43 -67 -56 -51
-46 -296 -228 -388 -289 -49 -33 -91 -63 -93 -67 -2 -5 -8 -8 -14 -8 -5 0 -29
-13 -53 -30 -24 -16 -48 -30 -54 -30 -6 0 -11 -3 -11 -8 0 -4 -26 -22 -57 -40
-32 -19 -143 -82 -248 -142 -104 -60 -196 -114 -203 -120 -6 -6 -12 -9 -12 -6
0 3 -28 -11 -62 -31 -56 -31 -262 -140 -403 -212 -27 -14 -52 -28 -55 -31 -3
-3 -39 -22 -80 -43 -77 -38 -168 -86 -300 -159 -41 -23 -95 -52 -120 -66 -81
-44 -161 -94 -158 -98 8 -7 210 64 373 131 11 5 22 9 25 10 3 1 16 6 30 12 14
6 54 23 90 37 36 15 79 33 95 41 106 47 149 65 161 65 8 0 14 5 14 10 0 6 6
10 14 10 8 0 52 17 98 39 45 21 106 49 133 61 85 39 216 100 315 148 52 25 97
45 99 43 2 -1 7 2 10 7 3 5 33 23 66 39 74 37 188 99 236 129 20 13 40 20 43
17 3 -4 6 -1 6 5 0 7 4 12 9 12 8 0 98 53 271 160 94 58 305 203 308 212 2 4
8 8 13 8 5 0 68 46 141 102 144 111 149 115 217 172 25 21 68 57 95 80 146
121 457 449 561 591 16 22 33 42 37 43 4 2 8 10 8 17 0 7 3 15 8 17 7 3 35 44
95 139 49 79 171 336 182 384 1 5 5 17 8 25 18 49 47 131 47 138 0 4 9 36 19
72 23 77 52 205 56 240 1 14 5 34 8 45 3 11 9 43 12 70 4 28 8 66 11 85 23
193 23 556 0 676 -2 12 -7 45 -11 74 -4 29 -9 61 -11 72 -4 20 -7 33 -20 93
-4 22 -9 45 -10 50 -1 6 -3 13 -4 18 -3 8 -3 8 -14 57 -5 19 -12 41 -16 50 -4
8 -13 33 -19 55 -7 22 -16 49 -21 60 -4 11 -19 47 -31 80 -20 51 -67 147 -113
230 -82 147 -257 347 -446 510 -142 122 -256 181 -395 202 -105 17 -291 3
-465 -34 -41 -8 -84 -17 -95 -18 -11 -2 -38 -7 -60 -13 -22 -6 -53 -13 -70
-16 -16 -3 -41 -7 -55 -10 -14 -3 -34 -8 -45 -10 -11 -2 -39 -9 -62 -14 -24
-5 -43 -8 -43 -6 0 3 -8 0 -18 -5 -10 -5 -36 -12 -58 -15 -59 -8 -260 -62
-335 -90 -166 -63 -214 -122 -350 -436 -72 -166 -174 -370 -219 -435 -16 -24
-30 -46 -30 -50 0 -3 -4 -11 -10 -18 -5 -7 -34 -46 -64 -87 -108 -147 -116
-157 -438 -488 l-107 -111 -175 262 c-330 497 -617 833 -1117 1307 -90 85
-105 100 -208 189 -58 51 -170 146 -255 216 -27 22 -55 46 -62 53 -7 6 -17 12
-22 12 -6 0 -12 3 -14 8 -1 4 -39 36 -83 72 -44 36 -82 67 -85 70 -3 3 -21 17
-42 32 -20 15 -42 34 -50 41 -7 7 -39 34 -72 60 l-58 47 -960 -2 c-528 -2
-960 -4 -961 -5z m643 -367 c117 -6 160 -15 160 -31 0 -12 -49 -56 -114 -102
-17 -12 -35 -26 -41 -30 -37 -30 -211 -149 -390 -267 -115 -77 -211 -143 -213
-148 -2 -4 -8 -8 -13 -8 -8 0 -71 -45 -122 -86 -9 -8 -19 -14 -22 -14 -3 0
-15 -9 -27 -19 -13 -11 -70 -57 -128 -102 -58 -46 -110 -88 -116 -94 -6 -5
-38 -32 -69 -60 -277 -240 -561 -541 -765 -810 -25 -33 -47 -62 -50 -65 -29
-29 -224 -328 -302 -464 -77 -135 -208 -398 -208 -419 0 -7 -4 -17 -9 -22 -15
-17 -110 -279 -136 -377 -23 -90 -27 -107 -40 -192 -4 -21 -9 -48 -11 -60 -16
-68 -28 -259 -28 -421 1 -145 12 -363 19 -376 2 -3 7 -28 10 -56 3 -27 8 -60
10 -74 3 -13 8 -37 11 -54 14 -80 61 -240 96 -325 65 -159 128 -328 128 -345
0 -8 -7 -15 -15 -15 -8 0 -15 5 -15 10 0 6 -4 10 -10 10 -9 0 -101 91 -152
153 -16 17 -40 46 -54 62 -77 89 -294 365 -294 374 0 6 -4 11 -8 11 -4 0 -32
35 -62 77 -30 42 -62 84 -70 93 -8 9 -19 24 -25 32 -48 72 -65 97 -77 109 -7
8 -59 84 -115 169 -186 285 -312 558 -339 733 -22 148 -23 510 -1 524 4 2 5 8
2 13 -8 13 20 136 50 220 26 72 113 260 126 270 3 3 14 19 23 35 9 17 24 42
34 56 72 110 94 142 103 152 6 7 35 46 65 87 52 70 96 127 119 154 6 6 26 34
45 61 19 28 38 52 42 53 4 2 8 8 8 13 0 10 62 103 73 107 4 2 7 7 7 12 0 5 17
35 38 67 87 131 273 478 349 648 29 65 104 256 109 275 1 8 8 31 14 50 9 30
24 88 34 140 4 21 16 52 27 72 5 10 9 23 9 30 0 7 13 25 28 40 25 24 35 27
137 32 61 4 142 8 180 11 39 2 122 7 185 10 63 3 151 8 195 10 44 3 130 7 190
10 61 2 155 7 210 10 55 3 145 8 200 10 55 2 152 7 215 10 63 3 151 8 195 10
44 2 168 7 275 10 107 4 197 8 198 10 2 2 9 2 15 0 7 -2 55 -6 107 -9z m5441
-438 c3 -56 -26 -115 -100 -207 -20 -25 -43 -54 -51 -66 -8 -12 -37 -48 -65
-80 -27 -32 -58 -67 -68 -79 -154 -178 -448 -471 -602 -600 -103 -86 -150
-123 -213 -171 -8 -5 -24 -20 -37 -31 -13 -12 -27 -24 -32 -25 -4 -2 -51 -36
-103 -75 -108 -81 -136 -97 -150 -89 -8 5 35 80 60 105 3 3 18 23 35 45 16 22
32 42 35 45 3 3 24 30 48 60 23 30 47 62 54 70 32 37 98 131 98 139 0 5 4 11
9 13 5 2 36 46 69 98 34 52 66 100 72 107 5 7 10 14 10 16 0 2 23 44 51 93 28
49 55 99 60 112 35 91 135 273 170 309 36 38 122 88 168 98 9 2 68 18 131 36
63 17 122 33 130 34 8 2 16 4 18 4 1 1 4 2 7 2 2 1 41 14 87 29 103 35 108 35
109 8z m626 -1553 c16 -17 44 -102 51 -160 12 -96 5 -640 -8 -640 -1 0 -4 -11
-6 -25 -22 -123 -77 -264 -181 -468 -81 -159 -160 -277 -298 -446 -74 -91
-238 -260 -350 -361 -48 -44 -95 -87 -104 -95 -9 -8 -39 -33 -66 -55 -28 -22
-52 -42 -55 -46 -3 -3 -23 -18 -45 -34 -22 -17 -42 -33 -45 -36 -3 -3 -39 -30
-80 -59 -41 -30 -77 -57 -80 -60 -24 -27 -357 -239 -555 -352 -218 -125 -647
-338 -681 -338 -8 0 -14 -4 -14 -10 0 -5 -3 -9 -7 -8 -8 1 -19 -3 -98 -37 -66
-29 -105 -38 -105 -25 0 13 149 124 320 238 30 20 57 39 60 42 3 3 39 28 80
55 41 27 81 56 88 62 7 7 18 13 23 13 5 0 22 11 37 25 15 14 30 25 34 25 4 0
16 6 25 14 10 8 81 61 159 119 121 90 349 269 364 286 3 3 34 31 70 61 36 30
70 59 76 65 138 122 212 192 379 360 110 110 225 229 255 264 30 35 60 69 66
75 30 32 181 239 199 273 11 21 22 40 26 43 6 5 18 35 19 48 1 4 7 16 15 28
14 22 71 185 80 231 41 202 25 376 -43 481 -8 13 -15 45 -15 72 -1 67 26 108
163 249 131 135 201 171 247 126z m-4972 -395 c39 -19 72 -36 75 -39 3 -4 32
-24 64 -45 33 -21 64 -43 70 -47 92 -76 327 -231 431 -284 17 -8 55 -29 85
-46 130 -72 398 -203 460 -224 8 -3 42 -16 85 -34 22 -9 59 -23 83 -31 43 -14
56 -29 25 -31 -54 -3 -257 7 -299 15 -12 3 -38 7 -58 10 -64 10 -211 48 -221
57 -5 5 -19 9 -30 9 -12 0 -25 3 -29 7 -3 4 -14 8 -22 9 -34 5 -237 90 -374
157 -372 182 -611 380 -585 485 7 27 29 54 55 65 34 15 117 -1 185 -33z"/>
</g>
</svg>
